<svg width="40" height="43" viewBox="0 0 40 43" fill="none" xmlns="http://www.w3.org/2000/svg">
<g filter="url(#filter0_d_1454_49801)">
<path d="M28.4853 26.4852L20 34.9706L11.5147 26.4852C9.83646 24.807 8.69358 22.6688 8.23057 20.341C7.76756 18.0133 8.00521 15.6005 8.91346 13.4078C9.82172 11.2151 11.3598 9.34092 13.3332 8.02235C15.3066 6.70378 17.6266 6 20 6C22.3734 6 24.6934 6.70378 26.6668 8.02235C28.6402 9.34092 30.1783 11.2151 31.0865 13.4078C31.9948 15.6005 32.2324 18.0133 31.7694 20.341C31.3064 22.6688 30.1636 24.807 28.4853 26.4852V26.4852ZM20 20.6666C20.7072 20.6666 21.3855 20.3856 21.8856 19.8855C22.3857 19.3854 22.6667 18.7071 22.6667 17.9999C22.6667 17.2927 22.3857 16.6144 21.8856 16.1143C21.3855 15.6142 20.7072 15.3332 20 15.3332C19.2928 15.3332 18.6145 15.6142 18.1144 16.1143C17.6143 16.6144 17.3333 17.2927 17.3333 17.9999C17.3333 18.7071 17.6143 19.3854 18.1144 19.8855C18.6145 20.3856 19.2928 20.6666 20 20.6666Z" fill="#909090"/>
<rect x="16" y="14.333" width="9" height="7" fill="#909090"/>
</g>
<path d="M16.5 14.3022V18.8945C16.5 19.5632 16.8342 20.1876 17.3906 20.5585L20 22.2982L22.6094 20.5585C23.1658 20.1876 23.5 19.5632 23.5 18.8945V14.3022L20 13.5244L16.5 14.3022ZM15.8915 13.413L20 12.5L24.1084 13.413C24.3372 13.4638 24.5 13.6667 24.5 13.9011V18.8945C24.5 19.8975 23.9987 20.8342 23.1641 21.3906L20 23.5L16.8359 21.3906C16.0013 20.8342 15.5 19.8975 15.5 18.8945V13.9011C15.5 13.6667 15.6628 13.4638 15.8915 13.413ZM20 18.75L18.5305 19.5226L18.8112 17.8863L17.6224 16.7275L19.2653 16.4887L20 15L20.7347 16.4887L22.3777 16.7275L21.1888 17.8863L21.4694 19.5226L20 18.75Z" fill="white"/>
<defs>
<filter id="filter0_d_1454_49801" x="-6" y="-4" width="52" height="52" filterUnits="userSpaceOnUse" color-interpolation-filters="sRGB">
<feFlood flood-opacity="0" result="BackgroundImageFix"/>
<feColorMatrix in="SourceAlpha" type="matrix" values="0 0 0 0 0 0 0 0 0 0 0 0 0 0 0 0 0 0 127 0" result="hardAlpha"/>
<feOffset dy="2"/>
<feGaussianBlur stdDeviation="3"/>
<feColorMatrix type="matrix" values="0 0 0 0 0 0 0 0 0 0 0 0 0 0 0.0705882 0 0 0 0.16 0"/>
<feBlend mode="normal" in2="BackgroundImageFix" result="effect1_dropShadow_1454_49801"/>
<feBlend mode="normal" in="SourceGraphic" in2="effect1_dropShadow_1454_49801" result="shape"/>
</filter>
</defs>
</svg>
