<svg width="67" height="72" viewBox="0 0 67 72" fill="none" xmlns="http://www.w3.org/2000/svg">
<g filter="url(#filter0_d_2345_12414)">
<path d="M37.955 38.9549L30 46.9099L22.045 38.9549C20.4717 37.3816 19.4002 35.377 18.9662 33.1947C18.5321 31.0124 18.7549 28.7504 19.6064 26.6948C20.4579 24.6391 21.8998 22.8821 23.7499 21.646C25.5999 20.4098 27.775 19.75 30 19.75C32.225 19.75 34.4001 20.4098 36.2502 21.646C38.1002 22.8821 39.5421 24.6391 40.3936 26.6948C41.2451 28.7504 41.4679 31.0124 41.0338 33.1947C40.5998 35.377 39.5283 37.3816 37.955 38.9549ZM30 34.4166C30.9062 34.4166 31.7752 34.0566 32.416 33.4158C33.0567 32.7751 33.4167 31.9061 33.4167 30.9999C33.4167 30.0937 33.0567 29.2247 32.416 28.5839C31.7752 27.9432 30.9062 27.5832 30 27.5832C29.0938 27.5832 28.2248 27.9432 27.5841 28.5839C26.9433 29.2247 26.5833 30.0937 26.5833 30.9999C26.5833 31.9061 26.9433 32.7751 27.5841 33.4158C28.2248 34.0566 29.0938 34.4166 30 34.4166Z" fill="#AEA397" stroke="white" stroke-width="1.5"/>
<rect x="24" y="26" width="12" height="12" fill="#AEA397"/>
<rect x="33.5" y="12.5" width="15" height="15" rx="7.5" fill="#BF5837"/>
<rect x="33.5" y="12.5" width="15" height="15" rx="7.5" stroke="white"/>
<path fill-rule="evenodd" clip-rule="evenodd" d="M41.8337 20.9382V24.1665H37.667C37.6667 23.1354 38.1437 22.1622 38.9587 21.5307C39.7738 20.8992 40.8353 20.6804 41.8337 20.9382ZM41.0003 20.4165C39.6191 20.4165 38.5003 19.2978 38.5003 17.9165C38.5003 16.5353 39.6191 15.4165 41.0003 15.4165C42.3816 15.4165 43.5003 16.5353 43.5003 17.9165C43.5003 19.2978 42.3816 20.4165 41.0003 20.4165ZM43.5003 22.0832V20.8332H44.3337V22.0832H45.5837V22.9165H44.3337V24.1665H43.5003V22.9165H42.2503V22.0832H43.5003Z" fill="white"/>
</g>
<path d="M26.5 27.3022V31.8945C26.5 32.5632 26.8342 33.1876 27.3906 33.5585L30 35.2982L32.6094 33.5585C33.1658 33.1876 33.5 32.5632 33.5 31.8945V27.3022L30 26.5244L26.5 27.3022ZM25.8915 26.413L30 25.5L34.1084 26.413C34.3372 26.4638 34.5 26.6667 34.5 26.9011V31.8945C34.5 32.8975 33.9987 33.8342 33.1641 34.3906L30 36.5L26.8359 34.3906C26.0013 33.8342 25.5 32.8975 25.5 31.8945V26.9011C25.5 26.6667 25.6628 26.4638 25.8915 26.413ZM30 31.75L28.5305 32.5226L28.8112 30.8863L27.6224 29.7275L29.2653 29.4887L30 28L30.7347 29.4887L32.3777 29.7275L31.1888 30.8863L31.4694 32.5226L30 31.75Z" fill="white"/>
<defs>
<filter id="filter0_d_2345_12414" x="-8" y="-1" width="78" height="78" filterUnits="userSpaceOnUse" color-interpolation-filters="sRGB">
<feFlood flood-opacity="0" result="BackgroundImageFix"/>
<feColorMatrix in="SourceAlpha" type="matrix" values="0 0 0 0 0 0 0 0 0 0 0 0 0 0 0 0 0 0 127 0" result="hardAlpha"/>
<feOffset dy="6"/>
<feGaussianBlur stdDeviation="9"/>
<feColorMatrix type="matrix" values="0 0 0 0 0 0 0 0 0 0 0 0 0 0 0.0705882 0 0 0 0.32 0"/>
<feBlend mode="normal" in2="BackgroundImageFix" result="effect1_dropShadow_2345_12414"/>
<feBlend mode="normal" in="SourceGraphic" in2="effect1_dropShadow_2345_12414" result="shape"/>
</filter>
</defs>
</svg>
