<svg width="50" height="50" viewBox="0 0 50 50" fill="none" xmlns="http://www.w3.org/2000/svg">
<path d="M37.728 35.6448L25 48.3728L12.272 35.6448C9.75469 33.1275 8.04037 29.9202 7.34586 26.4285C6.65134 22.9369 7.00781 19.3177 8.3702 16.0286C9.73258 12.7396 12.0397 9.92838 14.9998 7.95052C17.9598 5.97267 21.44 4.91699 25 4.91699C28.5601 4.91699 32.0402 5.97267 35.0002 7.95052C37.9603 9.92838 40.2674 12.7396 41.6298 16.0286C42.9922 19.3177 43.3487 22.9369 42.6542 26.4285C41.9596 29.9202 40.2453 33.1275 37.728 35.6448ZM25 27.8335C26.304 27.8335 27.5546 27.3155 28.4766 26.3934C29.3987 25.4714 29.9167 24.2208 29.9167 22.9168C29.9167 21.6128 29.3987 20.3623 28.4766 19.4402C27.5546 18.5182 26.304 18.0002 25 18.0002C23.696 18.0002 22.4455 18.5182 21.5234 19.4402C20.6013 20.3623 20.0833 21.6128 20.0833 22.9168C20.0833 24.2208 20.6013 25.4714 21.5234 26.3934C22.4455 27.3155 23.696 27.8335 25 27.8335Z" fill="#CE0500" stroke="white" stroke-width="1.5"/>
</svg>
