<svg width="40" height="43" viewBox="0 0 40 43" fill="none" xmlns="http://www.w3.org/2000/svg">
<g filter="url(#filter0_d_1858_1930)">
<path d="M28.4853 26.4852L20 34.9706L11.5147 26.4852C9.83646 24.807 8.69358 22.6688 8.23057 20.341C7.76756 18.0133 8.00521 15.6005 8.91346 13.4078C9.82172 11.2151 11.3598 9.34092 13.3332 8.02235C15.3066 6.70378 17.6266 6 20 6C22.3734 6 24.6934 6.70378 26.6668 8.02235C28.6402 9.34092 30.1783 11.2151 31.0865 13.4078C31.9948 15.6005 32.2324 18.0133 31.7694 20.341C31.3064 22.6688 30.1636 24.807 28.4853 26.4852V26.4852ZM20 20.6666C20.7072 20.6666 21.3855 20.3856 21.8856 19.8855C22.3857 19.3854 22.6667 18.7071 22.6667 17.9999C22.6667 17.2927 22.3857 16.6144 21.8856 16.1143C21.3855 15.6142 20.7072 15.3332 20 15.3332C19.2928 15.3332 18.6145 15.6142 18.1144 16.1143C17.6143 16.6144 17.3333 17.2927 17.3333 17.9999C17.3333 18.7071 17.6143 19.3854 18.1144 19.8855C18.6145 20.3856 19.2928 20.6666 20 20.6666Z" fill="#CE614A"/>
<rect x="16" y="14.333" width="9" height="7" fill="#CE614A"/>
</g>
<path d="M24 22.0001C24 22.2762 23.7761 22.5001 23.5 22.5001H16.5C16.2239 22.5001 16 22.2762 16 22.0001V17.5001H14.5L19.6637 12.8058C19.8544 12.6324 20.1456 12.6324 20.3363 12.8058L25.5 17.5001H24V22.0001ZM17.75 18.5001C17.75 19.7427 18.7574 20.7501 20 20.7501C21.2427 20.7501 22.25 19.7427 22.25 18.5001H21.25C21.25 19.1904 20.6903 19.7501 20 19.7501C19.3097 19.7501 18.75 19.1904 18.75 18.5001H17.75Z" fill="white"/>
<defs>
<filter id="filter0_d_1858_1930" x="-6" y="-4" width="52" height="52" filterUnits="userSpaceOnUse" color-interpolation-filters="sRGB">
<feFlood flood-opacity="0" result="BackgroundImageFix"/>
<feColorMatrix in="SourceAlpha" type="matrix" values="0 0 0 0 0 0 0 0 0 0 0 0 0 0 0 0 0 0 127 0" result="hardAlpha"/>
<feOffset dy="2"/>
<feGaussianBlur stdDeviation="3"/>
<feColorMatrix type="matrix" values="0 0 0 0 0 0 0 0 0 0 0 0 0 0 0.0705882 0 0 0 0.16 0"/>
<feBlend mode="normal" in2="BackgroundImageFix" result="effect1_dropShadow_1858_1930"/>
<feBlend mode="normal" in="SourceGraphic" in2="effect1_dropShadow_1858_1930" result="shape"/>
</filter>
</defs>
</svg>
