<svg width="67" height="72" viewBox="0 0 67 72" fill="none" xmlns="http://www.w3.org/2000/svg">
<g filter="url(#filter0_d_2345_12408)">
<path d="M37.955 38.9549L30 46.9099L22.045 38.9549C20.4717 37.3816 19.4002 35.377 18.9662 33.1947C18.5321 31.0124 18.7549 28.7504 19.6064 26.6948C20.4579 24.6391 21.8998 22.8821 23.7499 21.646C25.5999 20.4098 27.775 19.75 30 19.75C32.225 19.75 34.4001 20.4098 36.2502 21.646C38.1002 22.8821 39.5421 24.6391 40.3936 26.6948C41.2451 28.7504 41.4679 31.0124 41.0338 33.1947C40.5998 35.377 39.5283 37.3816 37.955 38.9549ZM30 34.4166C30.9062 34.4166 31.7752 34.0566 32.416 33.4158C33.0567 32.7751 33.4167 31.9061 33.4167 30.9999C33.4167 30.0937 33.0567 29.2247 32.416 28.5839C31.7752 27.9432 30.9062 27.5832 30 27.5832C29.0938 27.5832 28.2248 27.9432 27.5841 28.5839C26.9433 29.2247 26.5833 30.0937 26.5833 30.9999C26.5833 31.9061 26.9433 32.7751 27.5841 33.4158C28.2248 34.0566 29.0938 34.4166 30 34.4166Z" fill="#CE614A" stroke="white" stroke-width="1.5"/>
<rect x="24" y="26" width="12" height="12" fill="#CE614A"/>
<rect x="33.5" y="12.5" width="15" height="15" rx="7.5" fill="#A558A0"/>
<rect x="33.5" y="12.5" width="15" height="15" rx="7.5" stroke="white"/>
<path d="M37.667 21.25V18.5417C37.667 17.5061 38.5065 16.6667 39.542 16.6667C40.5775 16.6667 41.417 17.5061 41.417 18.5417V21.4583C41.417 22.0336 41.8834 22.5 42.4587 22.5C43.034 22.5 43.5003 22.0336 43.5003 21.4583V18.6789C43.0148 18.5073 42.667 18.0443 42.667 17.5C42.667 16.8096 43.2266 16.25 43.917 16.25C44.6074 16.25 45.167 16.8096 45.167 17.5C45.167 18.0443 44.8192 18.5073 44.3337 18.6789V21.4583C44.3337 22.4939 43.4942 23.3333 42.4587 23.3333C41.4231 23.3333 40.5837 22.4939 40.5837 21.4583V18.5417C40.5837 17.9664 40.1173 17.5 39.542 17.5C38.9667 17.5 38.5003 17.9664 38.5003 18.5417V21.25H39.7503L38.0837 23.3333L36.417 21.25H37.667Z" fill="white"/>
</g>
<path d="M34 35.0001C34 35.2762 33.7761 35.5001 33.5 35.5001H26.5C26.2239 35.5001 26 35.2762 26 35.0001V30.5001H24.5L29.6637 25.8058C29.8544 25.6324 30.1456 25.6324 30.3363 25.8058L35.5 30.5001H34V35.0001ZM27.75 31.5001C27.75 32.7427 28.7574 33.7501 30 33.7501C31.2427 33.7501 32.25 32.7427 32.25 31.5001H31.25C31.25 32.1904 30.6903 32.7501 30 32.7501C29.3097 32.7501 28.75 32.1904 28.75 31.5001H27.75Z" fill="white"/>
<defs>
<filter id="filter0_d_2345_12408" x="-8" y="-1" width="78" height="78" filterUnits="userSpaceOnUse" color-interpolation-filters="sRGB">
<feFlood flood-opacity="0" result="BackgroundImageFix"/>
<feColorMatrix in="SourceAlpha" type="matrix" values="0 0 0 0 0 0 0 0 0 0 0 0 0 0 0 0 0 0 127 0" result="hardAlpha"/>
<feOffset dy="6"/>
<feGaussianBlur stdDeviation="9"/>
<feColorMatrix type="matrix" values="0 0 0 0 0 0 0 0 0 0 0 0 0 0 0.0705882 0 0 0 0.32 0"/>
<feBlend mode="normal" in2="BackgroundImageFix" result="effect1_dropShadow_2345_12408"/>
<feBlend mode="normal" in="SourceGraphic" in2="effect1_dropShadow_2345_12408" result="shape"/>
</filter>
</defs>
</svg>
