<svg width="44" height="44" viewBox="0 0 44 44" fill="none" xmlns="http://www.w3.org/2000/svg">
<g clip-path="url(#clip0_3520_18589)">
<path d="M9.34564 39.876L10.0498 40.036L10.3057 40.356L10.4978 40.676L10.0498 41.6361L9.44189 41.4761L8.76978 41.0919L8.92977 40.356L9.34564 39.876Z" fill="#000091"/>
<path d="M11.3623 40.1957L11.7781 39.8106H12.4819L12.3536 39.1068L12.7694 38.9147L13.0574 38.5947L13.5374 38.6906L13.3774 39.2669L13.5374 39.5869L12.9615 40.0348L13.0257 40.5482L12.4815 40.4199C12.4815 40.4199 12.1615 40.8049 12.0965 40.7399C11.904 40.6472 11.6993 40.5825 11.4885 40.5478L11.3623 40.1957Z" fill="#000091"/>
<path d="M34.4967 18.2768L33.7266 17.7005L32.4786 17.5089L30.8786 16.7726L30.5585 16.1967L30.0785 15.0129L28.7668 14.1491L27.103 13.5407H25.793L23.5533 12.9328L22.1774 11.2373L21.8253 10.0852L22.4016 8.26133L21.5373 5.70163L19.9377 4.61366L19.6177 4.10027L19.0097 3.97192L18.3376 3.2998L17.5055 4.45194L16.5459 4.96534L16.2579 5.47873L15.5537 5.92667L14.6579 6.79089L14.5937 7.56098L15.17 9.70482L16.0017 10.3765L16.2584 10.4086L16.9001 10.8565L16.9643 12.1683L17.0601 12.425L16.4843 12.6171L16.1642 13.065L15.6508 12.9687L14.9145 13.6729L14.8508 14.7288L14.4029 15.4326V15.8484L14.0828 16.4247L13.5386 16.4885L12.8349 16.3285L12.3869 16.5206L12.0019 17.1927L11.5219 17.2243L11.2981 16.8085L10.8502 17.0964L10.018 16.6164L10.5939 16.2647L11.1381 15.2088L9.98595 15.4326L9.02634 14.9492L8.70633 14.4054H7.61879L6.05078 13.4453L5.34702 13.3495L4.32278 12.3895C4.32278 12.3895 3.74692 12.0044 3.65109 12.0694L3.07481 12.3895L2.43307 12.4536L1.66512 12.9016L1.21719 13.415L0.99301 14.1512L0.449241 14.5992L0.545074 15.1126L0.288361 15.626V16.6177L0 17.1311L0.0962771 17.4832L0.320036 18.6349L1.15214 19.787L1.34425 20.5571L1.15214 21.293L1.3759 21.9968L1.24756 22.3818L1.69549 22.8952L1.72758 24.2711L2.07969 25.0707L1.85551 25.7749L1.8876 27.2146L2.27263 27.4388L2.14429 29.0388L2.4643 29.8385L3.20018 30.5427L3.36017 31.7585L4.64023 33.3582H5.08817L5.40818 34.1903L5.5682 35.182L6.30408 35.502L7.51996 34.9887L7.80787 34.5407L8.22416 34.6045L8.76793 34.2844L9.72799 34.3486L10.1759 34.0286L10.5918 33.0686L13.0556 31.1168L13.7598 29.5167L13.5998 28.8129L13.6315 27.1812L13.4398 26.3491L13.0877 25.997L13.1519 25.5169L13.4719 25.069L12.7677 24.4932V23.8514L12.3519 23.4997L12.256 22.8918L12.6077 22.4118L11.9998 21.9317L11.9039 21.4184L12.2556 20.8425L12.0639 20.1387L12.1923 19.6587L12.2564 19.2108L12.6081 19.1466L13.504 19.3387L13.7282 19.2745L14.144 19.6904L14.7207 18.9164L15.4908 20.0685L15.6829 20.2286L16.2909 20.2927L16.7388 20.8061L18.4347 21.1582L19.6506 21.0299L20.2269 20.5819L21.2186 20.5178L21.7628 20.3894L22.6266 19.8452L23.2983 19.7815L23.94 19.2056L26.276 18.5977L26.8518 18.726L30.1461 17.8939L31.7458 17.9902L33.1858 18.1818L34.4967 18.2768Z" fill="#000091"/>
<path d="M38.5928 15.4616L38.8165 14.7578L39.1044 14.4057H39.8403L40.0324 13.8619L40.4483 14.0536L41.3446 13.3498H41.7283L43.2005 12.4219H43.7443L44.0001 13.1577L42.7205 13.8299L41.5362 14.6936L40.2566 14.8857L39.1686 15.4616H38.5928Z" fill="#000091"/>
<path d="M28.3214 32.1961L29.1531 31.9082L31.489 32.9962L32.0328 34.2121L33.5049 35.3L33.6329 36.1638L33.3129 37.6997L32.4807 38.2439L31.649 39.1398L30.9769 39.5556H30.4652L29.7289 39.8757L27.9693 39.4598L26.4971 38.5639L25.8254 35.46L26.8813 34.98L27.0734 33.5399L27.4893 33.412L28.3214 32.1961Z" fill="#000091"/>
<path d="M11.3623 12.6141L11.6823 12.1982H12.1944L12.6424 12.422L12.5782 12.9662H12.0024L11.6823 13.062L11.3623 12.6141Z" fill="#000091"/>
<path d="M36.8002 22.5004C37.1492 22.436 37.5018 22.3932 37.8561 22.3721L38.3999 22.6288L38.2399 22.8855L37.8548 23.0138H37.3106L36.9589 22.9496L36.6389 22.7259L36.8002 22.5004Z" fill="#000091"/>
</g>
<defs>
<clipPath id="clip0_3520_18589">
<rect width="44" height="44" fill="white"/>
</clipPath>
</defs>
</svg>
