<svg width="24" height="24" viewBox="0 0 24 24" fill="none" xmlns="http://www.w3.org/2000/svg">
<path d="M7.59993 10.3413L7.59949 12.5352C6.40395 13.2268 5.59961 14.5195 5.59961 16C5.59961 18.2091 7.39047 20 9.59961 20C11.0802 20 12.3728 19.1957 13.0644 18.0001L15.2581 18.0004C14.4343 20.3306 12.2119 22 9.59961 22C6.2859 22 3.59961 19.3137 3.59961 16C3.59961 13.3874 5.26938 11.1649 7.59993 10.3413ZM11.5996 17C9.94276 17 8.59961 15.6569 8.59961 14V10C8.59961 8.34315 9.94276 7 11.5996 7C13.2565 7 14.5996 8.34315 14.5996 10V15H16.0335C16.6819 15 17.2865 15.3141 17.66 15.8362L17.7484 15.971L20.4571 20.4855L18.7422 21.5145L16.0335 17H11.5996ZM11.5996 2C12.9804 2 14.0996 3.11929 14.0996 4.5C14.0996 5.88071 12.9804 7 11.5996 7C10.2189 7 9.09961 5.88071 9.09961 4.5C9.09961 3.11929 10.2189 2 11.5996 2Z" fill="#666666"/>
</svg>
