<svg width="40" height="43" viewBox="0 0 40 43" fill="none" xmlns="http://www.w3.org/2000/svg">
<g filter="url(#filter0_d_1534_12565)">
<path d="M28.4853 26.4852L20 34.9706L11.5147 26.4852C9.83646 24.807 8.69358 22.6688 8.23057 20.341C7.76756 18.0133 8.00521 15.6005 8.91346 13.4078C9.82172 11.2151 11.3598 9.34092 13.3332 8.02235C15.3066 6.70378 17.6266 6 20 6C22.3734 6 24.6934 6.70378 26.6668 8.02235C28.6402 9.34092 30.1783 11.2151 31.0865 13.4078C31.9948 15.6005 32.2324 18.0133 31.7694 20.341C31.3064 22.6688 30.1636 24.807 28.4853 26.4852V26.4852ZM20 20.6666C20.7072 20.6666 21.3855 20.3856 21.8856 19.8855C22.3857 19.3854 22.6667 18.7071 22.6667 17.9999C22.6667 17.2927 22.3857 16.6144 21.8856 16.1143C21.3855 15.6142 20.7072 15.3332 20 15.3332C19.2928 15.3332 18.6145 15.6142 18.1144 16.1143C17.6143 16.6144 17.3333 17.2927 17.3333 17.9999C17.3333 18.7071 17.6143 19.3854 18.1144 19.8855C18.6145 20.3856 19.2928 20.6666 20 20.6666Z" fill="#27A658"/>
<rect x="16" y="14.333" width="9" height="7" fill="#27A658"/>
</g>
<path d="M18.5 21.5H20V18.4708L18 16.727L16 18.4708V21.5H17.5V19.5H18.5V21.5ZM24.5 22.5H15.5C15.2239 22.5 15 22.2761 15 22V18.2434C15 18.0989 15.0625 17.9614 15.1714 17.8665L17 16.2722V14C17 13.7239 17.2239 13.5 17.5 13.5H24.5C24.7761 13.5 25 13.7239 25 14V22C25 22.2761 24.7761 22.5 24.5 22.5ZM22 17.5V18.5H23V17.5H22ZM22 19.5V20.5H23V19.5H22ZM22 15.5V16.5H23V15.5H22ZM20 15.5V16.5H21V15.5H20Z" fill="white"/>
<defs>
<filter id="filter0_d_1534_12565" x="-6" y="-4" width="52" height="52" filterUnits="userSpaceOnUse" color-interpolation-filters="sRGB">
<feFlood flood-opacity="0" result="BackgroundImageFix"/>
<feColorMatrix in="SourceAlpha" type="matrix" values="0 0 0 0 0 0 0 0 0 0 0 0 0 0 0 0 0 0 127 0" result="hardAlpha"/>
<feOffset dy="2"/>
<feGaussianBlur stdDeviation="3"/>
<feColorMatrix type="matrix" values="0 0 0 0 0 0 0 0 0 0 0 0 0 0 0.0705882 0 0 0 0.16 0"/>
<feBlend mode="normal" in2="BackgroundImageFix" result="effect1_dropShadow_1534_12565"/>
<feBlend mode="normal" in="SourceGraphic" in2="effect1_dropShadow_1534_12565" result="shape"/>
</filter>
</defs>
</svg>
