<svg width="43" height="46" viewBox="0 0 43 46" fill="none" xmlns="http://www.w3.org/2000/svg">
<g filter="url(#filter0_d_1534_12565)">
<path d="M28.4853 29.4852L20 37.9706L11.5147 29.4852C9.83646 27.807 8.69358 25.6688 8.23057 23.341C7.76756 21.0133 8.00521 18.6005 8.91346 16.4078C9.82172 14.2151 11.3598 12.3409 13.3332 11.0224C15.3066 9.70378 17.6266 9 20 9C22.3734 9 24.6934 9.70378 26.6668 11.0224C28.6402 12.3409 30.1783 14.2151 31.0865 16.4078C31.9948 18.6005 32.2324 21.0133 31.7694 23.341C31.3064 25.6688 30.1636 27.807 28.4853 29.4852V29.4852ZM20 23.6666C20.7072 23.6666 21.3855 23.3856 21.8856 22.8855C22.3857 22.3854 22.6667 21.7071 22.6667 20.9999C22.6667 20.2927 22.3857 19.6144 21.8856 19.1143C21.3855 18.6142 20.7072 18.3332 20 18.3332C19.2928 18.3332 18.6145 18.6142 18.1144 19.1143C17.6143 19.6144 17.3333 20.2927 17.3333 20.9999C17.3333 21.7071 17.6143 22.3854 18.1144 22.8855C18.6145 23.3856 19.2928 23.6666 20 23.6666Z" fill="#27A658"/>
<rect x="16" y="17.333" width="9" height="7" fill="#27A658"/>
<rect x="23.25" y="4.25" width="13.5" height="13.5" rx="6.75" fill="white"/>
<rect x="23.25" y="4.25" width="13.5" height="13.5" rx="6.75" stroke="#BE23BE" stroke-width="0.5"/>
<path d="M26.667 12.25V9.54167C26.667 8.50613 27.5065 7.66667 28.542 7.66667C29.5775 7.66667 30.417 8.50613 30.417 9.54167V12.4583C30.417 13.0336 30.8834 13.5 31.4587 13.5C32.034 13.5 32.5003 13.0336 32.5003 12.4583V9.67887C32.0148 9.50728 31.667 9.04426 31.667 8.5C31.667 7.80965 32.2266 7.25 32.917 7.25C33.6074 7.25 34.167 7.80965 34.167 8.5C34.167 9.04426 33.8192 9.50728 33.3337 9.67887V12.4583C33.3337 13.4939 32.4942 14.3333 31.4587 14.3333C30.4231 14.3333 29.5837 13.4939 29.5837 12.4583V9.54167C29.5837 8.96637 29.1173 8.5 28.542 8.5C27.9667 8.5 27.5003 8.96637 27.5003 9.54167V12.25H28.7503L27.0837 14.3333L25.417 12.25H26.667Z" fill="#BE23BE"/>
</g>
<path d="M18.5 24.5H20V21.4708L18 19.727L16 21.4708V24.5H17.5V22.5H18.5V24.5ZM24.5 25.5H15.5C15.2239 25.5 15 25.2761 15 25V21.2434C15 21.0989 15.0625 20.9614 15.1714 20.8665L17 19.2722V17C17 16.7239 17.2239 16.5 17.5 16.5H24.5C24.7761 16.5 25 16.7239 25 17V25C25 25.2761 24.7761 25.5 24.5 25.5ZM22 20.5V21.5H23V20.5H22ZM22 22.5V23.5H23V22.5H22ZM22 18.5V19.5H23V18.5H22ZM20 18.5V19.5H21V18.5H20Z" fill="white"/>
<defs>
<filter id="filter0_d_1534_12565" x="-6" y="-1" width="52" height="52" filterUnits="userSpaceOnUse" color-interpolation-filters="sRGB">
<feFlood flood-opacity="0" result="BackgroundImageFix"/>
<feColorMatrix in="SourceAlpha" type="matrix" values="0 0 0 0 0 0 0 0 0 0 0 0 0 0 0 0 0 0 127 0" result="hardAlpha"/>
<feOffset dy="2"/>
<feGaussianBlur stdDeviation="3"/>
<feColorMatrix type="matrix" values="0 0 0 0 0 0 0 0 0 0 0 0 0 0 0.0705882 0 0 0 0.16 0"/>
<feBlend mode="normal" in2="BackgroundImageFix" result="effect1_dropShadow_1534_12565"/>
<feBlend mode="normal" in="SourceGraphic" in2="effect1_dropShadow_1534_12565" result="shape"/>
</filter>
</defs>
</svg>
