<svg width="60" height="65" viewBox="0 0 60 65" fill="none" xmlns="http://www.w3.org/2000/svg">
<g filter="url(#filter0_d_2345_12402)">
<path d="M37.955 31.9549L30 39.9099L22.045 31.9549C20.4717 30.3816 19.4002 28.377 18.9662 26.1947C18.5321 24.0124 18.7549 21.7504 19.6064 19.6948C20.4579 17.6391 21.8998 15.8821 23.7499 14.646C25.5999 13.4098 27.775 12.75 30 12.75C32.225 12.75 34.4001 13.4098 36.2502 14.646C38.1002 15.8821 39.5421 17.6391 40.3936 19.6948C41.2451 21.7504 41.4679 24.0124 41.0338 26.1947C40.5998 28.377 39.5283 30.3816 37.955 31.9549ZM30 27.4166C30.9062 27.4166 31.7752 27.0566 32.416 26.4158C33.0567 25.7751 33.4167 24.9061 33.4167 23.9999C33.4167 23.0937 33.0567 22.2247 32.416 21.5839C31.7752 20.9432 30.9062 20.5832 30 20.5832C29.0938 20.5832 28.2248 20.9432 27.5841 21.5839C26.9433 22.2247 26.5833 23.0937 26.5833 23.9999C26.5833 24.9061 26.9433 25.7751 27.5841 26.4158C28.2248 27.0566 29.0938 27.4166 30 27.4166Z" fill="#C8AA39" stroke="white" stroke-width="1.5"/>
<rect x="24" y="18" width="12" height="12" fill="#C8AA39"/>
</g>
<path d="M30 19L24 22.5L30 26L35 23.0834V26.75H36V22.5L30 19ZM25.9995 24.7453V27C26.9117 28.2145 28.3641 29 29.9999 29C31.6357 29 33.088 28.2145 34.0002 27L34 24.7456L30.0002 27.0789L25.9995 24.7453Z" fill="white"/>
<defs>
<filter id="filter0_d_2345_12402" x="-8" y="-8" width="78" height="78" filterUnits="userSpaceOnUse" color-interpolation-filters="sRGB">
<feFlood flood-opacity="0" result="BackgroundImageFix"/>
<feColorMatrix in="SourceAlpha" type="matrix" values="0 0 0 0 0 0 0 0 0 0 0 0 0 0 0 0 0 0 127 0" result="hardAlpha"/>
<feOffset dy="6"/>
<feGaussianBlur stdDeviation="9"/>
<feColorMatrix type="matrix" values="0 0 0 0 0 0 0 0 0 0 0 0 0 0 0.0705882 0 0 0 0.32 0"/>
<feBlend mode="normal" in2="BackgroundImageFix" result="effect1_dropShadow_2345_12402"/>
<feBlend mode="normal" in="SourceGraphic" in2="effect1_dropShadow_2345_12402" result="shape"/>
</filter>
</defs>
</svg>
