<svg width="147" height="90" viewBox="0 0 147 90" fill="none" xmlns="http://www.w3.org/2000/svg">
<rect width="36.359" height="13.2215" transform="translate(1)" fill="white"/>
<path d="M12.2341 12.0167C12.2385 12.0167 12.2429 12.0103 12.2429 12.0103C12.278 11.9843 12.3131 11.9519 12.3439 11.913C12.3395 11.913 12.3351 11.913 12.3307 11.9065C12.3 11.9389 12.2649 11.9778 12.2341 12.0167Z" fill="#000091"/>
<path d="M17.0978 10.378L17.021 10.4441C17.0649 10.4331 17.0978 10.422 17.0978 10.378Z" fill="#000091"/>
<path fill-rule="evenodd" clip-rule="evenodd" d="M15.5253 12.052C15.6662 11.9103 15.8071 11.76 15.948 11.6054H15.9437C16.2084 11.3048 16.4645 11.0171 16.7719 10.7552C16.8658 10.6693 16.9554 10.5963 17.0408 10.5362C17.0534 10.5236 17.0598 10.5048 17.066 10.4864C17.0726 10.4672 17.079 10.4484 17.092 10.4374C17.0312 10.4606 16.9827 10.4973 16.9339 10.5343C16.8835 10.5725 16.8327 10.6109 16.7676 10.6349C16.742 10.6349 16.7164 10.6092 16.742 10.5834C16.8316 10.519 16.9213 10.4503 17.0067 10.3816H16.9896C16.964 10.3816 16.964 10.3558 16.964 10.3301C16.6462 10.2796 16.4021 10.4969 16.1836 10.6915L16.17 10.7036C16.1359 10.7208 16.1038 10.7038 16.0786 10.6905C16.0658 10.6837 16.0548 10.6779 16.0462 10.6779C15.8528 10.7427 15.6861 10.8622 15.5183 10.9825C15.3637 11.0933 15.2082 11.2048 15.0302 11.2748V11.2232C14.9697 11.2441 14.9099 11.2713 14.85 11.2985C14.7619 11.3386 14.6734 11.3788 14.5819 11.3993C14.4148 11.4381 14.2599 11.4331 14.1097 11.4282C14.0604 11.4266 14.0115 11.4251 13.9629 11.4251C13.6895 11.4522 13.4196 11.5107 13.15 11.5692L13.0622 11.5882C13.0579 11.5904 13.0536 11.5914 13.0494 11.5925C13.0451 11.5936 13.0408 11.5947 13.0366 11.5968C12.8744 11.6398 12.7249 11.6999 12.5755 11.7858L12.5585 11.7943C12.5526 11.8022 12.5467 11.8092 12.5413 11.8157C12.5348 11.8233 12.5289 11.8303 12.5243 11.8373C12.4731 11.8974 12.4261 11.9489 12.3535 11.9876C12.2464 12.0415 12.1537 12.1246 12.0626 12.2064C12.0231 12.2419 11.9837 12.2772 11.9437 12.3096C11.9352 12.3182 11.9181 12.3225 11.9053 12.3225C11.773 12.4513 11.6406 12.5802 11.504 12.7047C11.4955 12.7133 11.4571 12.7176 11.4272 12.7133C11.4272 12.7133 11.4315 12.7133 11.4315 12.709L11.4443 12.6832L11.5083 12.5802C11.5211 12.5608 11.5328 12.5415 11.5446 12.5222C11.5563 12.5029 11.5681 12.4835 11.5809 12.4642C11.615 12.4127 11.6492 12.3611 11.6876 12.3139C11.6961 12.301 11.6961 12.2882 11.6876 12.2796C11.6791 12.271 11.6662 12.2667 11.6534 12.2667C11.7772 12.1465 11.9224 12.0434 12.0718 11.9532V11.9489C12.0547 11.9532 12.0291 11.9403 12.0419 11.9232C12.0544 11.9074 12.0647 11.8894 12.0743 11.8724L12.0846 11.8545C12.0867 11.8502 12.0878 11.8469 12.0889 11.8437C12.0899 11.8405 12.091 11.8373 12.0931 11.833C12.091 11.8287 12.0878 11.8255 12.0846 11.8223C12.0814 11.819 12.0782 11.8158 12.0761 11.8115L12.0502 11.8286C12.0192 11.8489 11.9874 11.8697 11.9608 11.8931C11.942 11.9094 11.9244 11.9316 11.9063 11.9544C11.8672 12.004 11.8258 12.0563 11.7644 12.0563C11.7602 12.0563 11.7388 12.0563 11.726 12.052C11.7132 12.052 11.7047 12.0477 11.7004 12.0434C11.7004 12.0413 11.7004 12.0402 11.7009 12.0396C11.7015 12.0391 11.7025 12.0391 11.7047 12.0391C11.7047 12.0391 11.7089 12.0348 11.7089 12.0305C11.7089 12.0305 11.7089 12.0262 11.7132 12.0262C11.7153 12.0219 11.7175 12.0187 11.7196 12.0155C11.7217 12.0123 11.7239 12.009 11.726 12.0048C11.7281 12.0005 11.7303 11.9972 11.7324 11.994C11.7346 11.9908 11.7367 11.9876 11.7388 11.9833C11.741 11.9811 11.742 11.9779 11.7431 11.9747C11.7442 11.9715 11.7452 11.9683 11.7474 11.9661L11.7522 11.9572C11.7564 11.9497 11.7615 11.9407 11.7644 11.9318C11.7666 11.9275 11.7687 11.9242 11.7708 11.921C11.773 11.9178 11.7751 11.9146 11.7772 11.9103C11.7836 11.9017 11.789 11.892 11.7943 11.8824C11.7997 11.8727 11.805 11.863 11.8114 11.8545C11.8157 11.8459 11.8199 11.8373 11.8285 11.8287C11.8327 11.8201 11.837 11.8126 11.8413 11.8051C11.8455 11.7976 11.8498 11.79 11.8541 11.7815C11.8669 11.76 11.8541 11.7428 11.837 11.7385C11.884 11.6784 11.9395 11.6269 12.0078 11.5882H11.9992C12.0582 11.5586 12.1188 11.5239 12.179 11.4894C12.2145 11.469 12.2504 11.4484 12.2852 11.4293C12.298 11.4165 12.3109 11.4036 12.3279 11.395C12.1871 11.4422 12.059 11.5066 11.9352 11.5925C11.9352 11.5925 11.901 11.6054 11.8925 11.614C11.8925 11.614 11.8669 11.6226 11.8327 11.5925C11.8285 11.5882 11.8285 11.5839 11.8285 11.5753C11.8433 11.5455 11.8739 11.5257 11.907 11.5044C11.931 11.4888 11.9563 11.4725 11.9779 11.4508C12.0035 11.4508 12.0248 11.4508 12.0248 11.4766C12.5165 11.091 13.1227 11.0019 13.731 10.9124C14.1051 10.8573 14.48 10.8022 14.8295 10.6779C14.8658 10.6521 14.9032 10.6274 14.9405 10.6027C14.9779 10.578 15.0152 10.5534 15.0515 10.5276C15.1138 10.5017 15.1695 10.4573 15.2286 10.4103C15.287 10.3638 15.3486 10.3148 15.4229 10.2785C15.6193 10.1282 15.7687 9.95648 15.8455 9.70313C15.8455 9.67737 15.8199 9.6516 15.8199 9.6516C15.4955 9.99942 15.1241 10.2742 14.7271 10.4761C14.3485 10.6758 13.9429 10.7054 13.5413 10.7347C13.3904 10.7457 13.2401 10.7567 13.0921 10.7766C13.1177 10.7251 13.1689 10.7251 13.2159 10.7251C13.2159 10.6641 13.2451 10.6379 13.2826 10.6043C13.2926 10.5953 13.3032 10.5857 13.3141 10.5748H13.3866C13.3994 10.5748 13.4058 10.5619 13.4122 10.5491C13.4186 10.5362 13.425 10.5233 13.4378 10.5233C13.4891 10.5233 13.5616 10.4975 13.536 10.4975C13.4969 10.4472 13.44 10.4671 13.3772 10.4891C13.3168 10.5103 13.251 10.5333 13.1903 10.4975C13.2128 10.4728 13.2196 10.443 13.2258 10.416C13.2325 10.3867 13.2384 10.3606 13.2628 10.3472H13.361C13.361 10.2957 13.4122 10.2485 13.4122 10.2485C13.6349 10.1146 13.8498 9.99774 14.0608 9.88303C14.2017 9.80642 14.341 9.73069 14.4795 9.6516C14.4515 9.6516 14.4266 9.66311 14.4025 9.67429C14.3642 9.69208 14.3277 9.70901 14.2831 9.67737C14.3087 9.67737 14.3087 9.65912 14.3087 9.64087C14.3087 9.62262 14.3087 9.60437 14.3343 9.60437C14.4945 9.56158 14.637 9.49223 14.7826 9.4214C14.8854 9.3714 14.9897 9.32066 15.1027 9.27802C15.0692 9.27802 15.0381 9.28705 15.0078 9.29585C14.9495 9.31279 14.8941 9.32889 14.8295 9.27802C14.8465 9.26948 14.8602 9.2586 14.8737 9.24785C14.901 9.22615 14.9275 9.20502 14.9789 9.20502V9.13202C14.9789 9.10625 15.0045 9.10625 15.0302 9.10625C15.0045 9.10625 14.9789 9.08049 14.9789 9.08049C14.9925 9.05321 15.0192 9.04759 15.049 9.04134C15.0754 9.03578 15.1042 9.02972 15.1283 9.00749C15.1027 9.00749 15.0558 9.00749 15.0558 8.98173C15.1283 8.88296 15.2521 8.8572 15.3759 8.83143C15.3631 8.80567 15.3386 8.80567 15.3172 8.80567C15.2959 8.80567 15.2777 8.80567 15.2777 8.7799C15.2777 8.75414 15.3034 8.75414 15.329 8.75414H15.2777C15.2375 8.73392 15.2447 8.69784 15.2496 8.67286C15.251 8.66601 15.2521 8.66 15.2521 8.65538C15.3524 8.53721 15.3854 8.39776 15.4182 8.2591C15.4342 8.19118 15.4503 8.12345 15.4741 8.0585C15.4485 8.0585 15.4229 8.0585 15.4229 8.03274C15.1829 8.29916 14.8024 8.40012 14.441 8.49603L14.4069 8.50508H14.2831C14.1593 8.55661 13.9843 8.55661 13.8605 8.47932C13.8016 8.44842 13.7596 8.40981 13.7143 8.36811C13.684 8.34026 13.6522 8.31102 13.6129 8.28179C13.4122 8.15726 13.2159 8.0585 12.9939 7.98121C12.3749 7.78368 11.7303 7.68062 11.0857 7.70638C11.2657 7.60736 11.4568 7.56799 11.6505 7.52809C11.7508 7.50743 11.8518 7.48663 11.9523 7.45733C12.0157 7.43865 12.0785 7.4194 12.1409 7.40024C12.495 7.29169 12.8385 7.18637 13.2159 7.20827C13.1665 7.19074 13.1032 7.19707 13.045 7.20291C13.0177 7.20565 12.9914 7.20827 12.9683 7.20827C12.6829 7.18701 12.3947 7.25055 12.0939 7.31685C12.0302 7.33089 11.966 7.34506 11.901 7.35857C11.7832 7.38308 11.6712 7.41829 11.5591 7.45355C11.4355 7.49241 11.3116 7.53133 11.1796 7.55609C11.1223 7.57584 11.0763 7.60948 11.0316 7.64224C10.9595 7.69494 10.8905 7.74539 10.7826 7.73215V7.65486C11.0302 7.35427 11.329 7.05798 11.726 7.03222C12.1098 6.96972 12.4716 7.01424 12.8491 7.06067C12.9125 7.06848 12.9764 7.07633 13.0408 7.08374C13.3503 7.10865 13.6398 7.17767 13.9518 7.25205L13.9843 7.2598C14.0526 7.2598 14.091 7.31993 14.1282 7.37816C14.1584 7.42548 14.1879 7.47154 14.2319 7.48309C14.2926 7.50405 14.3534 7.50796 14.4142 7.51187C14.5028 7.51757 14.5915 7.52327 14.6801 7.58186C14.6801 7.56452 14.6772 7.54767 14.6743 7.53097C14.6687 7.49805 14.6631 7.46575 14.6801 7.43156C14.7352 7.37616 14.7983 7.39103 14.8605 7.40566C14.9091 7.41711 14.9572 7.42842 15.0003 7.4058C15.1356 7.32178 15.0087 7.1928 14.8816 7.0637C14.8203 7.00146 14.759 6.93919 14.7271 6.88192C14.7271 6.85616 14.7527 6.83039 14.7527 6.83039C14.8087 6.88065 14.861 6.93267 14.9128 6.98423C15.0424 7.11328 15.1691 7.23953 15.3461 7.32851C15.4699 7.38004 15.7687 7.45303 15.7174 7.30274C15.6298 7.10809 15.48 6.93929 15.3288 6.76888C15.2665 6.69869 15.2039 6.62822 15.1454 6.55557V6.45681C15.1065 6.45681 15.0971 6.44194 15.0855 6.42351C15.0819 6.41767 15.078 6.41147 15.0728 6.40528V6.30652C15.0103 6.27367 14.9962 6.22164 14.9821 6.16932C14.9741 6.13956 14.9661 6.1097 14.949 6.08322C14.9063 6.01388 14.9032 5.92855 14.9 5.84059C14.8975 5.7706 14.8949 5.69894 14.8722 5.63235C14.821 5.48205 14.7996 5.35753 14.774 5.20723C14.7462 5.05348 14.7156 4.90646 14.6857 4.76253C14.6329 4.50852 14.582 4.26409 14.552 4.00919C14.5125 3.64485 14.6965 3.33672 14.8846 3.02173C14.9403 2.92836 14.9965 2.83437 15.0472 2.73814C15.2223 2.43756 15.4186 2.14126 15.7431 1.93944C15.8138 1.64627 16.0064 1.40212 16.1981 1.15918L16.2126 1.14075C16.4018 0.904985 16.7177 0.760858 16.9505 0.654638L16.9768 0.642633C17.3226 0.488046 17.6342 0.389282 17.6385 0.389282H0.490234V13.6107H12.6566C12.982 13.3748 13.3054 13.226 13.6903 13.0489C13.866 12.968 14.0544 12.8813 14.2617 12.7777C14.3057 12.7556 14.3578 12.7299 14.4157 12.7014C14.7632 12.5305 15.3168 12.2581 15.5253 12.052ZM11.6648 10.2682C11.6165 10.2731 11.5654 10.2782 11.5847 10.2394C11.6026 10.1525 11.6916 10.1265 11.7785 10.101C11.8157 10.0901 11.8525 10.0793 11.8832 10.0639L11.8973 10.0567L11.9075 10.0512C11.9557 10.0257 12.0146 9.99437 12.0581 10.0126C12.0874 10.0543 12.1238 10.065 12.1591 10.0755C12.1854 10.0833 12.2111 10.0909 12.2329 10.111C12.1407 10.2036 12.033 10.2127 11.9238 10.222C11.8513 10.2281 11.7781 10.2344 11.7084 10.2651C11.6958 10.2651 11.6805 10.2666 11.6648 10.2682ZM7.88803 9.66436C7.88803 9.69013 7.91365 9.71589 7.91365 9.71589C8.51129 9.04172 9.05345 8.46632 9.82185 7.98968C9.84242 7.98105 9.83477 7.99182 9.8246 8.00613C9.80945 8.02744 9.78871 8.05662 9.84746 8.0412C10.1019 7.9832 10.2161 7.76526 10.3273 7.55323C10.356 7.4984 10.3845 7.44397 10.4152 7.3928C10.5318 7.20318 10.6974 7.0817 10.8642 6.95929C10.9845 6.87101 11.1055 6.78225 11.2092 6.6671C11.2092 6.69287 11.2092 6.71863 11.1836 6.74439C11.2092 6.77016 11.2349 6.77016 11.2605 6.77016C11.3055 6.73618 11.3547 6.72212 11.4018 6.70864C11.4619 6.69145 11.5186 6.67522 11.5593 6.61987C11.3629 6.54257 11.1111 6.51681 10.9147 6.5941C10.3939 6.84316 9.94992 7.24251 9.5273 7.69338C9.27116 7.96391 9.00649 8.21726 8.68205 8.39332C8.46007 8.8399 8.21247 9.23925 7.88803 9.66436ZM9.97211 8.06733C9.95874 8.09419 9.94536 8.10817 9.93259 8.12152C9.92095 8.13369 9.90978 8.14536 9.89961 8.16578C9.87402 8.21714 9.84843 8.23854 9.80152 8.26422C9.77593 8.26422 9.75034 8.26422 9.75034 8.23854C9.77593 8.1401 9.84843 8.04165 9.94653 8.01597C9.97211 8.02025 9.97211 8.04593 9.97211 8.06733ZM11.0637 11.8808C11.0851 11.8593 11.1107 11.8335 11.1235 11.8078C11.1448 11.7562 11.0126 11.7691 10.9912 11.782C10.9719 11.7976 10.9596 11.8132 10.9447 11.832L10.9401 11.8378C10.9223 11.8583 10.9015 11.8772 10.8803 11.8965C10.866 11.9095 10.8515 11.9227 10.8377 11.9366C10.778 11.9967 10.7183 12.0568 10.6543 12.1126C10.6117 12.1513 10.7481 12.1685 10.778 12.1427C10.8121 12.1169 10.842 12.0869 10.8718 12.0568C10.8832 12.0568 10.8946 12.0549 10.9022 12.0536L10.9074 12.0528L10.9102 12.0525C10.9809 12.0288 11.0335 11.9796 11.0847 11.9317L11.0979 11.9194C11.1149 11.9022 11.0936 11.885 11.0637 11.8808ZM10.6778 11.6015C10.6773 11.6016 10.677 11.6017 10.6767 11.602C10.6762 11.6025 10.6762 11.6036 10.6762 11.6057C10.65 11.6237 10.6242 11.642 10.5984 11.6602C10.5316 11.7074 10.4653 11.7544 10.3944 11.7947C10.3267 11.8328 10.2573 11.8658 10.1872 11.899C10.1469 11.9182 10.1063 11.9374 10.0657 11.9578C10.0657 11.9578 10.0657 11.9535 10.0615 11.9535C10.0529 11.9407 10.0359 11.9364 10.0188 11.9449C9.92486 11.9965 9.84375 12.0652 9.77118 12.1382C9.75838 12.1468 9.74557 12.1597 9.73703 12.1725L9.69861 12.2112V12.2155C9.68154 12.2327 9.66446 12.2498 9.64312 12.2756C9.63868 12.2801 9.63527 12.2845 9.63199 12.2888C9.62582 12.2969 9.62012 12.3043 9.60896 12.3099C9.59189 12.3185 9.5492 12.3185 9.55347 12.2928V12.2885C9.54066 12.2971 9.52359 12.3057 9.51078 12.3099C9.50438 12.3142 9.49797 12.3175 9.49157 12.3207C9.48517 12.3239 9.47876 12.3271 9.47236 12.3314C9.46809 12.3271 9.45955 12.3271 9.45528 12.3271C9.45101 12.3271 9.44248 12.3271 9.43821 12.3314C9.42825 12.34 9.41829 12.3481 9.40832 12.3562C9.3884 12.3724 9.36848 12.3887 9.34856 12.4087C9.29733 12.4559 9.25038 12.5075 9.20342 12.5633C9.20342 12.5633 9.20342 12.5676 9.19915 12.5676C9.19915 12.5697 9.19808 12.5708 9.19701 12.5719C9.19595 12.573 9.19488 12.574 9.19488 12.5762L9.18634 12.5848C9.18471 12.5864 9.1837 12.588 9.18284 12.5894C9.18145 12.5917 9.18044 12.5934 9.1778 12.5934L9.17353 12.5976C9.16927 12.6062 9.165 12.6148 9.15646 12.6234C9.15219 12.6277 9.14365 12.632 9.13511 12.632C9.13085 12.6277 9.12658 12.6234 9.12658 12.6191C9.12444 12.617 9.12337 12.6148 9.12231 12.6127C9.12124 12.6105 9.12017 12.6084 9.11804 12.6062C9.11377 12.5998 9.11057 12.5934 9.10737 12.5869C9.10416 12.5805 9.10096 12.574 9.09669 12.5676V12.5633C9.09669 12.5611 9.09563 12.559 9.09456 12.5569C9.09349 12.5547 9.09243 12.5526 9.09243 12.5504L9.16927 12.4602L9.17353 12.4559C9.1778 12.4517 9.18206 12.4463 9.18633 12.4409C9.1906 12.4356 9.19488 12.4302 9.19915 12.4259C9.20555 12.4173 9.21302 12.4087 9.22049 12.4001C9.22796 12.3915 9.23544 12.3829 9.24184 12.3744C9.24397 12.3701 9.24611 12.3668 9.24824 12.3636C9.25038 12.3604 9.25251 12.3572 9.25464 12.3529C9.28026 12.3185 9.30587 12.2842 9.33148 12.2455V12.2412C9.33575 12.2369 9.34002 12.2327 9.34002 12.2241C9.35282 12.2069 9.36564 12.1897 9.37417 12.1725L9.39979 12.121V12.1167L9.40406 12.1124C9.40406 12.1103 9.40512 12.1092 9.40619 12.1081C9.40726 12.1071 9.40832 12.106 9.40832 12.1038C9.41259 12.0931 9.41686 12.0834 9.42112 12.0738C9.42539 12.0641 9.42967 12.0544 9.43394 12.0437V12.0394L9.43821 12.0222C9.44034 12.0179 9.44141 12.0137 9.44248 12.0094C9.44354 12.0051 9.44461 12.0008 9.44674 11.9965V11.9922C9.44888 11.9857 9.44995 11.9793 9.45101 11.9729C9.45208 11.9664 9.45315 11.96 9.45528 11.9535C9.45528 11.9492 9.45528 11.9407 9.45101 11.9364C9.47663 11.8891 9.51078 11.8462 9.5492 11.8032C9.54707 11.8032 9.54493 11.8043 9.5428 11.8054C9.54157 11.806 9.54035 11.8066 9.53912 11.807C9.53821 11.8073 9.5373 11.8075 9.53639 11.8075C9.51739 11.8195 9.50103 11.8354 9.48438 11.8516C9.4711 11.8646 9.45763 11.8777 9.44248 11.8891C9.41686 11.9106 9.36564 11.8762 9.39979 11.8505C9.42113 11.8333 9.4382 11.8161 9.45527 11.799C9.45527 11.799 9.45528 11.7947 9.45955 11.7947C9.47657 11.7793 9.49291 11.7618 9.50938 11.7442C9.53422 11.7177 9.55939 11.6908 9.58762 11.6701C9.6175 11.6487 9.63885 11.6315 9.66446 11.61C9.66873 11.6057 9.673 11.6014 9.67727 11.6014C9.69434 11.58 9.71142 11.5585 9.73276 11.537C9.73276 11.537 9.73703 11.537 9.73703 11.5327C9.88363 11.3905 10.0896 11.3404 10.2999 11.2892C10.4325 11.2569 10.5668 11.2242 10.689 11.1677C10.758 11.139 10.835 11.1503 10.911 11.1615C10.9714 11.1703 11.0312 11.1791 11.086 11.1677C11.1586 11.1677 11.2354 11.1677 11.308 11.2192C11.1392 11.3091 10.9781 11.4119 10.8187 11.5136C10.7726 11.5431 10.7265 11.5725 10.6805 11.6014C10.6793 11.6014 10.6784 11.6014 10.6778 11.6015ZM11.2112 9.85136C11.1913 9.85366 11.1783 9.85515 11.1894 9.86631C11.262 9.93931 11.4114 9.91355 11.5138 9.85773C11.5864 9.8062 11.6633 9.8062 11.7614 9.8062C11.7871 9.8062 11.7871 9.75896 11.7871 9.7332C11.8596 9.75896 11.9109 9.75896 11.9834 9.75896C12.5768 9.63443 13.1488 9.50991 13.6953 9.23509C13.1424 8.80785 12.4607 8.61754 11.7931 8.43114C11.6823 8.40021 11.572 8.3694 11.4626 8.33762C11.4867 8.33762 11.5107 8.34563 11.5349 8.35369C11.5837 8.36996 11.6332 8.38645 11.6846 8.33762C11.6169 8.28358 11.5415 8.27325 11.4668 8.26302C11.405 8.25455 11.3437 8.24615 11.2876 8.21309C11.2934 8.21309 11.3004 8.21444 11.308 8.2159C11.3335 8.22083 11.366 8.2271 11.3858 8.18733C11.2561 8.12211 11.1264 8.09996 10.9955 8.0776C10.9282 8.0661 10.8605 8.05454 10.7924 8.03704C10.9162 8.01127 10.993 7.91251 10.993 7.78798C10.993 7.76222 10.9418 7.76222 10.9162 7.76222C10.6216 7.91251 10.421 8.18733 10.2972 8.50939C10.4088 8.5751 10.5291 8.56748 10.647 8.56002C10.714 8.55577 10.7802 8.55158 10.8436 8.56092C10.7876 8.61409 10.7068 8.62853 10.629 8.64241C10.6 8.64759 10.5715 8.65268 10.5448 8.65968C10.468 8.67686 10.3954 8.73268 10.421 8.78421C10.4381 8.80568 10.4552 8.81427 10.4765 8.81856C10.421 8.83574 10.3698 8.8615 10.3228 8.90873C10.3931 8.96406 10.4656 8.95338 10.5371 8.94285C10.5655 8.93866 10.5937 8.9345 10.6216 8.9345C10.6216 8.96569 10.6421 8.97628 10.6634 8.9873C10.6743 8.99297 10.6855 8.99875 10.6942 9.0075C10.5704 9.05473 10.4722 9.15779 10.4466 9.23079C10.416 9.30518 10.3595 9.35351 10.3035 9.40143C10.2658 9.43373 10.2282 9.46584 10.199 9.50561V9.5829C10.1165 9.65602 10.0318 9.72131 9.94819 9.7857C9.77647 9.91797 9.60964 10.0465 9.47757 10.2313C9.50319 10.2313 9.50319 10.2571 9.50319 10.2828C9.47957 10.3185 9.44596 10.3432 9.41409 10.3666C9.37684 10.3939 9.34196 10.4196 9.32816 10.4589C9.32816 10.4847 9.32816 10.5104 9.35377 10.5104C9.51043 10.4587 9.64596 10.3715 9.77883 10.286C9.89941 10.2085 10.0178 10.1323 10.1478 10.0853C10.254 10.0598 10.3465 10.0116 10.4367 9.96459C10.5133 9.92471 10.5883 9.88567 10.6686 9.86202C10.7305 9.84914 10.7988 9.83089 10.8671 9.81264C10.9354 9.79439 11.0037 9.77614 11.0656 9.76326C11.0656 9.78902 11.0656 9.81478 11.0912 9.81478H11.2876C11.2755 9.84398 11.2374 9.84836 11.2112 9.85136Z" fill="#000091"/>
<path d="M36.8494 0.389282H22.6287C22.6287 0.389282 22.6545 0.39358 22.762 0.449458C22.8781 0.509634 23.0285 0.591301 23.1188 0.638581C23.3037 0.733143 23.4799 0.853495 23.596 1.03832C23.6476 1.11139 23.7207 1.26183 23.6734 1.36069C23.6218 1.48534 23.596 1.68736 23.4713 1.73464C23.3209 1.81201 23.1231 1.81201 22.9469 1.78622C22.848 1.78622 22.7491 1.76043 22.6459 1.73464C23.0199 1.88508 23.3725 2.06131 23.6218 2.40947C23.6476 2.46104 23.7465 2.48254 23.8453 2.48254C23.8711 2.48254 23.8711 2.53411 23.8711 2.55561C23.8195 2.60719 23.7723 2.63297 23.798 2.70605H23.8711C23.9958 2.65447 23.97 2.40517 24.1463 2.48254C24.2709 2.55561 24.3225 2.73183 24.2451 2.85648C24.1463 2.95534 24.0474 3.03271 23.9442 3.10578C23.9184 3.15736 23.9184 3.23043 23.9442 3.28201C24.0173 3.38087 24.0431 3.47973 24.0689 3.58289C24.1463 3.75912 24.1677 3.95684 24.2451 4.13307C24.344 4.50702 24.4429 4.88097 24.4214 5.25921C24.4214 5.45693 24.3225 5.63316 24.3956 5.83518C24.4472 6.0329 24.5718 6.18334 24.6707 6.35957C24.7696 6.51001 24.8685 6.60887 24.9458 6.75931C25.0963 7.0086 25.3714 7.2579 25.2468 7.55878C25.1737 7.73501 24.8986 7.70922 24.7223 7.80808C24.5718 7.93273 24.6965 8.13475 24.7739 8.2594C24.8986 8.48291 24.6234 8.63335 24.4472 8.71072C24.4988 8.78809 24.5976 8.7623 24.6234 8.80958C24.6492 8.93423 24.7739 9.0073 24.6965 9.13624C24.5976 9.28668 24.2967 9.35975 24.4472 9.58756C24.546 9.76379 24.4816 9.95721 24.4214 10.1377C24.3483 10.3612 24.1463 10.4601 23.97 10.5117C23.8195 10.5633 23.6433 10.5633 23.4971 10.5375C23.4455 10.5117 23.3982 10.4859 23.3467 10.4859C22.9211 10.4343 22.4955 10.314 22.0742 10.314C21.9495 10.3398 21.8249 10.3612 21.726 10.4128C21.6142 10.4945 21.511 10.5848 21.4251 10.6793C21.4251 10.6793 21.4251 10.6793 21.4208 10.6836C21.4036 10.7051 21.3821 10.7223 21.3649 10.7438C21.3563 10.7567 21.3434 10.7696 21.3348 10.7825C21.3262 10.7911 21.3219 10.7997 21.3133 10.8083C21.2402 10.8985 21.1757 10.9974 21.1155 11.0963C21.1112 11.1048 21.1069 11.1091 21.1026 11.1134C21.0983 11.1263 21.0897 11.1349 21.0812 11.1478C20.9995 11.2983 20.9393 11.453 20.892 11.6077C20.72 12.1794 20.7974 12.6694 20.9178 12.7898C20.9522 12.8242 21.7432 13.0692 22.2934 13.3142C22.5514 13.4302 22.7319 13.5162 22.8824 13.6107H36.8451V0.389282H36.8494Z" fill="#E1000F"/>
<path d="M23.4731 5.21164C23.572 5.2374 23.7225 5.2374 23.7225 5.28891C23.6709 5.48637 23.3742 5.53788 23.2237 5.73964H23.1463C23.0732 5.79115 23.0947 5.91563 23.0216 5.91563C22.9485 5.88988 22.8711 5.91563 22.7981 5.94139C22.8969 6.04012 23.0216 6.11739 23.1721 6.09163C23.1979 6.09163 23.2452 6.14314 23.2452 6.19036C23.2452 6.19036 23.271 6.19036 23.2968 6.16461C23.3226 6.16461 23.3484 6.16461 23.3484 6.19036V6.28909C23.2753 6.38783 23.1463 6.34061 23.0474 6.36207C23.2495 6.41358 23.4473 6.41358 23.6236 6.36207C23.7741 6.31056 23.6236 6.06158 23.7225 5.9371C23.6709 5.9371 23.7225 5.85983 23.6709 5.85983C23.7225 5.80832 23.7698 5.73534 23.8214 5.70959C23.873 5.70959 23.9461 5.68383 23.9719 5.63232C23.9719 5.58081 23.873 5.55934 23.8945 5.50783C24.045 5.4091 24.1697 5.25886 24.1181 5.10862C24.0923 5.03135 23.8945 5.03135 23.7698 4.98413C23.6451 4.93691 23.4946 4.98413 23.3441 5.00989C23.2194 5.00989 23.0947 5.08715 22.97 5.10862C22.7938 5.16013 22.6433 5.25886 22.4971 5.35759C22.6734 5.28462 22.8453 5.25886 23.0474 5.20735C23.1979 5.21164 23.3226 5.1773 23.4731 5.21164" fill="#808080"/>
<path d="M2.36181 29.188V19.933H5.99771C8.93287 19.933 10.9161 22.0616 10.9161 24.5605C10.9161 27.0593 8.93287 29.188 5.99771 29.188H2.36181ZM6.02415 21.6385H4.23926V27.4824H6.02415C7.74294 27.4824 8.98576 26.1999 8.98576 24.5605C8.98576 22.9078 7.74294 21.6385 6.02415 21.6385ZM12.925 29.188V19.933H14.8025V29.188H12.925ZM17.5877 29.188V19.933H20.417C22.4531 19.933 23.7092 20.9775 23.7092 22.6963C23.7092 23.8201 23.1671 24.653 22.2152 25.0893L25.1107 29.188H22.9027L20.4303 25.4463H19.4651V29.188H17.5877ZM20.5228 21.4931H19.4651V23.8862H20.5228C21.3161 23.8862 21.7789 23.4234 21.7789 22.6698C21.7789 21.9691 21.3161 21.4931 20.5228 21.4931ZM26.4982 29.188V19.933H31.8925V21.4931H28.3756V23.6879H31.3637V25.248H28.3756V27.6279H31.8925V29.188H26.4982ZM38.191 27.694C39.2487 27.694 40.0817 27.1783 40.6105 26.4247L42.0913 27.5617C41.2452 28.712 39.8701 29.4524 38.191 29.4524C35.2691 29.4524 33.2726 27.2048 33.2726 24.5605C33.2726 21.9162 35.2691 19.6685 38.191 19.6685C39.8701 19.6685 41.2452 20.4222 42.0913 21.546L40.6105 22.6963C40.0817 21.9426 39.2487 21.427 38.191 21.427C36.4458 21.427 35.203 22.7888 35.203 24.5605C35.203 26.3322 36.4458 27.694 38.191 27.694ZM42.9671 21.6385V19.933H50.5562V21.6385H47.7003V29.188H45.8229V21.6385H42.9671ZM52.4035 29.188V19.933H54.2809V29.188H52.4035ZM61.1912 19.6685C64.0999 19.6685 66.0963 21.9162 66.0963 24.5605C66.0963 27.2048 64.0999 29.4524 61.1912 29.4524C58.2692 29.4524 56.2728 27.2048 56.2728 24.5605C56.2728 21.9162 58.2692 19.6685 61.1912 19.6685ZM61.1912 27.694C62.9232 27.694 64.166 26.3322 64.166 24.5605C64.166 22.7888 62.9232 21.427 61.1912 21.427C59.4459 21.427 58.2031 22.7888 58.2031 24.5605C58.2031 26.3322 59.4459 27.694 61.1912 27.694ZM68.0941 29.188V19.933H70.5004L74.6387 26.623V19.933H76.5162V29.188H74.1099L69.9716 22.4979V29.188H68.0941ZM2.36181 43.188V33.933H4.23926V43.188H2.36181ZM7.02444 43.188V33.933H9.43074L13.5691 40.623V33.933H15.4465V43.188H13.0402L8.90188 36.4979V43.188H7.02444ZM17.2813 35.6385V33.933H24.8704V35.6385H22.0146V43.188H20.1371V35.6385H17.2813ZM26.7177 43.188V33.933H32.112V35.4931H28.5951V37.6879H31.5832V39.248H28.5951V41.6279H32.112V43.188H26.7177ZM34.492 43.188V33.933H37.3214C39.3575 33.933 40.6135 34.9775 40.6135 36.6963C40.6135 37.8201 40.0715 38.653 39.1195 39.0893L42.015 43.188H39.807L37.3346 39.4463H36.3695V43.188H34.492ZM37.4272 35.4931H36.3695V37.8862H37.4272C38.2205 37.8862 38.6832 37.4234 38.6832 36.6698C38.6832 35.9691 38.2205 35.4931 37.4272 35.4931ZM43.4025 43.188V33.933H45.7427L48.0036 37.8201L50.2645 33.933H52.6047V43.188H50.7272V36.5508L48.6647 40.0148H47.3425L45.28 36.5508V43.188H43.4025ZM55.386 43.188V33.933H57.2635V43.188H55.386ZM60.0487 43.188V33.933H62.455L66.5933 40.623V33.933H68.4707V43.188H66.0644L61.9261 36.4979V43.188H60.0487ZM71.2575 43.188V33.933H73.1349V43.188H71.2575ZM75.0871 41.9055L76.4489 40.6495C77.0042 41.3634 77.7446 41.7865 78.4983 41.7865C79.2387 41.7865 79.6882 41.3899 79.6882 40.7288C79.6882 39.0232 75.4838 39.486 75.4838 36.3525C75.4838 34.8849 76.7001 33.6685 78.4718 33.6685C79.8601 33.6685 80.9178 34.29 81.7111 35.2287L80.336 36.4715C79.794 35.7708 79.1858 35.308 78.485 35.308C77.824 35.308 77.3877 35.7311 77.3877 36.2864C77.3877 37.9655 81.5921 37.4895 81.5921 40.6627C81.5656 42.4079 80.2038 43.4524 78.5115 43.4524C76.9514 43.4524 75.9069 42.8839 75.0871 41.9055ZM82.7425 35.6385V33.933H90.3316V35.6385H87.4757V43.188H85.5983V35.6385H82.7425ZM95.709 33.1397H94.0034L95.4974 31.3548H97.4278L95.709 33.1397ZM92.1789 43.188V33.933H97.5732V35.4931H94.0563V37.6879H97.0444V39.248H94.0563V41.6279H97.5732V43.188H92.1789ZM99.9532 43.188V33.933H102.783C104.819 33.933 106.075 34.9775 106.075 36.6963C106.075 37.8201 105.533 38.653 104.581 39.0893L107.476 43.188H105.268L102.796 39.4463H101.831V43.188H99.9532ZM102.888 35.4931H101.831V37.8862H102.888C103.682 37.8862 104.144 37.4234 104.144 36.6698C104.144 35.9691 103.682 35.4931 102.888 35.4931ZM108.864 43.188V33.933H110.741V43.188H108.864ZM113.526 43.188V33.933H118.921V35.4931H115.404V37.6879H118.392V39.248H115.404V41.6279H118.921V43.188H113.526ZM121.301 43.188V33.933H123.178V41.4824H126.695V43.188H121.301ZM128.546 43.188V33.933H130.423V41.4824H133.94V43.188H128.546ZM135.791 43.188V33.933H141.185V35.4931H137.668V37.6879H140.656V39.248H137.668V41.6279H141.185V43.188H135.791ZM2.36181 56.188V46.933H5.99771C8.93287 46.933 10.9161 49.0616 10.9161 51.5605C10.9161 54.0593 8.93287 56.188 5.99771 56.188H2.36181ZM6.02415 48.6385H4.23926V54.4824H6.02415C7.74294 54.4824 8.98576 53.1999 8.98576 51.5605C8.98576 49.9078 7.74294 48.6385 6.02415 48.6385ZM18.383 52.724V46.933H20.2605V52.5653C20.2605 54.9981 18.8325 56.4524 16.5056 56.4524C14.1918 56.4524 12.7639 54.9981 12.7639 52.5653V46.933H14.6413V52.724C14.6413 53.9668 15.3421 54.694 16.5188 54.694C17.669 54.694 18.383 53.9668 18.383 52.724ZM26.4207 56.188V46.933H28.827L32.9653 53.623V46.933H34.8428V56.188H32.4365L28.2982 49.4979V56.188H26.4207ZM42.9842 52.724V46.933H44.8617V52.5653C44.8617 54.9981 43.4337 56.4524 41.1068 56.4524C38.793 56.4524 37.3651 54.9981 37.3651 52.5653V46.933H39.2425V52.724C39.2425 53.9668 39.9433 54.694 41.12 54.694C42.2702 54.694 42.9842 53.9668 42.9842 52.724ZM47.3922 56.188V46.933H49.7324L51.9933 50.8201L54.2542 46.933H56.5943V56.188H54.7169V49.5508L52.6544 53.0148H51.3322L49.2697 49.5508V56.188H47.3922ZM62.9058 46.1397H61.2003L62.6943 44.3548H64.6246L62.9058 46.1397ZM59.3757 56.188V46.933H64.7701V48.4931H61.2532V50.6879H64.2412V52.248H61.2532V54.6279H64.7701V56.188H59.3757ZM67.15 56.188V46.933H69.9794C72.0155 46.933 73.2716 47.9775 73.2716 49.6963C73.2716 50.8201 72.7295 51.653 71.7775 52.0893L74.673 56.188H72.465L69.9926 52.4463H69.0275V56.188H67.15ZM70.0852 48.4931H69.0275V50.8862H70.0852C70.8785 50.8862 71.3412 50.4234 71.3412 49.6698C71.3412 48.9691 70.8785 48.4931 70.0852 48.4931ZM76.0606 56.188V46.933H77.938V56.188H76.0606ZM88.4842 55.95C89.1981 56.5979 89.8328 56.8358 90.4277 56.8358C90.6261 56.8358 90.8905 56.8094 91.0888 56.7301V58.3166C90.7847 58.4356 90.5203 58.4885 90.1104 58.4885C89.0791 58.4885 88.1272 58.0654 87.2149 57.2721L86.1175 56.2938C85.7209 56.3995 85.2978 56.4524 84.8483 56.4524C81.9263 56.4524 79.9299 54.2048 79.9299 51.5605C79.9299 48.9162 81.9263 46.6685 84.8483 46.6685C87.757 46.6685 89.7534 48.9162 89.7534 51.5605C89.7534 53.1074 89.0659 54.5221 87.9289 55.4211L88.4842 55.95ZM84.8483 54.694C86.5803 54.694 87.8231 53.3322 87.8231 51.5605C87.8231 49.7888 86.5803 48.427 84.8483 48.427C83.1031 48.427 81.8602 49.7888 81.8602 51.5605C81.8602 53.3322 83.1031 54.694 84.8483 54.694ZM97.2092 52.724V46.933H99.0867V52.5653C99.0867 54.9981 97.6587 56.4524 95.3318 56.4524C93.018 56.4524 91.5901 54.9981 91.5901 52.5653V46.933H93.4675V52.724C93.4675 53.9668 94.1683 54.694 95.345 54.694C96.4952 54.694 97.2092 53.9668 97.2092 52.724ZM101.617 56.188V46.933H107.012V48.4931H103.495V50.6879H106.483V52.248H103.495V54.6279H107.012V56.188H101.617Z" fill="black"/>
<path fill-rule="evenodd" clip-rule="evenodd" d="M35.3493 81.9631L34.1197 83.0869H33.8024L34.5296 81.8044H35.3493V81.9631ZM34.4635 86.3123H34.1991C33.8685 86.7089 33.4983 87.0262 33.1413 87.0262C32.7711 87.0262 32.586 86.8014 32.586 86.3123C32.586 86.114 32.6125 85.9024 32.6521 85.7173L34.8073 85.0034C35.2304 83.9987 34.7279 83.5624 34.133 83.5624C33.1149 83.5624 31.9514 85.3472 31.9514 86.775C31.9514 87.4493 32.2687 87.8194 32.7711 87.8194C33.3529 87.8062 33.9611 87.2377 34.4635 86.3123ZM33.7239 84.1444C34.0148 84.1444 34.266 84.3692 34.1338 84.8848L32.7984 85.2418C33.0099 84.6072 33.4066 84.1444 33.7239 84.1444ZM29.52 84.1706H30.234L29.0969 87.2906C28.9912 87.5551 29.1366 87.8195 29.4143 87.8195C30.2208 87.8195 31.186 87.132 31.5562 86.1537H31.3579C31.067 86.5635 30.4323 87.013 29.9564 87.0923L31.0009 84.1706H32.0718L32.204 83.7211H31.1595L31.5562 82.5973H31.1463L30.4059 83.7211L29.52 83.84V84.1706ZM28.5277 83.5764C28.6731 83.5764 28.8715 83.735 28.7789 84.0259L27.4964 87.1327C27.8269 87.0798 28.1707 86.7625 28.369 86.4717H28.5806C28.2765 87.2517 27.589 87.8202 26.994 87.8202C26.8485 87.8202 26.637 87.6616 26.7428 87.3707L27.9327 84.2638C27.6022 84.3167 27.2584 84.634 27.0601 84.9249H26.8618C27.1659 84.1316 27.9063 83.5764 28.5277 83.5764ZM28.8988 82.7828C29.1632 82.7828 29.388 82.5712 29.388 82.2936C29.388 82.0292 29.1632 81.8044 28.8988 81.8044C28.6211 81.8044 28.4096 82.0292 28.4096 82.2936C28.4096 82.558 28.6343 82.7828 28.8988 82.7828ZM23.1207 85.3612C23.4116 84.7266 23.3058 84.4357 23.1207 84.4357C22.9621 84.4357 22.777 84.6076 22.5919 84.9249H22.3935C22.6976 84.2506 23.0943 83.5764 23.5306 83.5764C23.9008 83.5764 24.033 83.9465 24.033 84.3564V84.9381C24.0925 84.8689 24.1505 84.8009 24.207 84.7345L24.2081 84.7333L24.2089 84.7323C24.7675 84.0768 25.194 83.5764 25.6857 83.5764C26.0692 83.5764 26.2675 83.8143 26.2675 84.1713C26.2675 84.3828 26.2014 84.6472 26.0559 84.9249L24.9585 87.1327C25.2891 87.0798 25.6328 86.7625 25.8312 86.4717H26.0295C25.7254 87.2649 24.985 87.8202 24.3636 87.8202C24.0859 87.8202 23.9272 87.5293 24.0462 87.2914L25.3155 84.8455C25.461 84.5679 25.4874 84.3828 25.2626 84.3828C24.9585 84.3828 24.2446 84.8852 23.8611 85.3479L23.0282 87.5426C22.9356 87.7673 22.8431 87.8202 22.6315 87.8202C22.2878 87.8202 22.1159 87.5955 22.2745 87.2385L23.1207 85.3612ZM22.2603 84.5143C22.4058 84.0119 22.3264 83.5624 21.943 83.5624C21.4648 83.5624 21.3151 83.8782 20.8517 84.8555L20.8192 84.9241V84.3424C20.8192 83.9326 20.687 83.5624 20.3167 83.5624C19.8804 83.5624 19.4838 84.2366 19.1797 84.9109H19.378C19.5896 84.6068 19.7879 84.4217 19.9465 84.4217C20.1316 84.4217 20.2374 84.7126 19.9465 85.3472L19.1004 87.2245C18.9417 87.5815 19.1136 87.8062 19.4573 87.8062C19.6689 87.8062 19.7614 87.7533 19.854 87.5286L20.687 85.3339C20.9249 85.0431 21.1365 84.7919 21.4009 84.5143H22.2603ZM18.0826 84.8848C18.2148 84.3692 17.9636 84.1444 17.6727 84.1444C17.3554 84.1444 16.9587 84.6072 16.7472 85.2418L18.0826 84.8848ZM18.4123 86.3123H18.1479C17.8173 86.7089 17.4471 87.0262 17.0901 87.0262C16.7199 87.0262 16.5348 86.8014 16.5348 86.3123C16.5348 86.114 16.5613 85.9024 16.6009 85.7173L18.7561 85.0034C19.1792 83.9987 18.6767 83.5624 18.0818 83.5624C17.0637 83.5624 15.9002 85.3472 15.9002 86.775C15.9002 87.4493 16.2175 87.8194 16.7199 87.8194C17.3017 87.8062 17.9099 87.2377 18.4123 86.3123ZM14.1828 84.1706H13.4688V83.84L14.3547 83.7211L15.0951 82.5973H15.505L15.1083 83.7211H16.1528L16.0206 84.1706H14.9497L13.9052 87.0923C14.3811 87.013 15.0158 86.5635 15.3067 86.1537H15.505C15.1348 87.132 14.1696 87.8195 13.3631 87.8195C13.0854 87.8195 12.94 87.5551 13.0457 87.2906L14.1828 84.1706ZM9.68811 86.5902C9.68811 85.6251 10.7591 84.3295 11.354 84.3295C11.4863 84.3295 11.6185 84.3427 11.7242 84.3824L11.1028 86.0482C10.7458 86.4845 10.1905 87.0133 9.9261 87.0133C9.78066 87.0133 9.68811 86.8811 9.68811 86.5902ZM12.6369 83.3644L12.9674 83.3909L11.8171 86.035C11.5395 86.6696 11.6585 86.9604 11.8171 86.9604C11.9758 86.9604 12.1741 86.7753 12.3857 86.4713H12.584C12.2799 87.1455 11.8832 87.8198 11.4469 87.8198C11.0767 87.8198 10.8519 87.4232 10.9181 86.7092L10.9445 86.4581L10.8725 86.5586C10.3989 87.2207 9.97032 87.8198 9.52978 87.8198C9.14635 87.8198 8.94803 87.5818 8.94803 87.2249C8.94803 85.6913 10.6272 83.7346 12.2006 83.7346H12.2667L12.6369 83.3644ZM9.60829 84.5143C9.75372 84.0119 9.67439 83.5624 9.29097 83.5624C8.81278 83.5624 8.66305 83.8782 8.19967 84.8555L8.16712 84.9241V84.3424C8.16712 83.9326 8.03491 83.5624 7.6647 83.5624C7.22838 83.5624 6.83173 84.2366 6.52764 84.9109H6.72596C6.93751 84.6068 7.13583 84.4217 7.28127 84.4217C7.46637 84.4217 7.57215 84.7126 7.28127 85.3472L6.43508 87.2377C6.27642 87.5947 6.44831 87.8194 6.79207 87.8194C7.00362 87.8194 7.09617 87.7666 7.18872 87.5418L8.02168 85.3472C8.25968 85.0563 8.47122 84.8051 8.73566 84.5275H9.60829V84.5143ZM4.15998 87.422L4.08065 87.66H1L1.07933 87.4088C2.03129 87.2369 2.18995 87.1576 2.5866 86.0867L3.44601 83.7863C3.82944 82.7154 3.75011 82.6361 2.91714 82.4643L2.99647 82.2263H7.00264L6.76465 83.5087H6.47377C6.47377 82.7419 6.39444 82.5436 5.66725 82.5436H5.48215C4.76818 82.5436 4.67562 82.6493 4.4773 83.2046L3.90877 84.7514H4.74173C5.29704 84.7514 5.50859 84.4077 5.7598 83.9582H6.05068L5.36315 85.8355H5.07228C5.13838 85.267 5.13838 85.0423 4.62274 85.0423H3.78977L3.40634 86.0999C2.99187 87.2008 3.11031 87.2232 4.09727 87.4101C4.1178 87.414 4.1387 87.418 4.15998 87.422Z" fill="black"/>
<path fill-rule="evenodd" clip-rule="evenodd" d="M6.77758 71.8487L5.54799 72.7346V72.7478H5.23068L5.95785 71.6901H6.77758V71.8487ZM15.3727 78.0494L17.3427 72.8138L17.2766 72.7345L15.9148 72.8931V73.0518L16.1792 73.2501C16.4049 73.4257 16.3452 73.5894 16.1579 74.1023L16.1263 74.1888L14.6191 78.2081C14.5001 78.4461 14.6587 78.737 14.9364 78.737C15.5578 78.737 16.2189 78.1684 16.5229 77.3884H16.3246C16.1131 77.6792 15.69 77.9966 15.3727 78.0494ZM24.402 74.0169L25.6316 72.8931V72.7345H24.8118L24.0847 74.0169H24.402ZM24.4804 77.2297H24.7449C24.2557 78.1684 23.6475 78.7369 23.0658 78.7369C22.5633 78.7369 22.246 78.3667 22.246 77.6925C22.246 76.2645 23.4095 74.4797 24.4276 74.4797C25.0093 74.4797 25.5249 74.916 25.1018 75.9208L22.9335 76.6347C22.8939 76.8198 22.8674 77.0314 22.8674 77.2297C22.8674 77.7189 23.0525 77.9437 23.4227 77.9437C23.7797 77.9437 24.1499 77.6263 24.4804 77.2297ZM24.4137 75.8018C24.5459 75.2994 24.2947 75.0747 24.0038 75.0747C23.6997 75.0747 23.3031 75.5374 23.0783 76.1588L24.4137 75.8018ZM20.5266 75.1008H19.8126V74.7702L20.6985 74.6513L21.4389 73.5274H21.8487L21.4521 74.6513H22.4966L22.3644 75.1008H21.2934L20.2489 78.0227C20.7249 77.9434 21.3595 77.4938 21.6504 77.084H21.8487C21.4785 78.0624 20.5134 78.7499 19.7069 78.7499C19.4292 78.7499 19.2838 78.4855 19.3895 78.221L20.5266 75.1008ZM19.0721 74.9421C19.1515 74.6512 18.9664 74.4926 18.8077 74.4926C18.1863 74.4926 17.4459 75.0611 17.1418 75.8412H17.3401C17.5385 75.5503 17.8822 75.233 18.2128 75.1801L17.0228 78.2871C16.9171 78.578 17.1286 78.7366 17.274 78.7366C17.869 78.7366 18.5565 78.1681 18.8606 77.3881H18.6623C18.464 77.6789 18.1202 77.9962 17.7897 78.0491L19.0721 74.9421ZM19.6813 73.2236C19.6813 73.4881 19.4565 73.7128 19.1921 73.7128C18.9277 73.7128 18.7029 73.4881 18.7029 73.2236C18.7029 72.9592 18.9145 72.7345 19.1921 72.7345C19.4565 72.7345 19.6813 72.9592 19.6813 73.2236ZM13.0059 75.2597C12.4109 75.2597 11.34 76.5554 11.34 77.5206C11.34 77.8115 11.4325 77.9437 11.5912 77.9437C11.8424 77.9437 12.3977 77.4148 12.7547 76.9785L13.3761 75.3126C13.2571 75.2729 13.1381 75.2597 13.0059 75.2597ZM14.6192 74.321L14.2887 74.2946L13.9185 74.6648H13.8524C12.279 74.6648 10.5999 76.6216 10.5999 78.1552C10.5999 78.5122 10.7982 78.7502 11.1817 78.7502C11.6222 78.7502 12.0507 78.1511 12.5243 77.489L12.5963 77.3884L12.5699 77.6396C12.5038 78.3536 12.7286 78.7502 13.0988 78.7502C13.5351 78.7502 13.9317 78.0759 14.2358 77.4016H14.0375C13.8259 77.7057 13.6276 77.8908 13.469 77.8908C13.3103 77.8908 13.1913 77.5999 13.469 76.9653L14.6192 74.321ZM7.95489 78.6049C7.38637 78.8296 6.98973 79.0941 6.98973 79.5039C6.98973 79.8874 7.3467 80.046 8.0871 80.046C9.07871 80.046 9.62079 79.7551 9.62079 79.3717C9.62079 79.1998 9.39602 79.1205 8.80106 78.9222C8.41764 78.8032 8.13999 78.6974 7.95489 78.6049ZM8.61509 76.9786C8.35066 76.9786 8.25811 76.7538 8.25811 76.5158C8.25811 75.749 8.62831 74.7971 9.22328 74.7971C9.4877 74.7971 9.58025 75.0218 9.58025 75.2598C9.56703 76.0399 9.19683 76.9786 8.61509 76.9786ZM9.11884 78.2213C9.84601 78.4461 10.2955 78.6179 10.2955 79.1204C10.2955 79.7682 9.10562 80.535 7.66448 80.5218C6.83153 80.5218 6.11758 80.2971 6.11758 79.755C6.11758 79.2394 6.59355 78.8163 7.75703 78.4725C7.59838 78.3667 7.53227 78.2345 7.53227 78.0494C7.53227 77.7321 7.82314 77.4809 8.32555 77.2429C7.83636 77.1768 7.51905 76.8066 7.51905 76.2645C7.51905 75.4316 8.20656 74.4797 9.29072 74.4797C9.51548 74.4797 9.7138 74.5325 9.87246 74.6383H11.0624L10.9302 75.0878H10.2294C10.2691 75.2068 10.2955 75.339 10.2955 75.4845C10.2955 76.291 9.64769 77.2165 8.61642 77.2694C8.352 77.4148 8.21978 77.6131 8.21978 77.7718C8.21978 77.9585 8.43605 78.0216 8.91405 78.1611C8.97764 78.1797 9.04587 78.1996 9.11884 78.2213ZM4.92676 75.9605C5.44239 75.9605 5.45561 76.1853 5.37628 76.7538H5.66716L6.35467 74.8764H6.0638C5.81259 75.3259 5.60105 75.6697 5.04575 75.6697H3.90871L4.46401 74.1228C4.66233 73.5675 4.75488 73.4617 5.46883 73.4617H5.97125C6.69842 73.4617 6.77775 73.66 6.77775 74.4269H7.06862L7.30661 73.1444H2.99643L2.9171 73.3824C3.75005 73.5543 3.82938 73.6336 3.44596 74.7045L2.58657 77.0183C2.18993 78.0892 2.03127 78.1685 1.06611 78.3404L1 78.5916H5.78615L6.64554 77.2298H6.315C5.75971 77.7719 5.20441 78.2743 4.12025 78.2743C2.92776 78.2743 2.949 78.2159 3.3068 77.233C3.32983 77.1698 3.35427 77.1026 3.37985 77.0315L3.77649 75.9738H4.92676V75.9605Z" fill="black"/>
<path fill-rule="evenodd" clip-rule="evenodd" d="M8.87881 64.6296C9.14323 64.6296 9.368 64.4048 9.368 64.1404C9.368 63.876 9.14323 63.6512 8.87881 63.6512C8.60116 63.6512 8.38962 63.876 8.38962 64.1404C8.38962 64.418 8.60116 64.6296 8.87881 64.6296ZM12.7937 66.295C12.7937 65.6604 12.6351 65.4224 12.1855 65.4224C11.6302 65.4224 11.1146 66.0174 10.599 66.7313L11.7096 63.7567L11.6435 63.6641L10.2817 63.8228V63.9814L10.5461 64.1797C10.7763 64.3588 10.7096 64.5378 10.5135 65.064L10.4932 65.1184L9.29008 68.2648C9.18431 68.5292 9.06532 68.8465 9.06532 68.9259C9.06532 69.296 9.56773 69.653 10.0305 69.653C11.0617 69.6662 12.7937 67.7625 12.7937 66.295ZM24.2566 64.9465L25.4861 63.8228V63.6641H24.6664L23.9392 64.9465H24.2566ZM24.3362 68.1591H24.6006C24.0982 69.0977 23.49 69.6662 22.9083 69.653C22.4059 69.653 22.0886 69.296 22.0886 68.6218C22.0886 67.194 23.252 65.4092 24.2701 65.4092C24.8518 65.4092 25.3674 65.8455 24.9444 66.8503L22.7893 67.5642C22.7496 67.7493 22.7232 67.9608 22.7232 68.1591C22.7232 68.6482 22.9083 68.873 23.2785 68.873C23.6355 68.873 24.0057 68.5557 24.3362 68.1591ZM24.2688 66.7313C24.401 66.2289 24.1498 66.0042 23.8589 66.0042C23.5416 66.0042 23.145 66.4669 22.9335 67.0883L24.2688 66.7313ZM20.3671 66.0314H19.6531V65.7009L20.5389 65.5819L21.2793 64.4582H21.6892L21.2925 65.5819H22.337L22.2048 66.0314H21.1339L20.0894 68.9531C20.5654 68.8738 21.2 68.4243 21.4909 68.0145H21.6892C21.319 68.9928 20.3538 69.6802 19.5473 69.6802C19.2697 69.6802 19.1243 69.4158 19.23 69.1514L20.3671 66.0314ZM19.2854 66.3751C19.4308 65.8727 19.3515 65.4232 18.9681 65.4232C18.4899 65.4232 18.3402 65.739 17.8768 66.7163L17.8443 66.7849V66.2032C17.8443 65.7934 17.7121 65.4232 17.3419 65.4232C16.9056 65.4232 16.5089 66.0975 16.2049 66.7717H16.4032C16.6147 66.4676 16.813 66.2826 16.9585 66.2826C17.1436 66.2826 17.2493 66.5734 16.9585 67.208L16.1123 69.0853C15.9536 69.4422 16.1255 69.667 16.4693 69.667C16.6808 69.667 16.7734 69.6141 16.8659 69.3894L17.6989 67.1948C17.9368 66.9039 18.1484 66.6527 18.4128 66.3751H19.2854ZM15.0946 66.7313C15.2268 66.2289 14.9756 66.0042 14.6847 66.0042C14.3674 66.0042 13.984 66.4669 13.7592 67.0883L15.0946 66.7313ZM15.4243 68.1591H15.1599C14.8293 68.5557 14.4591 68.873 14.1022 68.873C13.732 68.873 13.5469 68.6482 13.5469 68.1591C13.5469 67.9608 13.5733 67.7493 13.613 67.5642L15.768 66.8503C16.1911 65.8455 15.6887 65.4092 15.0938 65.4092C14.0757 65.4092 12.9122 67.194 12.9122 68.6218C12.9122 69.296 13.2296 69.653 13.732 69.653C14.3137 69.6662 14.9219 69.0977 15.4243 68.1591ZM9.87234 68.6619C9.87234 68.8338 10.1764 69.0321 10.388 69.0321C11.2473 69.0321 12.0538 67.4853 12.0406 66.626C12.0406 66.3351 11.8952 66.2161 11.6969 66.2161C11.3796 66.2161 10.7978 66.6921 10.4276 67.1416L10.0839 68.067C9.96488 68.3711 9.87234 68.609 9.87234 68.6619ZM8.48434 65.4232C8.643 65.4232 8.82809 65.5819 8.74877 65.8727L7.47952 68.9795C7.81006 68.9266 8.15381 68.6093 8.35213 68.3185H8.55045C8.24636 69.0985 7.55885 69.667 6.96389 69.667C6.80524 69.667 6.5937 69.5083 6.69947 69.2175L7.88938 66.1107C7.55885 66.1636 7.2151 66.4809 7.01678 66.7717H6.81846C7.12255 65.9917 7.86294 65.4232 8.48434 65.4232ZM2.99641 64.0482H5.83898L5.75966 64.2994C4.7945 64.4713 4.63585 64.5506 4.23921 65.6215L3.39305 67.9483C2.98319 69.0588 3.08896 69.191 3.81613 69.191C4.71454 69.191 5.30364 68.538 5.81803 67.9679C5.85625 67.9255 5.89405 67.8836 5.93153 67.8425H6.26206L5.32335 69.5083H1L1.07933 69.2703C2.03126 69.0985 2.18991 69.0191 2.58655 67.9483L3.44593 65.6083C3.82935 64.5374 3.75002 64.4581 2.91708 64.2862L2.99641 64.0482Z" fill="black"/>
</svg>
