<svg width="155" height="90" viewBox="0 0 155 90" fill="none" xmlns="http://www.w3.org/2000/svg">
<rect width="31.9936" height="11.634" transform="translate(1)" fill="white"/>
<path d="M11.0468 10.4144C11.0506 10.4144 11.0545 10.4087 11.0545 10.4087C11.0854 10.3859 11.1163 10.3574 11.1433 10.3231C11.1395 10.3231 11.1356 10.3231 11.1317 10.3174C11.1047 10.3459 11.0738 10.3802 11.0468 10.4144Z" fill="#000091"/>
<path d="M15.3265 8.97238L15.2589 9.03057C15.2975 9.02088 15.3265 9.01118 15.3265 8.97238Z" fill="#000091"/>
<path fill-rule="evenodd" clip-rule="evenodd" d="M13.9428 10.4454C14.0668 10.3207 14.1908 10.1885 14.3147 10.0525H14.311C14.5439 9.78796 14.7692 9.5348 15.0397 9.30431C15.1223 9.22874 15.2012 9.16451 15.2763 9.11161C15.2874 9.10051 15.293 9.08397 15.2985 9.06777C15.3043 9.05088 15.3099 9.03434 15.3214 9.0247C15.2679 9.04513 15.2252 9.07744 15.1823 9.10994C15.1379 9.14355 15.0932 9.17738 15.0359 9.19851C15.0134 9.19851 14.9909 9.17584 15.0134 9.15317C15.0923 9.09649 15.1712 9.03604 15.2463 8.97558H15.2313C15.2087 8.97558 15.2087 8.95291 15.2087 8.93024C14.9291 8.88582 14.7143 9.07708 14.5221 9.24828L14.51 9.25897C14.4801 9.27402 14.4518 9.25909 14.4296 9.24736C14.4184 9.24142 14.4087 9.2363 14.4011 9.2363C14.231 9.29334 14.0843 9.39849 13.9366 9.50434C13.8006 9.60183 13.6638 9.69991 13.5071 9.76151V9.71617C13.4539 9.73452 13.4013 9.75844 13.3486 9.78242C13.271 9.81769 13.1932 9.85309 13.1127 9.87109C12.9657 9.90521 12.8293 9.90081 12.6971 9.89655C12.6537 9.89515 12.6107 9.89376 12.568 9.89376C12.3274 9.91762 12.0899 9.96915 11.8527 10.0206L11.7754 10.0373C11.7717 10.0392 11.7679 10.0402 11.7641 10.0411C11.7604 10.0421 11.7566 10.043 11.7529 10.0449C11.6101 10.0827 11.4787 10.1356 11.3472 10.2112L11.3322 10.2187C11.327 10.2256 11.3218 10.2318 11.317 10.2375C11.3114 10.2442 11.3062 10.2504 11.3021 10.2565C11.257 10.3094 11.2157 10.3547 11.1518 10.3887C11.0575 10.4362 10.976 10.5093 10.8958 10.5813C10.8611 10.6125 10.8264 10.6436 10.7912 10.6721C10.7837 10.6797 10.7687 10.6835 10.7574 10.6835C10.641 10.7968 10.5245 10.9102 10.4043 11.0198C10.3968 11.0273 10.363 11.0311 10.3367 11.0273C10.3367 11.0273 10.3405 11.0273 10.3405 11.0235L10.3517 11.0009L10.4081 10.9102C10.4194 10.8932 10.4297 10.8762 10.44 10.8592C10.4503 10.8422 10.4607 10.8252 10.4719 10.8082C10.502 10.7629 10.5321 10.7174 10.5659 10.6759C10.5734 10.6646 10.5734 10.6532 10.5659 10.6457C10.5583 10.6381 10.5471 10.6343 10.5358 10.6343C10.6447 10.5285 10.7725 10.4379 10.9039 10.3585V10.3547C10.8889 10.3585 10.8664 10.3472 10.8776 10.3321C10.8887 10.3182 10.8977 10.3023 10.9061 10.2874L10.9152 10.2716C10.9171 10.2678 10.918 10.265 10.919 10.2622C10.9199 10.2593 10.9208 10.2565 10.9227 10.2527C10.9208 10.2489 10.918 10.2461 10.9152 10.2433C10.9124 10.2404 10.9096 10.2376 10.9077 10.2338L10.8849 10.2489C10.8577 10.2667 10.8297 10.285 10.8063 10.3056C10.7897 10.3199 10.7742 10.3395 10.7583 10.3596C10.7239 10.4032 10.6875 10.4492 10.6335 10.4492C10.6297 10.4492 10.6109 10.4492 10.5997 10.4454C10.5884 10.4454 10.5809 10.4416 10.5771 10.4379C10.5771 10.436 10.5771 10.435 10.5776 10.4346C10.5781 10.4341 10.579 10.4341 10.5809 10.4341C10.5809 10.4341 10.5846 10.4303 10.5846 10.4265C10.5846 10.4265 10.5846 10.4228 10.5884 10.4228C10.5903 10.419 10.5921 10.4161 10.594 10.4133C10.5959 10.4105 10.5978 10.4076 10.5997 10.4039C10.6015 10.4001 10.6034 10.3972 10.6053 10.3944C10.6072 10.3916 10.6091 10.3887 10.6109 10.385C10.6128 10.3831 10.6137 10.3802 10.6147 10.3774C10.6156 10.3746 10.6166 10.3717 10.6184 10.3699L10.6227 10.3621C10.6264 10.3554 10.6309 10.3475 10.6335 10.3396C10.6353 10.3358 10.6372 10.333 10.6391 10.3302C10.641 10.3273 10.6429 10.3245 10.6447 10.3207C10.6504 10.3132 10.6551 10.3047 10.6598 10.2962C10.6645 10.2877 10.6692 10.2792 10.6748 10.2716C10.6785 10.2641 10.6823 10.2565 10.6898 10.2489C10.6936 10.2414 10.6973 10.2348 10.7011 10.2282C10.7048 10.2215 10.7086 10.2149 10.7124 10.2074C10.7236 10.1885 10.7124 10.1734 10.6973 10.1696C10.7386 10.1167 10.7875 10.0713 10.8476 10.0373H10.8401C10.8919 10.0113 10.9453 9.98071 10.9982 9.95037C11.0295 9.93246 11.0611 9.91434 11.0917 9.89754C11.103 9.8862 11.1143 9.87487 11.1293 9.86731C11.0054 9.90887 10.8927 9.96555 10.7837 10.0411C10.7837 10.0411 10.7537 10.0525 10.7462 10.06C10.7462 10.06 10.7236 10.0676 10.6936 10.0411C10.6898 10.0373 10.6898 10.0336 10.6898 10.026C10.7029 9.99974 10.7298 9.98235 10.7589 9.96355C10.78 9.9499 10.8023 9.9355 10.8213 9.91643C10.8438 9.91643 10.8626 9.91643 10.8626 9.9391C11.2952 9.59985 11.8287 9.52137 12.3639 9.44262C12.6931 9.39419 13.023 9.34565 13.3305 9.2363C13.3625 9.21363 13.3953 9.1919 13.4282 9.17017C13.4611 9.14845 13.4939 9.12672 13.5259 9.10405C13.5807 9.08125 13.6298 9.04219 13.6817 9.00083C13.7331 8.95996 13.7873 8.91682 13.8527 8.8849C14.0255 8.75265 14.1569 8.60151 14.2246 8.37858C14.2246 8.3559 14.202 8.33323 14.202 8.33323C13.9165 8.63929 13.5897 8.88112 13.2404 9.05871C12.9073 9.23449 12.5503 9.26053 12.197 9.28632C12.0643 9.29601 11.932 9.30566 11.8017 9.3232C11.8242 9.27786 11.8693 9.27786 11.9106 9.27786C11.9106 9.22421 11.9363 9.20112 11.9693 9.17151C11.9782 9.16359 11.9875 9.15518 11.997 9.14561H12.0609C12.0722 9.14561 12.0778 9.13428 12.0834 9.12294C12.0891 9.11161 12.0947 9.10027 12.106 9.10027C12.151 9.10027 12.2149 9.0776 12.1924 9.0776C12.1579 9.03331 12.1078 9.05085 12.0526 9.07019C11.9995 9.08881 11.9415 9.1091 11.8881 9.0776C11.908 9.05581 11.9139 9.02964 11.9194 9.00583C11.9252 8.98011 11.9305 8.95713 11.952 8.94535H12.0384C12.0384 8.90001 12.0834 8.85845 12.0834 8.85845C12.2793 8.74066 12.4685 8.63781 12.6541 8.53688C12.7781 8.46946 12.9007 8.40283 13.0225 8.33323C12.9979 8.33323 12.976 8.34336 12.9548 8.3532C12.9211 8.36885 12.8889 8.38375 12.8497 8.3559C12.8723 8.3559 12.8723 8.33985 12.8723 8.32379C12.8723 8.30773 12.8723 8.29167 12.8948 8.29167C13.0357 8.25402 13.1612 8.19299 13.2893 8.13067C13.3797 8.08668 13.4715 8.04203 13.571 8.0045C13.5414 8.0045 13.5141 8.01245 13.4874 8.02019C13.4361 8.0351 13.3874 8.04927 13.3305 8.0045C13.3455 7.997 13.3575 7.98742 13.3694 7.97796C13.3934 7.95886 13.4168 7.94027 13.462 7.94027V7.87603C13.462 7.85336 13.4846 7.85336 13.5071 7.85336C13.4846 7.85336 13.462 7.83069 13.462 7.83069C13.4739 7.80669 13.4975 7.80174 13.5236 7.79624C13.5469 7.79135 13.5723 7.78602 13.5935 7.76646C13.571 7.76646 13.5296 7.76646 13.5296 7.74379C13.5935 7.65688 13.7024 7.63421 13.8114 7.61154C13.8001 7.58887 13.7785 7.58887 13.7597 7.58887C13.7409 7.58887 13.725 7.58887 13.725 7.5662C13.725 7.54352 13.7475 7.54352 13.77 7.54352H13.725C13.6896 7.52573 13.6959 7.49398 13.7002 7.47201C13.7014 7.46598 13.7024 7.46069 13.7024 7.45662C13.7907 7.35264 13.8197 7.22993 13.8485 7.10792C13.8627 7.04816 13.8768 6.98855 13.8978 6.93141C13.8752 6.93141 13.8527 6.93141 13.8527 6.90873C13.6415 7.14317 13.3067 7.23201 12.9887 7.3164L12.9587 7.32437H12.8497C12.7408 7.36971 12.5868 7.36971 12.4778 7.3017C12.426 7.27451 12.3891 7.24054 12.3492 7.20384C12.3225 7.17933 12.2946 7.15361 12.26 7.12789C12.0834 7.01831 11.9106 6.93141 11.7153 6.86339C11.1706 6.68958 10.6034 6.5989 10.0362 6.62157C10.1946 6.53443 10.3628 6.49979 10.5332 6.46468C10.6215 6.4465 10.7103 6.42819 10.7988 6.40241C10.8545 6.38598 10.9098 6.36904 10.9648 6.35218C11.2763 6.25666 11.5786 6.16399 11.9106 6.18326C11.8672 6.16783 11.8115 6.1734 11.7603 6.17854C11.7362 6.18095 11.7132 6.18326 11.6928 6.18326C11.4417 6.16455 11.188 6.22046 10.9234 6.2788C10.8673 6.29116 10.8108 6.30362 10.7537 6.31551C10.65 6.33708 10.5515 6.36806 10.4528 6.39909C10.344 6.43328 10.235 6.46753 10.1188 6.48932C10.0685 6.5067 10.028 6.53629 9.98858 6.56512C9.92517 6.6115 9.86448 6.65589 9.7695 6.64424V6.57623C9.98737 6.31173 10.2503 6.05101 10.5997 6.02834C10.9373 5.97335 11.2558 6.01252 11.5879 6.05338C11.6437 6.06025 11.6999 6.06716 11.7566 6.07368C12.0289 6.0956 12.2837 6.15633 12.5582 6.22178L12.5868 6.2286C12.6469 6.2286 12.6807 6.28151 12.7134 6.33275C12.74 6.37439 12.7659 6.41492 12.8047 6.42508C12.8581 6.44353 12.9116 6.44697 12.9651 6.45041C13.0431 6.45542 13.1211 6.46044 13.1991 6.51199C13.1991 6.49673 13.1965 6.48191 13.194 6.46722C13.189 6.43825 13.1841 6.40983 13.1991 6.37974C13.2475 6.33099 13.3031 6.34407 13.3578 6.35695C13.4006 6.36702 13.4429 6.37698 13.4808 6.35707C13.5999 6.28314 13.4882 6.16965 13.3764 6.05605C13.3224 6.00128 13.2685 5.94649 13.2404 5.89609C13.2404 5.87342 13.2629 5.85075 13.2629 5.85075C13.3123 5.89498 13.3582 5.94074 13.4038 5.98612C13.5178 6.09968 13.6294 6.21076 13.7851 6.28906C13.894 6.3344 14.1569 6.39864 14.1119 6.26639C14.0347 6.09511 13.9029 5.94657 13.7698 5.79662C13.715 5.73486 13.66 5.67286 13.6085 5.60893V5.52202C13.5743 5.52202 13.566 5.50894 13.5558 5.49272C13.5526 5.48758 13.5492 5.48213 13.5447 5.47668V5.38977C13.4896 5.36087 13.4773 5.31509 13.4648 5.26905C13.4578 5.24286 13.4507 5.21658 13.4357 5.19329C13.3981 5.13227 13.3954 5.05719 13.3926 4.97979C13.3904 4.9182 13.3881 4.85515 13.3681 4.79655C13.323 4.6643 13.3043 4.55472 13.2817 4.42247C13.2573 4.28718 13.2303 4.15781 13.204 4.03116C13.1575 3.80765 13.1128 3.59256 13.0864 3.36827C13.0516 3.04768 13.2135 2.77654 13.379 2.49937C13.4281 2.41721 13.4775 2.3345 13.5221 2.24983C13.6761 1.98533 13.8489 1.72462 14.1344 1.54703C14.1967 1.28906 14.3662 1.07422 14.5348 0.860446L14.5476 0.844223C14.714 0.636769 14.992 0.509946 15.1969 0.416479L15.22 0.405916C15.5243 0.269889 15.7985 0.182983 15.8022 0.182983H0.712891V11.817H11.4186C11.7049 11.6094 11.9894 11.4785 12.3281 11.3226C12.4827 11.2515 12.6485 11.1751 12.8309 11.084C12.8696 11.0646 12.9155 11.042 12.9664 11.0169C13.2722 10.8665 13.7593 10.6268 13.9428 10.4454ZM10.5458 8.87581C10.5033 8.88007 10.4583 8.8846 10.4753 8.85047C10.4911 8.774 10.5694 8.75107 10.6458 8.72868C10.6786 8.7191 10.711 8.70961 10.738 8.69606L10.7504 8.68967L10.7594 8.6849C10.8017 8.6624 10.8536 8.63485 10.8919 8.65086C10.9177 8.68756 10.9497 8.69704 10.9807 8.70624C11.0039 8.7131 11.0265 8.7198 11.0457 8.73748C10.9645 8.81896 10.8698 8.827 10.7737 8.83514C10.7099 8.84056 10.6455 8.84602 10.5841 8.87307C10.5731 8.87307 10.5596 8.87443 10.5458 8.87581ZM7.22248 8.34446C7.22248 8.36714 7.24502 8.38981 7.24502 8.38981C7.77091 7.79658 8.24797 7.29026 8.92412 6.87085C8.94222 6.86326 8.93549 6.87273 8.92654 6.88532C8.91321 6.90408 8.89496 6.92975 8.94666 6.91619C9.1705 6.86515 9.27104 6.67338 9.36884 6.4868C9.39413 6.43856 9.41924 6.39066 9.44625 6.34563C9.54883 6.17878 9.69453 6.07189 9.84134 5.96417C9.94721 5.88649 10.0537 5.80838 10.1449 5.70706C10.1449 5.72973 10.1449 5.75241 10.1224 5.77508C10.1449 5.79775 10.1675 5.79775 10.19 5.79775C10.2296 5.76785 10.2729 5.75548 10.3144 5.74362C10.3672 5.72849 10.4172 5.71421 10.453 5.6655C10.2802 5.59749 10.0585 5.57482 9.88575 5.64283C9.42747 5.86198 9.03681 6.21338 8.66493 6.61013C8.43955 6.84817 8.20665 7.07111 7.92117 7.22603C7.72584 7.61899 7.50797 7.97039 7.22248 8.34446ZM9.05634 6.93918C9.04457 6.96281 9.0328 6.97511 9.02156 6.98686C9.01132 6.99757 9.0015 7.00784 8.99254 7.02581C8.97003 7.071 8.94751 7.08983 8.90623 7.11243C8.88371 7.11243 8.8612 7.11243 8.8612 7.08983C8.88371 7.00321 8.94751 6.91658 9.03383 6.89398C9.05634 6.89775 9.05634 6.92035 9.05634 6.93918ZM10.0169 10.2947C10.0357 10.2759 10.0582 10.2532 10.0694 10.2305C10.0882 10.1852 9.97188 10.1965 9.95311 10.2078C9.93608 10.2216 9.92524 10.2353 9.91216 10.2518L9.90808 10.257C9.89242 10.275 9.8741 10.2916 9.8555 10.3086C9.84289 10.3201 9.83014 10.3317 9.81801 10.3439C9.76547 10.3968 9.71293 10.4497 9.65664 10.4988C9.61911 10.5328 9.7392 10.5479 9.76547 10.5252C9.79549 10.5026 9.82176 10.4761 9.84803 10.4497C9.85804 10.4497 9.86805 10.448 9.87472 10.4469L9.87931 10.4461L9.88181 10.4459C9.94402 10.425 9.99031 10.3817 10.0354 10.3396L10.0469 10.3288C10.0619 10.3136 10.0432 10.2985 10.0169 10.2947ZM9.67729 10.049C9.67686 10.0491 9.67656 10.0492 9.67636 10.0494C9.67589 10.0499 9.67589 10.0508 9.67589 10.0527C9.65285 10.0685 9.6301 10.0846 9.6074 10.1007C9.54868 10.1422 9.49028 10.1836 9.42796 10.219C9.36838 10.2526 9.30728 10.2816 9.24563 10.3108C9.21012 10.3277 9.17442 10.3446 9.13872 10.3626C9.13872 10.3626 9.13872 10.3588 9.13497 10.3588C9.12746 10.3475 9.11243 10.3437 9.0974 10.3512C9.01476 10.3966 8.94339 10.457 8.87953 10.5213C8.86827 10.5288 8.857 10.5402 8.84948 10.5515L8.81568 10.5855V10.5893C8.80065 10.6044 8.78563 10.6195 8.76684 10.6422C8.76294 10.6461 8.75994 10.65 8.75705 10.6538C8.75162 10.6609 8.74661 10.6675 8.73679 10.6724C8.72177 10.68 8.6842 10.68 8.68796 10.6573V10.6535C8.67669 10.6611 8.66167 10.6686 8.6504 10.6724C8.64476 10.6762 8.63913 10.679 8.63349 10.6819C8.62786 10.6847 8.62222 10.6875 8.61659 10.6913C8.61283 10.6875 8.60532 10.6875 8.60156 10.6875C8.59781 10.6875 8.59029 10.6875 8.58654 10.6913C8.57777 10.6989 8.56901 10.706 8.56024 10.7131C8.54271 10.7274 8.52518 10.7417 8.50765 10.7593C8.46258 10.8009 8.42126 10.8462 8.37994 10.8953C8.37994 10.8953 8.37994 10.8991 8.37618 10.8991C8.37618 10.901 8.37524 10.902 8.3743 10.9029C8.37336 10.9038 8.37242 10.9048 8.37242 10.9067L8.36491 10.9142C8.36348 10.9157 8.36259 10.9171 8.36183 10.9184C8.36061 10.9203 8.35972 10.9218 8.3574 10.9218L8.35364 10.9256C8.34989 10.9331 8.34613 10.9407 8.33862 10.9482C8.33486 10.952 8.32735 10.9558 8.31984 10.9558C8.31608 10.952 8.31232 10.9482 8.31232 10.9445C8.31044 10.9426 8.30951 10.9407 8.30857 10.9388C8.30763 10.9369 8.30669 10.935 8.30481 10.9331C8.30105 10.9275 8.29824 10.9218 8.29542 10.9161C8.2926 10.9105 8.28978 10.9048 8.28603 10.8991V10.8953C8.28603 10.8935 8.28509 10.8916 8.28415 10.8897C8.28321 10.8878 8.28227 10.8859 8.28227 10.884L8.34989 10.8047L8.35364 10.8009C8.3574 10.7971 8.36115 10.7924 8.3649 10.7877C8.36866 10.7829 8.37242 10.7782 8.37618 10.7744C8.38181 10.7669 8.38839 10.7593 8.39496 10.7518C8.40153 10.7442 8.40811 10.7366 8.41374 10.7291C8.41562 10.7253 8.4175 10.7225 8.41938 10.7196C8.42126 10.7168 8.42314 10.714 8.42501 10.7102C8.44755 10.68 8.47009 10.6497 8.49263 10.6157V10.612C8.49638 10.6082 8.50014 10.6044 8.50014 10.5968C8.51141 10.5817 8.52268 10.5666 8.53019 10.5515L8.55273 10.5062V10.5024L8.55649 10.4986C8.55649 10.4967 8.55743 10.4958 8.55836 10.4948C8.5593 10.4939 8.56024 10.4929 8.56024 10.491C8.564 10.4816 8.56775 10.4731 8.5715 10.4646C8.57526 10.4561 8.57903 10.4476 8.58278 10.4381V10.4344L8.58654 10.4192C8.58842 10.4155 8.58936 10.4117 8.59029 10.4079C8.59123 10.4041 8.59217 10.4004 8.59405 10.3966V10.3928C8.59593 10.3871 8.59687 10.3815 8.59781 10.3758C8.59875 10.3701 8.59969 10.3645 8.60156 10.3588C8.60156 10.355 8.60156 10.3475 8.59781 10.3437C8.62034 10.3021 8.6504 10.2643 8.6842 10.2265C8.68233 10.2265 8.68045 10.2275 8.67857 10.2284C8.67749 10.229 8.67641 10.2295 8.67534 10.2299C8.67454 10.2301 8.67373 10.2303 8.67293 10.2303C8.65622 10.2408 8.64182 10.2549 8.62717 10.2691C8.61548 10.2805 8.60363 10.2921 8.59029 10.3021C8.56776 10.321 8.52268 10.2908 8.55273 10.2681C8.57151 10.253 8.58653 10.2379 8.60155 10.2228C8.60155 10.2228 8.60156 10.219 8.60532 10.219C8.62029 10.2054 8.63467 10.1901 8.64916 10.1746C8.67102 10.1512 8.69317 10.1276 8.71801 10.1094C8.7443 10.0905 8.76309 10.0754 8.78563 10.0565C8.78938 10.0527 8.79314 10.049 8.79689 10.049C8.81192 10.0301 8.82695 10.0112 8.84573 9.99228C8.84573 9.99228 8.84948 9.99228 8.84948 9.9885C8.97848 9.86337 9.15974 9.81924 9.34476 9.7742C9.46146 9.74579 9.57964 9.71701 9.68715 9.66732C9.74788 9.64205 9.8156 9.65199 9.88252 9.66182C9.93566 9.66963 9.98829 9.67736 10.0365 9.66732C10.1004 9.66732 10.168 9.66732 10.2318 9.71266C10.0833 9.79176 9.94154 9.88222 9.80131 9.9717C9.7607 9.99761 9.72012 10.0235 9.67964 10.049C9.67859 10.049 9.67784 10.049 9.67729 10.049ZM10.1467 8.50901C10.1291 8.51103 10.1177 8.51234 10.1275 8.52217C10.1913 8.5864 10.3228 8.56373 10.413 8.51461C10.4768 8.46927 10.5444 8.46927 10.6308 8.46927C10.6534 8.46927 10.6534 8.4277 10.6534 8.40503C10.7172 8.4277 10.7623 8.4277 10.8262 8.4277C11.3483 8.31813 11.8517 8.20855 12.3325 7.96673C11.846 7.59079 11.2462 7.42333 10.6587 7.25931C10.5612 7.23209 10.4641 7.20498 10.3679 7.17702C10.389 7.17702 10.4102 7.18406 10.4315 7.19115C10.4745 7.20547 10.518 7.21998 10.5632 7.17702C10.5036 7.12947 10.4373 7.12038 10.3716 7.11137C10.3172 7.10392 10.2632 7.09653 10.2139 7.06744C10.219 7.06744 10.2251 7.06862 10.2318 7.06991C10.2543 7.07425 10.2829 7.07976 10.3003 7.04477C10.1862 6.98738 10.0721 6.96789 9.95688 6.94821C9.89764 6.93809 9.8381 6.92792 9.77814 6.91252C9.88707 6.88985 9.95469 6.80294 9.95469 6.69337C9.95469 6.6707 9.90961 6.6707 9.88707 6.6707C9.62788 6.80294 9.45133 7.04477 9.3424 7.32816C9.44061 7.38598 9.54646 7.37928 9.6502 7.37271C9.70915 7.36898 9.76741 7.36529 9.82322 7.3735C9.77396 7.42029 9.70278 7.433 9.63436 7.44521C9.60885 7.44976 9.58373 7.45425 9.56027 7.46041C9.49265 7.47552 9.4288 7.52464 9.45133 7.56998C9.46636 7.58887 9.48139 7.59643 9.50017 7.60021C9.45133 7.61532 9.40626 7.638 9.36494 7.67956C9.42678 7.72824 9.49055 7.71885 9.55348 7.70957C9.57847 7.70589 9.60333 7.70223 9.62788 7.70223C9.62788 7.72967 9.6459 7.739 9.66462 7.74869C9.67426 7.75368 9.68409 7.75876 9.69174 7.76646C9.58281 7.80803 9.49641 7.89871 9.47387 7.96295C9.44695 8.0284 9.39724 8.07094 9.34796 8.1131C9.31474 8.14152 9.28172 8.16978 9.256 8.20477V8.27278C9.18344 8.33712 9.10885 8.39457 9.03529 8.45123C8.88419 8.56762 8.73739 8.6807 8.62118 8.84334C8.64371 8.84334 8.64371 8.86601 8.64371 8.88868C8.62293 8.92004 8.59336 8.94176 8.56532 8.96236C8.53254 8.98644 8.50185 9.00899 8.4897 9.0436C8.4897 9.06627 8.4897 9.08894 8.51224 9.08894C8.65008 9.04339 8.76935 8.96668 8.88626 8.89148C8.99237 8.82323 9.09655 8.75622 9.21093 8.71487C9.3044 8.69239 9.38579 8.65 9.46519 8.60864C9.53256 8.57355 9.59851 8.5392 9.6692 8.51839C9.72367 8.50705 9.78377 8.491 9.84387 8.47494C9.90398 8.45888 9.96408 8.44282 10.0185 8.43148C10.0185 8.45415 10.0185 8.47682 10.0411 8.47682H10.2139C10.2032 8.50252 10.1697 8.50637 10.1467 8.50901Z" fill="#000091"/>
<path d="M32.7057 0.182983H20.1924C20.1924 0.182983 20.2151 0.186766 20.3097 0.235934C20.4118 0.288885 20.5442 0.360747 20.6236 0.402351C20.7863 0.485559 20.9414 0.591461 21.0435 0.754095C21.0889 0.818392 21.1532 0.950769 21.1116 1.03776C21.0662 1.14744 21.0435 1.32521 20.9338 1.36681C20.8014 1.43489 20.6274 1.43489 20.4723 1.4122C20.3853 1.4122 20.2983 1.3895 20.2075 1.36681C20.5366 1.49919 20.8468 1.65426 21.0662 1.96062C21.0889 2.006 21.1759 2.02491 21.2629 2.02491C21.2856 2.02491 21.2856 2.0703 21.2856 2.08921C21.2402 2.1346 21.1986 2.15729 21.2213 2.22159H21.2856C21.3953 2.1762 21.3726 1.95683 21.5277 2.02491C21.6374 2.08921 21.6828 2.24428 21.6147 2.35396C21.5277 2.44095 21.4407 2.50903 21.3499 2.57333C21.3272 2.61872 21.3272 2.68302 21.3499 2.7284C21.4142 2.81539 21.4369 2.90238 21.4596 2.99316C21.5277 3.14823 21.5466 3.32221 21.6147 3.47728C21.7017 3.80633 21.7887 4.13538 21.7698 4.46821C21.7698 4.64219 21.6828 4.79726 21.7471 4.97503C21.7925 5.14901 21.9022 5.28138 21.9892 5.43645C22.0762 5.56883 22.1632 5.65582 22.2313 5.7882C22.3637 6.00757 22.6058 6.22693 22.4961 6.49169C22.4318 6.64676 22.1897 6.62406 22.0346 6.71106C21.9022 6.82074 22.0119 6.9985 22.08 7.10819C22.1897 7.30486 21.9476 7.43724 21.7925 7.50532C21.8379 7.5734 21.9249 7.5507 21.9476 7.59231C21.9703 7.70199 22.08 7.76629 22.0119 7.87975C21.9249 8.01213 21.6601 8.07643 21.7925 8.27688C21.8795 8.43195 21.8228 8.60215 21.7698 8.76101C21.7055 8.95768 21.5277 9.04467 21.3726 9.09006C21.2402 9.13544 21.0851 9.13544 20.9565 9.11275C20.9111 9.09006 20.8695 9.06736 20.8241 9.06736C20.4496 9.02198 20.0751 8.91608 19.7044 8.91608C19.5947 8.93877 19.485 8.95768 19.398 9.00307C19.2997 9.07493 19.2089 9.15435 19.1332 9.23756C19.1332 9.23756 19.1332 9.23756 19.1295 9.24135C19.1143 9.26026 19.0954 9.27538 19.0803 9.2943C19.0727 9.30564 19.0614 9.31699 19.0538 9.32834C19.0462 9.3359 19.0424 9.34346 19.0349 9.35103C18.9706 9.43045 18.9138 9.51744 18.8609 9.60444C18.8571 9.612 18.8533 9.61578 18.8495 9.61956C18.8457 9.63091 18.8382 9.63848 18.8306 9.64982C18.7587 9.7822 18.7058 9.91836 18.6642 10.0545C18.5129 10.5575 18.581 10.9887 18.6869 11.0946C18.7171 11.1249 19.4132 11.3405 19.8973 11.556C20.1243 11.6582 20.2832 11.7338 20.4156 11.817H32.7019V0.182983H32.7057Z" fill="#E1000F"/>
<path d="M20.936 4.42629C21.023 4.44895 21.1554 4.44895 21.1554 4.49428C21.11 4.66804 20.849 4.71336 20.7166 4.89089H20.6485C20.5841 4.93622 20.6031 5.04576 20.5387 5.04576C20.4744 5.0231 20.4063 5.04576 20.342 5.06842C20.429 5.1553 20.5387 5.22329 20.6712 5.20063C20.6939 5.20063 20.7355 5.24596 20.7355 5.28751C20.7355 5.28751 20.7582 5.28751 20.7809 5.26484C20.8036 5.26484 20.8263 5.26484 20.8263 5.28751V5.37438C20.762 5.46126 20.6485 5.41971 20.5614 5.4386C20.7393 5.48392 20.9133 5.48392 21.0684 5.4386C21.2008 5.39327 21.0684 5.17419 21.1554 5.06465C21.11 5.06465 21.1554 4.99666 21.11 4.99666C21.1554 4.95133 21.1971 4.88712 21.2425 4.86445C21.2879 4.86445 21.3522 4.84179 21.3749 4.79646C21.3749 4.75114 21.2879 4.73225 21.3068 4.68692C21.4392 4.60004 21.5489 4.46784 21.5035 4.33564C21.4808 4.26765 21.3068 4.26765 21.1971 4.2261C21.0873 4.18455 20.9549 4.2261 20.8225 4.24876C20.7128 4.24876 20.6031 4.31675 20.4933 4.33564C20.3382 4.38096 20.2058 4.46784 20.0771 4.55472C20.2323 4.4905 20.3836 4.46784 20.5614 4.42251C20.6939 4.42629 20.8036 4.39607 20.936 4.42629" fill="#808080"/>
<path d="M2.19831 25.1241V16.9803H5.39767C7.98042 16.9803 9.72553 18.8534 9.72553 21.0522C9.72553 23.2511 7.98042 25.1241 5.39767 25.1241H2.19831ZM5.42093 18.4811H3.85034V23.6234H5.42093C6.93336 23.6234 8.02696 22.4949 8.02696 21.0522C8.02696 19.598 6.93336 18.4811 5.42093 18.4811ZM11.4933 25.1241V16.9803H13.1453V25.1241H11.4933ZM15.5961 25.1241V16.9803H18.0858C19.8774 16.9803 20.9826 17.8994 20.9826 19.4118C20.9826 20.4007 20.5056 21.1337 19.668 21.5176L22.2158 25.1241H20.273L18.0974 21.8317H17.2481V25.1241H15.5961ZM18.1788 18.3531H17.2481V20.4589H18.1788C18.8769 20.4589 19.2841 20.0517 19.2841 19.3886C19.2841 18.772 18.8769 18.3531 18.1788 18.3531ZM23.4368 25.1241V16.9803H28.1835V18.3531H25.0888V20.2844H27.7181V21.6572H25.0888V23.7513H28.1835V25.1241H23.4368ZM33.7257 23.8095C34.6565 23.8095 35.3894 23.3558 35.8548 22.6926L37.1578 23.6932C36.4132 24.7053 35.2033 25.3568 33.7257 25.3568C31.1546 25.3568 29.3979 23.379 29.3979 21.0522C29.3979 18.7254 31.1546 16.7476 33.7257 16.7476C35.2033 16.7476 36.4132 17.4108 37.1578 18.3997L35.8548 19.4118C35.3894 18.7487 34.6565 18.295 33.7257 18.295C32.19 18.295 31.0964 19.4933 31.0964 21.0522C31.0964 22.6112 32.19 23.8095 33.7257 23.8095ZM37.9283 18.4811V16.9803H44.6063V18.4811H42.0933V25.1241H40.4413V18.4811H37.9283ZM46.2318 25.1241V16.9803H47.8838V25.1241H46.2318ZM53.9644 16.7476C56.5239 16.7476 58.2806 18.7254 58.2806 21.0522C58.2806 23.379 56.5239 25.3568 53.9644 25.3568C51.3933 25.3568 49.6365 23.379 49.6365 21.0522C49.6365 18.7254 51.3933 16.7476 53.9644 16.7476ZM53.9644 23.8095C55.4885 23.8095 56.5821 22.6112 56.5821 21.0522C56.5821 19.4933 55.4885 18.295 53.9644 18.295C52.4287 18.295 51.3351 19.4933 51.3351 21.0522C51.3351 22.6112 52.4287 23.8095 53.9644 23.8095ZM60.0386 25.1241V16.9803H62.156L65.7974 22.8671V16.9803H67.4494V25.1241H65.332L61.6906 19.2373V25.1241H60.0386ZM2.19831 37.1241V28.9803H3.85034V37.1241H2.19831ZM6.30112 37.1241V28.9803H8.41852L12.06 34.8671V28.9803H13.712V37.1241H11.5946L7.95316 31.2373V37.1241H6.30112ZM15.3265 30.4811V28.9803H22.0044V30.4811H19.4915V37.1241H17.8395V30.4811H15.3265ZM23.6299 37.1241V28.9803H28.3766V30.3531H25.282V32.2844H27.9113V33.6572H25.282V35.7513H28.3766V37.1241H23.6299ZM30.4708 37.1241V28.9803H32.9605C34.7522 28.9803 35.8574 29.8994 35.8574 31.4118C35.8574 32.4007 35.3804 33.1337 34.5427 33.5176L37.0906 37.1241H35.1477L32.9722 33.8317H32.1229V37.1241H30.4708ZM33.0536 30.3531H32.1229V32.4589H33.0536C33.7516 32.4589 34.1588 32.0517 34.1588 31.3886C34.1588 30.772 33.7516 30.3531 33.0536 30.3531ZM38.3115 37.1241V28.9803H40.3708L42.3602 32.4007L44.3496 28.9803H46.4088V37.1241H44.7568V31.2839L42.9419 34.332H41.7785L39.9636 31.2839V37.1241H38.3115ZM48.8562 37.1241V28.9803H50.5083V37.1241H48.8562ZM52.9591 37.1241V28.9803H55.0765L58.7179 34.8671V28.9803H60.3699V37.1241H58.2526L54.6111 31.2373V37.1241H52.9591ZM62.8221 37.1241V28.9803H64.4741V37.1241H62.8221ZM66.192 35.9956L67.3903 34.8904C67.8789 35.5186 68.5304 35.8909 69.1936 35.8909C69.8451 35.8909 70.2406 35.5419 70.2406 34.9602C70.2406 33.4594 66.541 33.8666 66.541 31.1093C66.541 29.818 67.6113 28.7476 69.1703 28.7476C70.3919 28.7476 71.3226 29.2944 72.0206 30.1205L70.8107 31.2141C70.3337 30.5974 69.7985 30.1903 69.1819 30.1903C68.6002 30.1903 68.2163 30.5625 68.2163 31.0512C68.2163 32.5287 71.9159 32.1099 71.9159 34.902C71.8926 36.4377 70.6943 37.3568 69.2052 37.3568C67.8324 37.3568 66.9133 36.8566 66.192 35.9956ZM72.9282 30.4811V28.9803H79.6061V30.4811H77.0932V37.1241H75.4411V30.4811H72.9282ZM84.3379 28.2823H82.8371L84.1517 26.7117H85.8503L84.3379 28.2823ZM81.2316 37.1241V28.9803H85.9783V30.3531H82.8836V32.2844H85.5129V33.6572H82.8836V35.7513H85.9783V37.1241H81.2316ZM88.0725 37.1241V28.9803H90.5622C92.3538 28.9803 93.4591 29.8994 93.4591 31.4118C93.4591 32.4007 92.9821 33.1337 92.1444 33.5176L94.6923 37.1241H92.7494L90.5738 33.8317H89.7245V37.1241H88.0725ZM90.6553 30.3531H89.7245V32.4589H90.6553C91.3533 32.4589 91.7605 32.0517 91.7605 31.3886C91.7605 30.772 91.3533 30.3531 90.6553 30.3531ZM95.9132 37.1241V28.9803H97.5652V37.1241H95.9132ZM100.016 37.1241V28.9803H104.763V30.3531H101.668V32.2844H104.297V33.6572H101.668V35.7513H104.763V37.1241H100.016ZM106.857 37.1241V28.9803H108.509V35.6234H111.604V37.1241H106.857ZM113.232 37.1241V28.9803H114.884V35.6234H117.979V37.1241H113.232ZM119.607 37.1241V28.9803H124.354V30.3531H121.259V32.2844H123.888V33.6572H121.259V35.7513H124.354V37.1241H119.607ZM2.19831 50.1241V41.9803H5.39767C7.98042 41.9803 9.72553 43.8534 9.72553 46.0522C9.72553 48.2511 7.98042 50.1241 5.39767 50.1241H2.19831ZM5.42093 43.4811H3.85034V48.6234H5.42093C6.93336 48.6234 8.02696 47.4949 8.02696 46.0522C8.02696 44.598 6.93336 43.4811 5.42093 43.4811ZM11.4933 50.1241V41.9803H16.24V43.3531H13.1453V45.2844H15.7746V46.6572H13.1453V48.7513H16.24V50.1241H11.4933ZM21.5281 50.1241V41.9803H23.1801V48.6234H26.2748V50.1241H21.5281ZM27.2316 50.1241L30.3146 41.9803H32.4785L35.5615 50.1241H33.8048L33.0253 48.0068H29.7678L28.9883 50.1241H27.2316ZM30.2797 46.599H32.5134L31.3966 43.5393L30.2797 46.599ZM39.3499 43.4811V41.9803H46.0278V43.4811H43.5149V50.1241H41.8628V43.4811H39.3499ZM47.6533 50.1241V41.9803H50.143C51.9346 41.9803 53.0399 42.8994 53.0399 44.4118C53.0399 45.4007 52.5629 46.1337 51.7252 46.5176L54.2731 50.1241H52.3302L50.1546 46.8317H49.3053V50.1241H47.6533ZM50.2361 43.3531H49.3053V45.4589H50.2361C50.9341 45.4589 51.3413 45.0517 51.3413 44.3886C51.3413 43.772 50.9341 43.3531 50.2361 43.3531ZM54.8224 50.1241L57.9054 41.9803H60.0694L63.1524 50.1241H61.3957L60.6162 48.0068H57.3586L56.5792 50.1241H54.8224ZM57.8705 46.599H60.1043L58.9874 43.5393L57.8705 46.599ZM64.5845 50.1241V41.9803H66.7019L70.3433 47.8671V41.9803H71.9954V50.1241H69.878L66.2365 44.2373V50.1241H64.5845ZM73.7146 48.9956L74.9129 47.8904C75.4015 48.5186 76.053 48.8909 76.7161 48.8909C77.3676 48.8909 77.7632 48.5419 77.7632 47.9602C77.7632 46.4594 74.0636 46.8666 74.0636 44.1093C74.0636 42.818 75.1339 41.7476 76.6929 41.7476C77.9144 41.7476 78.8452 42.2944 79.5432 43.1205L78.3333 44.2141C77.8563 43.5974 77.3211 43.1903 76.7045 43.1903C76.1228 43.1903 75.7389 43.5625 75.7389 44.0512C75.7389 45.5287 79.4385 45.1099 79.4385 47.902C79.4152 49.4377 78.2169 50.3568 76.7278 50.3568C75.355 50.3568 74.4359 49.8566 73.7146 48.9956ZM81.3452 50.1241V41.9803H86.0919V43.3531H82.9972V45.2844H85.6265V46.6572H82.9972V50.1241H81.3452ZM91.3274 41.7476C93.8869 41.7476 95.6436 43.7254 95.6436 46.0522C95.6436 48.379 93.8869 50.3568 91.3274 50.3568C88.7563 50.3568 86.9995 48.379 86.9995 46.0522C86.9995 43.7254 88.7563 41.7476 91.3274 41.7476ZM91.3274 48.8095C92.8515 48.8095 93.9451 47.6112 93.9451 46.0522C93.9451 44.4933 92.8515 43.295 91.3274 43.295C89.7917 43.295 88.6981 44.4933 88.6981 46.0522C88.6981 47.6112 89.7917 48.8095 91.3274 48.8095ZM97.4015 50.1241V41.9803H99.8912C101.683 41.9803 102.788 42.8994 102.788 44.4118C102.788 45.4007 102.311 46.1337 101.473 46.5176L104.021 50.1241H102.078L99.9029 46.8317H99.0536V50.1241H97.4015ZM99.9843 43.3531H99.0536V45.4589H99.9843C100.682 45.4589 101.09 45.0517 101.09 44.3886C101.09 43.772 100.682 43.3531 99.9843 43.3531ZM105.242 50.1241V41.9803H107.301L109.291 45.4007L111.28 41.9803H113.34V50.1241H111.688V44.2839L109.873 47.332H108.709L106.894 44.2839V50.1241H105.242ZM114.763 50.1241L117.846 41.9803H120.01L123.093 50.1241H121.336L120.557 48.0068H117.299L116.52 50.1241H114.763ZM117.811 46.599H120.045L118.928 43.5393L117.811 46.599ZM122.87 43.4811V41.9803H129.547V43.4811H127.035V50.1241H125.382V43.4811H122.87ZM131.173 50.1241V41.9803H132.825V50.1241H131.173ZM138.906 41.7476C141.465 41.7476 143.222 43.7254 143.222 46.0522C143.222 48.379 141.465 50.3568 138.906 50.3568C136.334 50.3568 134.578 48.379 134.578 46.0522C134.578 43.7254 136.334 41.7476 138.906 41.7476ZM138.906 48.8095C140.43 48.8095 141.523 47.6112 141.523 46.0522C141.523 44.4933 140.43 43.295 138.906 43.295C137.37 43.295 136.276 44.4933 136.276 46.0522C136.276 47.6112 137.37 48.8095 138.906 48.8095ZM144.98 50.1241V41.9803H147.097L150.739 47.8671V41.9803H152.391V50.1241H150.273L146.632 44.2373V50.1241H144.98ZM2.19831 62.1241V53.9803H4.88577C6.67741 53.9803 7.77101 54.8994 7.77101 56.4118C7.77101 57.9126 6.67741 58.8317 4.88577 58.8317H3.85034V62.1241H2.19831ZM4.95557 55.3531H3.85034V57.4589H4.95557C5.65362 57.4589 6.07244 57.0517 6.07244 56.3886C6.07244 55.772 5.65362 55.3531 4.95557 55.3531ZM14.1146 59.076V53.9803H15.7666V58.9364C15.7666 61.0771 14.5101 62.3568 12.4625 62.3568C10.4266 62.3568 9.17009 61.0771 9.17009 58.9364V53.9803H10.8221V59.076C10.8221 60.1696 11.4387 60.8095 12.4742 60.8095C13.4863 60.8095 14.1146 60.1696 14.1146 59.076ZM17.9933 62.1241V53.9803H20.3899C22.0885 53.9803 23.1239 54.818 23.1239 56.1908C23.1239 56.8539 22.8215 57.424 22.2514 57.7963C23.1123 58.1802 23.5893 58.8782 23.5893 59.7275C23.5893 61.2167 22.4375 62.1241 20.5645 62.1241H17.9933ZM20.4248 55.3531H19.6454V57.1913H20.4248C21.0531 57.1913 21.4254 56.8539 21.4254 56.2606C21.4254 55.6905 21.0531 55.3531 20.4248 55.3531ZM20.6575 58.5641H19.6454V60.7513H20.6575C21.4254 60.7513 21.8907 60.3441 21.8907 59.6577C21.8907 58.9597 21.4254 58.5641 20.6575 58.5641ZM25.4591 62.1241V53.9803H27.1111V60.6234H30.2058V62.1241H25.4591ZM31.8342 62.1241V53.9803H33.4862V62.1241H31.8342ZM42.7662 61.9147C43.3944 62.4848 43.9529 62.6942 44.4764 62.6942C44.6509 62.6942 44.8836 62.6709 45.0581 62.6011V63.9972C44.7905 64.1019 44.5578 64.1485 44.1972 64.1485C43.2897 64.1485 42.4521 63.7762 41.6493 63.0781L40.6837 62.2172C40.3347 62.3103 39.9624 62.3568 39.5668 62.3568C36.9957 62.3568 35.239 60.379 35.239 58.0522C35.239 55.7254 36.9957 53.7476 39.5668 53.7476C42.1263 53.7476 43.8831 55.7254 43.8831 58.0522C43.8831 59.4134 43.2781 60.6583 42.2776 61.4494L42.7662 61.9147ZM39.5668 60.8095C41.0909 60.8095 42.1845 59.6112 42.1845 58.0522C42.1845 56.4933 41.0909 55.295 39.5668 55.295C38.0311 55.295 36.9375 56.4933 36.9375 58.0522C36.9375 59.6112 38.0311 60.8095 39.5668 60.8095ZM50.4437 59.076V53.9803H52.0957V58.9364C52.0957 61.0771 50.8392 62.3568 48.7916 62.3568C46.7557 62.3568 45.4992 61.0771 45.4992 58.9364V53.9803H47.1512V59.076C47.1512 60.1696 47.7678 60.8095 48.8033 60.8095C49.8154 60.8095 50.4437 60.1696 50.4437 59.076ZM54.3224 62.1241V53.9803H59.0691V55.3531H55.9745V57.2844H58.6038V58.6572H55.9745V60.7513H59.0691V62.1241H54.3224Z" fill="white"/>
<path fill-rule="evenodd" clip-rule="evenodd" d="M31.2252 84.1628L30.1432 85.1516H29.864L30.5039 84.0232H31.2252V84.1628ZM30.4458 87.9898H30.2131C29.9222 88.3388 29.5965 88.618 29.2823 88.618C28.9566 88.618 28.7937 88.4202 28.7937 87.9898C28.7937 87.8153 28.817 87.6292 28.8519 87.4663L30.7482 86.8381C31.1205 85.954 30.6784 85.5701 30.1549 85.5701C29.2591 85.5701 28.2353 87.1406 28.2353 88.397C28.2353 88.9903 28.5145 89.316 28.9566 89.316C29.4685 89.3044 30.0037 88.8041 30.4458 87.9898ZM29.795 86.0822C30.0509 86.0822 30.272 86.28 30.1556 86.7337L28.9806 87.0478C29.1667 86.4894 29.5157 86.0822 29.795 86.0822ZM26.0958 86.1052H26.7241L25.7235 88.8507C25.6305 89.0834 25.7584 89.316 26.0027 89.316C26.7124 89.316 27.5617 88.7111 27.8875 87.8502H27.713C27.457 88.2109 26.8986 88.6064 26.4798 88.6762L27.3989 86.1052H28.3412L28.4576 85.7097H27.5385L27.8875 84.7208H27.5268L26.8753 85.7097L26.0958 85.8144V86.1052ZM25.2226 85.5824C25.3506 85.5824 25.5251 85.722 25.4437 85.9779L24.3151 88.7117C24.606 88.6652 24.9085 88.386 25.083 88.1301H25.2692C25.0016 88.8164 24.3966 89.3167 23.873 89.3167C23.7451 89.3167 23.5589 89.1771 23.652 88.9211L24.6991 86.1873C24.4082 86.2338 24.1057 86.513 23.9312 86.769H23.7567C24.0243 86.071 24.6758 85.5824 25.2226 85.5824ZM25.5491 84.8841C25.7818 84.8841 25.9796 84.6979 25.9796 84.4536C25.9796 84.221 25.7818 84.0232 25.5491 84.0232C25.3048 84.0232 25.1187 84.221 25.1187 84.4536C25.1187 84.6863 25.3165 84.8841 25.5491 84.8841ZM20.4648 87.1529C20.7208 86.5945 20.6277 86.3385 20.4648 86.3385C20.3252 86.3385 20.1623 86.4898 19.9995 86.769H19.8249C20.0925 86.1757 20.4416 85.5824 20.8255 85.5824C21.1512 85.5824 21.2676 85.9081 21.2676 86.2687V86.7806C21.3199 86.7197 21.3709 86.6599 21.4207 86.6015L21.4217 86.6004L21.4224 86.5995C21.9139 86.0227 22.2892 85.5824 22.7219 85.5824C23.0593 85.5824 23.2338 85.7918 23.2338 86.1059C23.2338 86.292 23.1756 86.5247 23.0476 86.769L22.082 88.7117C22.3728 88.6652 22.6753 88.386 22.8498 88.1301H23.0244C22.7568 88.8281 22.1053 89.3167 21.5584 89.3167C21.3141 89.3167 21.1745 89.0607 21.2792 88.8513L22.3961 86.6992C22.5241 86.4549 22.5474 86.292 22.3496 86.292C22.082 86.292 21.4537 86.7341 21.1163 87.1412L20.3834 89.0724C20.3019 89.2701 20.2205 89.3167 20.0344 89.3167C19.7319 89.3167 19.5806 89.1189 19.7202 88.8048L20.4648 87.1529ZM19.7077 86.4077C19.8357 85.9656 19.7659 85.5701 19.4285 85.5701C19.0078 85.5701 18.876 85.8479 18.4682 86.7079L18.4396 86.7683V86.2564C18.4396 85.8958 18.3233 85.5701 17.9975 85.5701C17.6136 85.5701 17.2646 86.1634 16.997 86.7567H17.1715C17.3576 86.4891 17.5321 86.3262 17.6717 86.3262C17.8346 86.3262 17.9277 86.5822 17.6717 87.1406L16.9272 88.7925C16.7875 89.1066 16.9388 89.3044 17.2413 89.3044C17.4274 89.3044 17.5089 89.2578 17.5903 89.0601L18.3233 87.1289C18.5327 86.873 18.7188 86.652 18.9515 86.4077H19.7077ZM16.0316 86.7337C16.1479 86.28 15.9269 86.0822 15.6709 86.0822C15.3917 86.0822 15.0427 86.4894 14.8565 87.0478L16.0316 86.7337ZM16.3217 87.9898H16.089C15.7982 88.3388 15.4724 88.618 15.1583 88.618C14.8325 88.618 14.6697 88.4202 14.6697 87.9898C14.6697 87.8153 14.6929 87.6292 14.7278 87.4663L16.6242 86.8381C16.9965 85.954 16.5544 85.5701 16.0309 85.5701C15.135 85.5701 14.1112 87.1406 14.1112 88.397C14.1112 88.9903 14.3904 89.316 14.8325 89.316C15.3445 89.3044 15.8796 88.8041 16.3217 87.9898ZM12.6 86.1052H11.9718V85.8144L12.7513 85.7097L13.4028 84.7208H13.7635L13.4144 85.7097H14.3335L14.2172 86.1052H13.2748L12.3557 88.6762C12.7746 88.6064 13.333 88.2109 13.5889 87.8502H13.7635C13.4377 88.7111 12.5884 89.316 11.8787 89.316C11.6344 89.316 11.5064 89.0834 11.5995 88.8507L12.6 86.1052ZM8.64498 88.2344C8.64498 87.3851 9.58736 86.2451 10.1109 86.2451C10.2272 86.2451 10.3436 86.2567 10.4367 86.2916L9.88985 87.7574C9.57572 88.1413 9.08708 88.6067 8.8544 88.6067C8.72642 88.6067 8.64498 88.4903 8.64498 88.2344ZM11.2397 85.3959L11.5306 85.4191L10.5184 87.7458C10.2741 88.3042 10.3788 88.5601 10.5184 88.5601C10.658 88.5601 10.8325 88.3973 11.0187 88.1297H11.1932C10.9256 88.723 10.5766 89.3163 10.1926 89.3163C9.86687 89.3163 9.66909 88.9673 9.72726 88.3391L9.75053 88.1181L9.68717 88.2066C9.27042 88.7891 8.89331 89.3163 8.50566 89.3163C8.16827 89.3163 7.99376 89.1069 7.99376 88.7928C7.99376 87.4433 9.47131 85.7216 10.8558 85.7216H10.914L11.2397 85.3959ZM8.57474 86.4077C8.70272 85.9656 8.63291 85.5701 8.29552 85.5701C7.87475 85.5701 7.743 85.8479 7.33525 86.7079L7.30661 86.7683V86.2564C7.30661 85.8958 7.19027 85.5701 6.86451 85.5701C6.48058 85.5701 6.13156 86.1634 5.86397 86.7567H6.03848C6.22463 86.4891 6.39914 86.3262 6.52712 86.3262C6.69 86.3262 6.78307 86.5822 6.52712 87.1406L5.78253 88.8041C5.64292 89.1182 5.79416 89.316 6.09665 89.316C6.2828 89.316 6.36424 89.2695 6.44568 89.0717L7.17864 87.1406C7.38805 86.8846 7.5742 86.6636 7.80688 86.4193H8.57474V86.4077ZM3.78058 88.9663L3.71078 89.1757H1L1.06981 88.9547C1.90747 88.8034 2.04708 88.7336 2.39611 87.7913L3.15233 85.7671C3.48973 84.8248 3.41992 84.755 2.68696 84.6038L2.75677 84.3944H6.28194L6.07252 85.5228H5.81657C5.81657 84.8481 5.74677 84.6736 5.10688 84.6736H4.944C4.31576 84.6736 4.23432 84.7667 4.0598 85.2553L3.55953 86.6164H4.29249C4.78112 86.6164 4.96727 86.3139 5.18832 85.9184H5.44428L4.8393 87.5703H4.58334C4.64151 87.0701 4.64151 86.8723 4.18778 86.8723H3.45482L3.11743 87.803C2.75272 88.7717 2.85694 88.7914 3.7254 88.9558C3.74346 88.9593 3.76186 88.9627 3.78058 88.9663Z" fill="white"/>
<path fill-rule="evenodd" clip-rule="evenodd" d="M6.0839 75.2629L5.00194 76.0424V76.054H4.72273L5.3626 75.1233H6.0839V75.2629ZM13.647 80.7191L15.3805 76.1121L15.3223 76.0423L14.124 76.1819V76.3215L14.3567 76.496C14.5554 76.6505 14.5028 76.7945 14.3379 77.2459L14.3102 77.322L12.9839 80.8588C12.8792 81.0682 13.0188 81.3241 13.2631 81.3241C13.8099 81.3241 14.3916 80.8238 14.6592 80.1374H14.4847C14.2986 80.3934 13.9263 80.6726 13.647 80.7191ZM21.5923 77.1708L22.6742 76.1819V76.0423H21.9529L21.313 77.1708H21.5923ZM21.6613 79.9978H21.894C21.4635 80.8238 20.9284 81.3241 20.4165 81.3241C19.9744 81.3241 19.6951 80.9983 19.6951 80.405C19.6951 79.1485 20.7189 77.578 21.6148 77.578C22.1267 77.578 22.5804 77.9619 22.2081 78.8461L20.3001 79.4743C20.2652 79.6372 20.2419 79.8233 20.2419 79.9978C20.2419 80.4283 20.4048 80.6261 20.7306 80.6261C21.0447 80.6261 21.3704 80.3468 21.6613 79.9978ZM21.6026 78.7414C21.7189 78.2993 21.4979 78.1015 21.2419 78.1015C20.9743 78.1015 20.6253 78.5087 20.4275 79.0555L21.6026 78.7414ZM18.1822 78.1245H17.5539V77.8337L18.3334 77.7289L18.9849 76.7401H19.3456L18.9965 77.7289H19.9156L19.7993 78.1245H18.8569L17.9378 80.6956C18.3567 80.6258 18.9151 80.2303 19.171 79.8696H19.3456C19.0198 80.7305 18.1705 81.3355 17.4608 81.3355C17.2165 81.3355 17.0886 81.1028 17.1816 80.8701L18.1822 78.1245ZM16.9023 77.9849C16.9721 77.7289 16.8093 77.5893 16.6697 77.5893C16.1229 77.5893 15.4714 78.0896 15.2038 78.776H15.3783C15.5528 78.52 15.8553 78.2408 16.1461 78.1943L15.0991 80.9283C15.006 81.1842 15.1921 81.3238 15.3201 81.3238C15.8436 81.3238 16.4486 80.8236 16.7162 80.1372H16.5417C16.3672 80.3931 16.0647 80.6723 15.7738 80.7189L16.9023 77.9849ZM17.4384 76.4727C17.4384 76.7054 17.2406 76.9032 17.0079 76.9032C16.7752 76.9032 16.5774 76.7054 16.5774 76.4727C16.5774 76.2401 16.7636 76.0423 17.0079 76.0423C17.2406 76.0423 17.4384 76.2401 17.4384 76.4727ZM11.5644 78.2644C11.0409 78.2644 10.0985 79.4045 10.0985 80.2538C10.0985 80.5097 10.18 80.6261 10.3196 80.6261C10.5406 80.6261 11.0292 80.1607 11.3434 79.7768L11.8902 78.3109C11.7855 78.276 11.6808 78.2644 11.5644 78.2644ZM12.984 77.4384L12.6932 77.4151L12.3674 77.7409H12.3093C10.9248 77.7409 9.44732 79.4627 9.44732 80.8122C9.44732 81.1263 9.62182 81.3358 9.95921 81.3358C10.3469 81.3358 10.724 80.8086 11.1407 80.226L11.204 80.1375L11.1808 80.3585C11.1226 80.9867 11.3204 81.3358 11.6461 81.3358C12.0301 81.3358 12.3791 80.7424 12.6467 80.1491H12.4722C12.286 80.4167 12.1115 80.5796 11.9719 80.5796C11.8323 80.5796 11.7276 80.3236 11.9719 79.7652L12.984 77.4384ZM7.11986 81.2079C6.6196 81.4057 6.27058 81.6383 6.27058 81.999C6.27058 82.3364 6.5847 82.476 7.2362 82.476C8.10875 82.476 8.58574 82.22 8.58574 81.8827C8.58574 81.7314 8.38797 81.6616 7.86444 81.4871C7.52705 81.3824 7.28274 81.2893 7.11986 81.2079ZM7.7008 79.7769C7.46812 79.7769 7.38668 79.5791 7.38668 79.3697C7.38668 78.6949 7.71243 77.8573 8.23596 77.8573C8.46864 77.8573 8.55008 78.055 8.55008 78.2644C8.53844 78.9508 8.21269 79.7769 7.7008 79.7769ZM8.14406 80.8704C8.78393 81.0681 9.17949 81.2194 9.17949 81.6615C9.17949 82.2315 8.13243 82.9063 6.86432 82.8947C6.13138 82.8947 5.50314 82.6969 5.50314 82.2199C5.50314 81.7662 5.92197 81.3939 6.94576 81.0914C6.80615 80.9983 6.74798 80.882 6.74798 80.7191C6.74798 80.4399 7.00393 80.2189 7.44602 80.0095C7.01556 79.9513 6.73635 79.6255 6.73635 79.1485C6.73635 78.4156 7.34132 77.578 8.2953 77.578C8.49308 77.578 8.66759 77.6245 8.8072 77.7176H9.85426L9.73792 78.1131H9.12132C9.15622 78.2178 9.17949 78.3342 9.17949 78.4621C9.17949 79.1718 8.60942 79.9862 7.70197 80.0327C7.46929 80.1607 7.35295 80.3352 7.35295 80.4748C7.35295 80.6391 7.54326 80.6946 7.96386 80.8174C8.01982 80.8337 8.07985 80.8512 8.14406 80.8704ZM4.4553 78.881C4.90902 78.881 4.92066 79.0788 4.85085 79.5791H5.1068L5.71177 77.9271H5.45582C5.23477 78.3226 5.04863 78.6251 4.56 78.6251H3.55948L4.04811 77.2639C4.22262 76.7753 4.30405 76.6822 4.93229 76.6822H5.37438C6.01425 76.6822 6.08406 76.8567 6.08406 77.5315H6.34L6.54942 76.403H2.75673L2.68693 76.6124C3.41987 76.7637 3.48967 76.8335 3.15229 77.7758L2.39608 79.8118C2.04706 80.7541 1.90745 80.8239 1.05817 80.9752L1 81.1962H5.21151L5.96772 79.9979H5.67687C5.18824 80.4749 4.69961 80.917 3.74562 80.917C2.69631 80.917 2.715 80.8656 3.02984 80.0007C3.05011 79.9451 3.07161 79.886 3.09412 79.8234L3.44314 78.8927H4.4553V78.881Z" fill="white"/>
<path fill-rule="evenodd" clip-rule="evenodd" d="M7.93285 68.9107C8.16553 68.9107 8.3633 68.7129 8.3633 68.4802C8.3633 68.2476 8.16553 68.0498 7.93285 68.0498C7.68854 68.0498 7.5024 68.2476 7.5024 68.4802C7.5024 68.7245 7.68854 68.9107 7.93285 68.9107ZM11.3777 70.3761C11.3777 69.8177 11.2381 69.6083 10.8426 69.6083C10.3539 69.6083 9.90022 70.1318 9.44649 70.76L10.4237 68.1426L10.3656 68.0611L9.16728 68.2007V68.3403L9.39996 68.5148C9.60254 68.6724 9.54382 68.8299 9.37125 69.2929L9.35342 69.3408L8.29474 72.1095C8.20167 72.3421 8.09697 72.6213 8.09697 72.6911C8.09697 73.0168 8.53905 73.3309 8.94624 73.3309C9.85368 73.3426 11.3777 71.6674 11.3777 70.3761ZM21.4643 69.1895L22.5462 68.2007V68.0611H21.8249L21.1851 69.1895H21.4643ZM21.5344 72.0164H21.767C21.3249 72.8424 20.7898 73.3426 20.2779 73.331C19.8358 73.331 19.5566 73.0169 19.5566 72.4236C19.5566 71.1672 20.5804 69.5967 21.4762 69.5967C21.9881 69.5967 22.4418 69.9806 22.0695 70.8647L20.1732 71.4929C20.1383 71.6558 20.115 71.8419 20.115 72.0164C20.115 72.4468 20.2779 72.6446 20.6036 72.6446C20.9178 72.6446 21.2435 72.3654 21.5344 72.0164ZM21.4751 70.7601C21.5914 70.318 21.3704 70.1203 21.1144 70.1203C20.8352 70.1203 20.4862 70.5274 20.3 71.0742L21.4751 70.7601ZM18.0418 70.1442H17.4135V69.8534L18.193 69.7487L18.8445 68.7598H19.2052L18.8561 69.7487H19.7752L19.6589 70.1442H18.7165L17.7975 72.7151C18.2163 72.6453 18.7747 72.2498 19.0306 71.8891H19.2052C18.8794 72.75 18.0301 73.3549 17.3205 73.3549C17.0762 73.3549 16.9482 73.1223 17.0413 72.8896L18.0418 70.1442ZM17.09 70.4466C17.218 70.0046 17.1482 69.609 16.8108 69.609C16.39 69.609 16.2583 69.8869 15.8505 70.7469L15.8219 70.8072V70.2954C15.8219 69.9348 15.7056 69.609 15.3798 69.609C14.9959 69.609 14.6469 70.2023 14.3793 70.7956H14.5538C14.74 70.528 14.9145 70.3652 15.0424 70.3652C15.2053 70.3652 15.2984 70.6211 15.0424 71.1795L14.2979 72.8314C14.1583 73.1455 14.3095 73.3433 14.612 73.3433C14.7981 73.3433 14.8796 73.2967 14.961 73.099L15.6939 71.1679C15.9033 70.9119 16.0895 70.6909 16.3222 70.4466H17.09ZM13.4023 70.7601C13.5187 70.318 13.2976 70.1203 13.0417 70.1203C12.7625 70.1203 12.4251 70.5274 12.2273 71.0742L13.4023 70.7601ZM13.6925 72.0164H13.4598C13.1689 72.3654 12.8432 72.6446 12.5291 72.6446C12.2033 72.6446 12.0404 72.4468 12.0404 72.0164C12.0404 71.8419 12.0637 71.6558 12.0986 71.4929L13.9949 70.8647C14.3672 69.9806 13.9251 69.5967 13.4016 69.5967C12.5058 69.5967 11.482 71.1672 11.482 72.4236C11.482 73.0169 11.7612 73.331 12.2033 73.331C12.7152 73.3426 13.2504 72.8424 13.6925 72.0164ZM8.80709 72.4589C8.80709 72.6101 9.07467 72.7846 9.26081 72.7846C10.017 72.7846 10.7267 71.4235 10.715 70.6674C10.715 70.4115 10.5871 70.3068 10.4126 70.3068C10.1334 70.3068 9.62146 70.7255 9.29571 71.1211L8.99323 71.9354C8.88853 72.203 8.80709 72.4124 8.80709 72.4589ZM7.58574 69.609C7.72535 69.609 7.88822 69.7486 7.81842 70.0046L6.70157 72.7383C6.99241 72.6918 7.2949 72.4126 7.4694 72.1567H7.64391C7.37633 72.843 6.77137 73.3433 6.24785 73.3433C6.10824 73.3433 5.9221 73.2037 6.01517 72.9477L7.06222 70.214C6.77137 70.2605 6.46889 70.5397 6.29438 70.7956H6.11987C6.38745 70.1093 7.03895 69.609 7.58574 69.609ZM2.75671 68.3991H5.258L5.18819 68.6202C4.33892 68.7714 4.19932 68.8412 3.8503 69.7835L3.10573 71.8309C2.74508 72.8081 2.83815 72.9244 3.47801 72.9244C4.26856 72.9244 4.78693 72.3499 5.23956 71.8482C5.27319 71.8109 5.30645 71.7741 5.33943 71.7379H5.63028L4.80428 73.2036H1L1.0698 72.9942C1.90744 72.843 2.04705 72.7732 2.39606 71.8309L3.15227 69.7719C3.48965 68.8296 3.41985 68.7598 2.68691 68.6085L2.75671 68.3991Z" fill="white"/>
</svg>
