<svg width="104" height="91" viewBox="0 0 104 91" fill="none" xmlns="http://www.w3.org/2000/svg">
<rect width="44.5946" height="16.2162" transform="translate(1 1)" fill="white"/>
<path d="M14.7018 15.1531C14.7072 15.1531 14.7126 15.1452 14.7126 15.1452C14.7557 15.1134 14.7987 15.0736 14.8364 15.0259C14.831 15.0259 14.8256 15.0259 14.8203 15.018C14.7826 15.0577 14.7395 15.1054 14.7018 15.1531Z" fill="#000091"/>
<path d="M20.6672 13.1432L20.573 13.2243C20.6268 13.2108 20.6672 13.1972 20.6672 13.1432Z" fill="#000091"/>
<path fill-rule="evenodd" clip-rule="evenodd" d="M18.7385 15.1964C18.9113 15.0226 19.0841 14.8382 19.2569 14.6486H19.2516C19.5763 14.28 19.8904 13.9271 20.2674 13.6058C20.3826 13.5005 20.4925 13.411 20.5973 13.3372C20.6126 13.3217 20.6205 13.2987 20.6282 13.2761C20.6362 13.2526 20.6441 13.2295 20.6601 13.2161C20.5854 13.2446 20.526 13.2896 20.4662 13.3349C20.4043 13.3817 20.342 13.4289 20.2622 13.4584C20.2308 13.4584 20.1993 13.4268 20.2308 13.3952C20.3407 13.3162 20.4507 13.2319 20.5554 13.1476H20.5344C20.503 13.1476 20.503 13.116 20.503 13.0844C20.1132 13.0225 19.8139 13.2891 19.5459 13.5277L19.5291 13.5426C19.4874 13.5636 19.448 13.5428 19.4171 13.5264C19.4014 13.5182 19.3879 13.511 19.3773 13.511C19.1402 13.5905 18.9357 13.7371 18.7299 13.8846C18.5403 14.0205 18.3496 14.1572 18.1312 14.2431V14.1799C18.057 14.2055 17.9837 14.2388 17.9102 14.2722C17.8021 14.3214 17.6936 14.3707 17.5814 14.3958C17.3765 14.4434 17.1864 14.4373 17.0022 14.4313C16.9417 14.4294 16.8817 14.4274 16.8222 14.4274C16.4869 14.4607 16.1558 14.5325 15.8251 14.6042L15.7174 14.6276C15.7122 14.6302 15.707 14.6315 15.7017 14.6328C15.6965 14.6341 15.6913 14.6355 15.686 14.6381C15.4871 14.6908 15.3038 14.7645 15.1206 14.8698L15.0996 14.8804C15.0924 14.89 15.0852 14.8986 15.0785 14.9065C15.0706 14.9159 15.0634 14.9245 15.0577 14.933C14.9949 15.0068 14.9373 15.07 14.8483 15.1174C14.7168 15.1835 14.6032 15.2855 14.4914 15.3858C14.443 15.4293 14.3947 15.4726 14.3457 15.5124C14.3352 15.5229 14.3142 15.5282 14.2985 15.5282C14.1362 15.6862 13.9739 15.8442 13.8064 15.9969C13.7959 16.0074 13.7488 16.0127 13.7121 16.0074C13.7121 16.0074 13.7174 16.0074 13.7174 16.0022L13.7331 15.9706L13.8116 15.8442C13.8273 15.8205 13.8417 15.7968 13.8561 15.7731C13.8705 15.7494 13.8849 15.7257 13.9006 15.702C13.9425 15.6388 13.9844 15.5755 14.0315 15.5176C14.042 15.5018 14.042 15.486 14.0315 15.4755C14.021 15.465 14.0053 15.4597 13.9896 15.4597C14.1415 15.3122 14.3195 15.1858 14.5027 15.0752V15.07C14.4818 15.0752 14.4504 15.0594 14.4661 15.0384C14.4814 15.0191 14.494 14.9969 14.5058 14.9761L14.5184 14.9541C14.5211 14.9488 14.5224 14.9449 14.5237 14.9409C14.525 14.937 14.5263 14.933 14.5289 14.9278C14.5263 14.9225 14.5224 14.9185 14.5184 14.9146C14.5145 14.9106 14.5106 14.9067 14.508 14.9014L14.4762 14.9224C14.4383 14.9472 14.3993 14.9728 14.3666 15.0015C14.3435 15.0214 14.3219 15.0487 14.2998 15.0767C14.2518 15.1375 14.201 15.2016 14.1257 15.2016C14.1205 15.2016 14.0943 15.2016 14.0786 15.1964C14.0629 15.1964 14.0524 15.1911 14.0472 15.1858C14.0472 15.1832 14.0472 15.1819 14.0479 15.1812C14.0485 15.1806 14.0498 15.1806 14.0524 15.1806C14.0524 15.1806 14.0577 15.1753 14.0577 15.17C14.0577 15.17 14.0577 15.1648 14.0629 15.1648C14.0655 15.1595 14.0682 15.1556 14.0708 15.1516C14.0734 15.1477 14.076 15.1437 14.0786 15.1384C14.0812 15.1332 14.0839 15.1292 14.0865 15.1253C14.0891 15.1213 14.0917 15.1174 14.0943 15.1121C14.0969 15.1095 14.0983 15.1055 14.0996 15.1016C14.1009 15.0976 14.1022 15.0937 14.1048 15.091L14.1107 15.0802C14.1159 15.0709 14.1221 15.0599 14.1257 15.0489C14.1284 15.0436 14.131 15.0397 14.1336 15.0357C14.1362 15.0318 14.1388 15.0278 14.1415 15.0226C14.1493 15.012 14.1559 15.0002 14.1624 14.9883C14.1689 14.9765 14.1755 14.9646 14.1833 14.9541C14.1886 14.9436 14.1938 14.933 14.2043 14.9225C14.2095 14.912 14.2148 14.9027 14.22 14.8935C14.2252 14.8843 14.2305 14.8751 14.2357 14.8646C14.2514 14.8382 14.2357 14.8172 14.2148 14.8119C14.2724 14.7382 14.3404 14.675 14.4242 14.6276H14.4137C14.486 14.5912 14.5603 14.5486 14.6342 14.5063C14.6778 14.4814 14.7218 14.4561 14.7645 14.4327C14.7802 14.4169 14.7959 14.4011 14.8169 14.3906C14.6441 14.4485 14.487 14.5275 14.3352 14.6328C14.3352 14.6328 14.2933 14.6486 14.2828 14.6592C14.2828 14.6592 14.2514 14.6697 14.2095 14.6328C14.2043 14.6276 14.2043 14.6223 14.2043 14.6118C14.2225 14.5751 14.26 14.5509 14.3006 14.5247C14.33 14.5057 14.3611 14.4856 14.3875 14.459C14.419 14.459 14.4451 14.459 14.4451 14.4906C15.0481 14.0178 15.7917 13.9084 16.5378 13.7986C16.9966 13.7311 17.4564 13.6634 17.8851 13.511C17.9296 13.4794 17.9754 13.4491 18.0212 13.4189C18.067 13.3886 18.1129 13.3583 18.1574 13.3267C18.2337 13.2949 18.3021 13.2405 18.3746 13.1828C18.4462 13.1258 18.5218 13.0657 18.6129 13.0212C18.8537 12.8369 19.037 12.6262 19.1312 12.3155C19.1312 12.2839 19.0998 12.2523 19.0998 12.2523C18.7019 12.6789 18.2464 13.0159 17.7594 13.2635C17.2951 13.5085 16.7976 13.5448 16.3051 13.5807C16.1201 13.5942 15.9357 13.6077 15.7541 13.6322C15.7855 13.569 15.8483 13.569 15.9059 13.569C15.9059 13.4942 15.9418 13.462 15.9878 13.4207C16.0001 13.4097 16.0131 13.398 16.0264 13.3846H16.1154C16.1311 13.3846 16.1389 13.3688 16.1468 13.353C16.1546 13.3372 16.1625 13.3214 16.1782 13.3214C16.241 13.3214 16.33 13.2898 16.2986 13.2898C16.2506 13.2281 16.1808 13.2525 16.1038 13.2795C16.0297 13.3054 15.949 13.3337 15.8745 13.2898C15.9022 13.2594 15.9105 13.223 15.9181 13.1898C15.9263 13.1539 15.9336 13.1219 15.9635 13.1055H16.084C16.084 13.0423 16.1468 12.9843 16.1468 12.9843C16.4199 12.8202 16.6835 12.6768 16.9423 12.5361C17.1151 12.4422 17.2859 12.3493 17.4557 12.2523C17.4214 12.2523 17.3909 12.2664 17.3614 12.2801C17.3143 12.3019 17.2696 12.3227 17.2149 12.2839C17.2463 12.2839 17.2463 12.2615 17.2463 12.2391C17.2463 12.2167 17.2463 12.1943 17.2777 12.1943C17.4742 12.1419 17.649 12.0568 17.8275 11.9699C17.9536 11.9086 18.0815 11.8464 18.2202 11.7941C18.179 11.7941 18.1409 11.8051 18.1038 11.8159C18.0323 11.8367 17.9644 11.8565 17.8851 11.7941C17.9059 11.7836 17.9227 11.7703 17.9393 11.7571C17.9727 11.7305 18.0053 11.7045 18.0683 11.7045V11.615C18.0683 11.5834 18.0998 11.5834 18.1312 11.5834C18.0998 11.5834 18.0683 11.5518 18.0683 11.5518C18.085 11.5183 18.1177 11.5115 18.1542 11.5038C18.1867 11.497 18.222 11.4895 18.2516 11.4623C18.2202 11.4623 18.1626 11.4623 18.1626 11.4307C18.2516 11.3095 18.4034 11.2779 18.5553 11.2463C18.5396 11.2147 18.5095 11.2147 18.4833 11.2147C18.4571 11.2147 18.4349 11.2147 18.4349 11.1831C18.4349 11.1515 18.4663 11.1515 18.4977 11.1515H18.4349C18.3855 11.1267 18.3943 11.0825 18.4003 11.0518C18.402 11.0434 18.4034 11.0361 18.4034 11.0304C18.5264 10.8855 18.5669 10.7144 18.6071 10.5444C18.6268 10.4611 18.6464 10.378 18.6757 10.2983C18.6443 10.2983 18.6129 10.2983 18.6129 10.2667C18.3185 10.5935 17.8518 10.7173 17.4086 10.835L17.3667 10.8461H17.2149C17.0631 10.9093 16.8484 10.9093 16.6966 10.8145C16.6244 10.7766 16.5729 10.7292 16.5172 10.6781C16.4801 10.6439 16.4411 10.608 16.3929 10.5722C16.1468 10.4195 15.9059 10.2983 15.6337 10.2035C14.8745 9.96125 14.0839 9.83485 13.2932 9.86645C13.514 9.745 13.7484 9.69671 13.986 9.64777C14.109 9.62243 14.2329 9.59692 14.3561 9.56098C14.4339 9.53808 14.5109 9.51446 14.5875 9.49096C15.0218 9.35782 15.4431 9.22865 15.9059 9.25551C15.8454 9.234 15.7678 9.24178 15.6964 9.24893C15.6628 9.25229 15.6307 9.25551 15.6023 9.25551C15.2523 9.22944 14.8987 9.30737 14.5299 9.38868C14.4517 9.4059 14.3729 9.42328 14.2933 9.43985C14.1488 9.46992 14.0115 9.5131 13.8739 9.55635C13.7223 9.604 13.5704 9.65175 13.4084 9.68212C13.3382 9.70634 13.2818 9.74759 13.2269 9.78777C13.1385 9.85242 13.0539 9.91429 12.9215 9.89805V9.80325C13.2252 9.43458 13.5917 9.07118 14.0786 9.03958C14.5493 8.96292 14.9931 9.01752 15.4561 9.07448C15.5339 9.08405 15.6122 9.09369 15.6913 9.10278C16.0708 9.13332 16.4259 9.21798 16.8085 9.30921L16.8484 9.31871C16.9322 9.31871 16.9793 9.39246 17.0249 9.46389C17.062 9.52192 17.0981 9.57842 17.1521 9.59258C17.2266 9.61829 17.3012 9.62308 17.3757 9.62788C17.4844 9.63487 17.5931 9.64186 17.7018 9.71372C17.7018 9.69245 17.6983 9.67178 17.6948 9.65131C17.6878 9.61093 17.681 9.57132 17.7018 9.52938C17.7694 9.46143 17.8468 9.47966 17.9231 9.49761C17.9827 9.51165 18.0417 9.52553 18.0945 9.49778C18.2606 9.39473 18.1048 9.23654 17.9489 9.0782C17.8738 9.00186 17.7986 8.92549 17.7594 8.85524C17.7594 8.82364 17.7908 8.79204 17.7908 8.79204C17.8596 8.85369 17.9237 8.91748 17.9872 8.98072C18.1461 9.13901 18.3016 9.29385 18.5186 9.40298C18.6705 9.46618 19.037 9.55572 18.9741 9.37138C18.8666 9.13264 18.6829 8.9256 18.4974 8.71659C18.421 8.63051 18.3443 8.54408 18.2725 8.45497V8.33384C18.2248 8.33384 18.2133 8.3156 18.1991 8.29299C18.1946 8.28583 18.1898 8.27823 18.1835 8.27064V8.1495C18.1068 8.10922 18.0896 8.0454 18.0723 7.98123C18.0625 7.94472 18.0526 7.9081 18.0317 7.87563C17.9792 7.79058 17.9754 7.68592 17.9716 7.57804C17.9685 7.4922 17.9653 7.40431 17.9374 7.32263C17.8746 7.13829 17.8484 6.98556 17.817 6.80122C17.7829 6.61264 17.7454 6.43232 17.7087 6.25579C17.6439 5.94425 17.5815 5.64445 17.5448 5.33181C17.4963 4.88495 17.722 4.50702 17.9526 4.12069C18.021 4.00616 18.0899 3.89088 18.1521 3.77286C18.3668 3.40419 18.6076 3.04079 19.0056 2.79325C19.0924 2.43368 19.3286 2.13423 19.5637 1.83626L19.5815 1.81364C19.8135 1.52448 20.2009 1.34771 20.4865 1.21743L20.5187 1.2027C20.9428 1.0131 21.325 0.891968 21.3303 0.891968H0.297852V17.1082H15.22C15.6191 16.8189 16.0157 16.6363 16.4879 16.419C16.7033 16.3199 16.9345 16.2135 17.1887 16.0864C17.2426 16.0594 17.3066 16.0279 17.3776 15.9929C17.8037 15.7832 18.4827 15.4492 18.7385 15.1964ZM14.0036 13.0086C13.9444 13.0145 13.8816 13.0208 13.9053 12.9732C13.9273 12.8666 14.0364 12.8347 14.143 12.8035C14.1886 12.7901 14.2338 12.7769 14.2714 12.758L14.2887 12.7491L14.3012 12.7424C14.3603 12.7111 14.4326 12.6727 14.4859 12.695C14.5219 12.7462 14.5665 12.7594 14.6098 12.7722C14.642 12.7818 14.6736 12.7911 14.7004 12.8157C14.5872 12.9293 14.4552 12.9405 14.3213 12.9519C14.2323 12.9594 14.1426 12.967 14.057 13.0047C14.0416 13.0047 14.0227 13.0066 14.0036 13.0086ZM9.37131 12.2679C9.37131 12.2995 9.40272 12.3311 9.40272 12.3311C10.1357 11.5043 10.8007 10.7985 11.7432 10.2139C11.7684 10.2033 11.759 10.2165 11.7465 10.2341C11.7279 10.2602 11.7025 10.296 11.7746 10.2771C12.0866 10.206 12.2267 9.93867 12.363 9.67861C12.3983 9.61136 12.4333 9.5446 12.4709 9.48184C12.6139 9.24927 12.817 9.10027 13.0216 8.95013C13.1692 8.84186 13.3176 8.73299 13.4448 8.59176C13.4448 8.62336 13.4448 8.65496 13.4134 8.68656C13.4448 8.71816 13.4762 8.71816 13.5076 8.71816C13.5629 8.67649 13.6232 8.65924 13.681 8.64271C13.7546 8.62163 13.8243 8.60172 13.8741 8.53383C13.6333 8.43903 13.3244 8.40743 13.0835 8.50223C12.4448 8.8077 11.9002 9.2975 11.3819 9.85051C11.0677 10.1823 10.7431 10.493 10.3452 10.709C10.0729 11.2567 9.76923 11.7465 9.37131 12.2679ZM11.9275 10.3092C11.911 10.3421 11.8946 10.3592 11.879 10.3756C11.8647 10.3905 11.851 10.4049 11.8385 10.4299C11.8071 10.4929 11.7758 10.5191 11.7182 10.5506C11.6868 10.5506 11.6554 10.5506 11.6554 10.5191C11.6868 10.3984 11.7758 10.2777 11.8961 10.2462C11.9275 10.2514 11.9275 10.2829 11.9275 10.3092ZM13.2663 14.9863C13.2925 14.96 13.3239 14.9284 13.3396 14.8968C13.3657 14.8336 13.2036 14.8494 13.1774 14.8652C13.1537 14.8843 13.1386 14.9034 13.1203 14.9265L13.1147 14.9337C13.0928 14.9588 13.0673 14.982 13.0414 15.0056C13.0238 15.0216 13.006 15.0378 12.9891 15.0548C12.9159 15.1285 12.8426 15.2023 12.7642 15.2708C12.7119 15.3181 12.8793 15.3392 12.9159 15.3076C12.9577 15.276 12.9943 15.2392 13.031 15.2023C13.0449 15.2023 13.0589 15.1999 13.0682 15.1984L13.0746 15.1974L13.078 15.197C13.1647 15.1679 13.2293 15.1075 13.2921 15.0488L13.3082 15.0337C13.3291 15.0127 13.303 14.9916 13.2663 14.9863ZM12.793 14.6439C12.7924 14.644 12.792 14.6441 12.7917 14.6444C12.791 14.6451 12.791 14.6464 12.791 14.649C12.7589 14.671 12.7272 14.6935 12.6956 14.7159C12.6137 14.7738 12.5323 14.8314 12.4454 14.8807C12.3624 14.9275 12.2772 14.968 12.1913 15.0087C12.1418 15.0322 12.092 15.0559 12.0423 15.0809C12.0423 15.0809 12.0423 15.0756 12.037 15.0756C12.0266 15.0598 12.0056 15.0546 11.9847 15.0651C11.8695 15.1283 11.77 15.2126 11.681 15.3021C11.6653 15.3126 11.6496 15.3284 11.6391 15.3442L11.592 15.3916V15.3969C11.5711 15.418 11.5501 15.439 11.5239 15.4706C11.5185 15.4761 11.5143 15.4816 11.5103 15.4868C11.5027 15.4967 11.4957 15.5059 11.482 15.5128C11.4611 15.5233 11.4087 15.5233 11.414 15.4917V15.4864C11.3983 15.497 11.3773 15.5075 11.3616 15.5128C11.3538 15.518 11.3459 15.522 11.3381 15.5259C11.3302 15.5299 11.3224 15.5338 11.3145 15.5391C11.3093 15.5338 11.2988 15.5338 11.2936 15.5338C11.2883 15.5338 11.2778 15.5338 11.2726 15.5391C11.2604 15.5496 11.2482 15.5596 11.236 15.5695C11.2115 15.5894 11.1871 15.6093 11.1627 15.6339C11.0998 15.6918 11.0422 15.755 10.9846 15.8235C10.9846 15.8235 10.9846 15.8288 10.9794 15.8288C10.9794 15.8314 10.9781 15.8327 10.9768 15.834C10.9755 15.8353 10.9742 15.8367 10.9742 15.8393L10.9637 15.8498C10.9617 15.8518 10.9605 15.8538 10.9594 15.8556C10.9577 15.8583 10.9565 15.8604 10.9532 15.8604L10.948 15.8656C10.9428 15.8762 10.9375 15.8867 10.927 15.8972C10.9218 15.9025 10.9113 15.9078 10.9009 15.9078C10.8956 15.9025 10.8904 15.8972 10.8904 15.892C10.8878 15.8893 10.8865 15.8867 10.8852 15.8841C10.8838 15.8814 10.8825 15.8788 10.8799 15.8762C10.8747 15.8683 10.8708 15.8604 10.8668 15.8525C10.8629 15.8446 10.859 15.8367 10.8537 15.8288V15.8235C10.8537 15.8209 10.8524 15.8182 10.8511 15.8156C10.8498 15.813 10.8485 15.8103 10.8485 15.8077L10.9428 15.6971L10.948 15.6918C10.9532 15.6866 10.9584 15.68 10.9637 15.6734C10.9689 15.6668 10.9742 15.6602 10.9794 15.655C10.9873 15.6444 10.9964 15.6339 11.0056 15.6234C11.0147 15.6128 11.0239 15.6023 11.0318 15.5918C11.0344 15.5865 11.037 15.5825 11.0396 15.5786C11.0422 15.5746 11.0449 15.5707 11.0475 15.5654C11.0789 15.5233 11.1103 15.4812 11.1417 15.4338V15.4285C11.1469 15.4232 11.1522 15.418 11.1522 15.4074C11.1679 15.3864 11.1836 15.3653 11.1941 15.3442L11.2255 15.281V15.2758L11.2307 15.2705C11.2307 15.2679 11.232 15.2665 11.2333 15.2652C11.2347 15.2639 11.236 15.2626 11.236 15.26C11.2412 15.2468 11.2464 15.235 11.2517 15.2231C11.2569 15.2113 11.2621 15.1994 11.2674 15.1862V15.181L11.2726 15.1599C11.2752 15.1546 11.2765 15.1493 11.2778 15.1441C11.2792 15.1388 11.2805 15.1335 11.2831 15.1283V15.123C11.2857 15.1151 11.287 15.1072 11.2883 15.0993C11.2896 15.0914 11.2909 15.0835 11.2936 15.0756C11.2936 15.0704 11.2936 15.0598 11.2883 15.0546C11.3197 14.9966 11.3616 14.9439 11.4087 14.8913C11.4061 14.8913 11.4035 14.8926 11.4009 14.8939C11.3994 14.8947 11.3979 14.8954 11.3964 14.8959C11.3953 14.8963 11.3942 14.8965 11.393 14.8965C11.3697 14.9112 11.3497 14.9307 11.3292 14.9506C11.313 14.9665 11.2964 14.9826 11.2778 14.9966C11.2464 15.023 11.1836 14.9808 11.2255 14.9492C11.2517 14.9282 11.2726 14.9071 11.2935 14.886C11.2935 14.886 11.2936 14.8807 11.2988 14.8807C11.3197 14.8619 11.3397 14.8404 11.3599 14.8189C11.3904 14.7863 11.4212 14.7533 11.4559 14.728C11.4925 14.7017 11.5187 14.6806 11.5501 14.6543C11.5553 14.649 11.5606 14.6437 11.5658 14.6437C11.5868 14.6174 11.6077 14.5911 11.6339 14.5647C11.6339 14.5647 11.6391 14.5647 11.6391 14.5595C11.8189 14.3851 12.0716 14.3236 12.3295 14.2608C12.4921 14.2212 12.6569 14.1811 12.8067 14.1118C12.8914 14.0766 12.9858 14.0904 13.079 14.1041C13.1531 14.115 13.2264 14.1258 13.2937 14.1118C13.3827 14.1118 13.4769 14.1118 13.5659 14.175C13.3589 14.2853 13.1613 14.4113 12.9658 14.5361C12.9092 14.5722 12.8527 14.6083 12.7962 14.6437C12.7948 14.6437 12.7937 14.6437 12.793 14.6439ZM13.4472 12.4973C13.4227 12.5001 13.4069 12.5019 13.4205 12.5156C13.5095 12.6052 13.6927 12.5736 13.8184 12.5051C13.9074 12.4419 14.0017 12.4419 14.1221 12.4419C14.1535 12.4419 14.1535 12.384 14.1535 12.3524C14.2425 12.384 14.3053 12.384 14.3943 12.384C15.1221 12.2312 15.8237 12.0785 16.4939 11.7414C15.8158 11.2174 14.9798 10.984 14.1609 10.7554C14.0251 10.7174 13.8897 10.6796 13.7556 10.6407C13.785 10.6407 13.8145 10.6505 13.8442 10.6604C13.9041 10.6803 13.9648 10.7006 14.0278 10.6407C13.9448 10.5744 13.8523 10.5617 13.7607 10.5492C13.6849 10.5388 13.6097 10.5285 13.5409 10.4879C13.5481 10.4879 13.5566 10.4896 13.5659 10.4914C13.5972 10.4974 13.6371 10.5051 13.6613 10.4563C13.5023 10.3763 13.3432 10.3492 13.1827 10.3217C13.1001 10.3076 13.0171 10.2935 12.9335 10.272C13.0854 10.2404 13.1796 10.1193 13.1796 9.96653C13.1796 9.93493 13.1168 9.93493 13.0854 9.93493C12.7241 10.1193 12.478 10.4563 12.3262 10.8513C12.4631 10.9319 12.6106 10.9226 12.7552 10.9134C12.8374 10.9082 12.9186 10.9031 12.9964 10.9145C12.9277 10.9798 12.8285 10.9975 12.7331 11.0145C12.6976 11.0208 12.6626 11.0271 12.6299 11.0357C12.5356 11.0567 12.4466 11.1252 12.478 11.1884C12.499 11.2147 12.5199 11.2253 12.5461 11.2305C12.478 11.2516 12.4152 11.2832 12.3576 11.3411C12.4438 11.409 12.5327 11.3959 12.6204 11.383C12.6552 11.3778 12.6899 11.3727 12.7241 11.3727C12.7241 11.411 12.7492 11.424 12.7753 11.4375C12.7887 11.4445 12.8024 11.4515 12.8131 11.4623C12.6613 11.5202 12.5408 11.6466 12.5094 11.7361C12.4719 11.8274 12.4026 11.8867 12.3339 11.9454C12.2876 11.9851 12.2416 12.0244 12.2058 12.0732V12.168C12.1046 12.2577 12.0006 12.3378 11.8981 12.4167C11.6875 12.579 11.4829 12.7366 11.3209 12.9633C11.3523 12.9633 11.3523 12.9949 11.3523 13.0265C11.3233 13.0702 11.2821 13.1005 11.243 13.1292C11.1973 13.1628 11.1546 13.1942 11.1376 13.2424C11.1376 13.274 11.1376 13.3056 11.1691 13.3056C11.3612 13.2421 11.5274 13.1352 11.6904 13.0304C11.8383 12.9353 11.9835 12.8419 12.1429 12.7842C12.2732 12.7529 12.3867 12.6938 12.4973 12.6362C12.5912 12.5872 12.6832 12.5394 12.7817 12.5104C12.8576 12.4946 12.9414 12.4722 13.0252 12.4498C13.1089 12.4274 13.1927 12.405 13.2686 12.3892C13.2686 12.4208 13.2686 12.4524 13.3 12.4524H13.5409C13.5261 12.4882 13.4793 12.4936 13.4472 12.4973Z" fill="#000091"/>
<path d="M44.8919 0.891968H27.4501C27.4501 0.891968 27.4817 0.89724 27.6135 0.965774C27.7559 1.03958 27.9404 1.13974 28.0511 1.19774C28.2779 1.31372 28.494 1.46133 28.6364 1.68802C28.6997 1.77764 28.7893 1.96215 28.7313 2.08341C28.668 2.23629 28.6364 2.48407 28.4835 2.54206C28.299 2.63695 28.0564 2.63695 27.8402 2.60532C27.719 2.60532 27.5977 2.57369 27.4712 2.54206C27.9299 2.72657 28.3622 2.94272 28.668 3.36974C28.6997 3.433 28.8209 3.45936 28.9422 3.45936C28.9738 3.45936 28.9738 3.52262 28.9738 3.54898C28.9106 3.61224 28.8526 3.64387 28.8842 3.7335H28.9738C29.1268 3.67023 29.0951 3.36447 29.3113 3.45936C29.4642 3.54898 29.5275 3.76513 29.4326 3.91801C29.3113 4.03926 29.19 4.13416 29.0635 4.22378C29.0318 4.28704 29.0318 4.37666 29.0635 4.43992C29.1531 4.56118 29.1848 4.68243 29.2164 4.80895C29.3113 5.0251 29.3377 5.26761 29.4326 5.48375C29.5538 5.9424 29.6751 6.40105 29.6487 6.86498C29.6487 7.10748 29.5275 7.32363 29.6171 7.5714C29.6804 7.81391 29.8333 7.99842 29.9546 8.21457C30.0758 8.39908 30.1971 8.52034 30.292 8.70485C30.4765 9.01062 30.814 9.31639 30.6611 9.68542C30.5714 9.90156 30.234 9.86993 30.0178 9.99119C29.8333 10.1441 29.9862 10.3918 30.0811 10.5447C30.234 10.8189 29.8966 11.0034 29.6804 11.0983C29.7436 11.1932 29.8649 11.1615 29.8966 11.2195C29.9282 11.3724 30.0811 11.462 29.9862 11.6202C29.8649 11.8047 29.4958 11.8943 29.6804 12.1737C29.8016 12.3899 29.7226 12.6271 29.6487 12.8485C29.5591 13.1227 29.3113 13.2439 29.0951 13.3072C28.9106 13.3704 28.6944 13.3704 28.5151 13.3388C28.4519 13.3072 28.3939 13.2755 28.3306 13.2755C27.8086 13.2123 27.2866 13.0647 26.7699 13.0647C26.617 13.0963 26.4641 13.1227 26.3428 13.1859C26.2057 13.2861 26.0792 13.3968 25.9737 13.5128C25.9737 13.5128 25.9737 13.5128 25.9685 13.5181C25.9474 13.5444 25.921 13.5655 25.8999 13.5919C25.8894 13.6077 25.8736 13.6235 25.863 13.6393C25.8525 13.6498 25.8472 13.6604 25.8366 13.6709C25.747 13.7816 25.6679 13.9029 25.5941 14.0242C25.5888 14.0347 25.5836 14.04 25.5783 14.0452C25.573 14.0611 25.5625 14.0716 25.5519 14.0874C25.4517 14.2719 25.3779 14.4617 25.3199 14.6515C25.109 15.3527 25.2039 15.9536 25.3516 16.1013C25.3937 16.1434 26.3639 16.4439 27.0388 16.7444C27.3552 16.8868 27.5766 16.9922 27.7611 17.1082H44.8866V0.891968H44.8919Z" fill="#E1000F"/>
<path d="M28.4862 6.80643C28.6075 6.83802 28.7921 6.83802 28.7921 6.9012C28.7288 7.14339 28.3649 7.20657 28.1803 7.45402H28.0854C27.9957 7.5172 28.0221 7.66989 27.9324 7.66989C27.8428 7.6383 27.7479 7.66989 27.6582 7.70148C27.7795 7.82257 27.9324 7.91734 28.117 7.88575C28.1487 7.88575 28.2067 7.94893 28.2067 8.00684C28.2067 8.00684 28.2383 8.00684 28.27 7.97525C28.3016 7.97525 28.3332 7.97525 28.3332 8.00684V8.12794C28.2436 8.24903 28.0854 8.19112 27.9641 8.21744C28.212 8.28062 28.4545 8.28062 28.6708 8.21744C28.8553 8.15426 28.6708 7.84889 28.7921 7.69621C28.7288 7.69621 28.7921 7.60144 28.7288 7.60144C28.7921 7.53826 28.8501 7.44876 28.9134 7.41717C28.9766 7.41717 29.0663 7.38558 29.0979 7.3224C29.0979 7.25922 28.9766 7.23289 29.003 7.16971C29.1876 7.04862 29.3405 6.86435 29.2772 6.68007C29.2456 6.5853 29.003 6.5853 28.8501 6.52739C28.6971 6.46947 28.5126 6.52739 28.328 6.55898C28.175 6.55898 28.0221 6.65375 27.8692 6.68007C27.6529 6.74325 27.4684 6.86435 27.2891 6.98544C27.5053 6.89594 27.7162 6.86435 27.9641 6.80117C28.1487 6.80643 28.3016 6.76431 28.4862 6.80643" fill="#808080"/>
<path d="M2.67027 36.0811V24.7297H6.14054C8.63784 24.7297 10.1784 26.0108 10.1784 28.1189C10.1784 29.4973 9.51351 30.5189 8.34595 31.054L11.8973 36.0811H9.18919L6.15676 31.4919H4.97297V36.0811H2.67027ZM6.27027 26.6432H4.97297V29.5784H6.27027C7.24324 29.5784 7.81081 29.0108 7.81081 28.0865C7.81081 27.227 7.24324 26.6432 6.27027 26.6432ZM17.9288 23.7567H15.837L17.6694 21.5675H20.037L17.9288 23.7567ZM13.5991 36.0811V24.7297H20.2153V26.6432H15.9018V29.3351H19.5667V31.2486H15.9018V34.1675H20.2153V36.0811H13.5991ZM23.1344 36.0811V24.7297H26.8803C29.3776 24.7297 30.9019 26.0108 30.9019 28.1189C30.9019 30.2108 29.3776 31.4919 26.8803 31.4919H25.4371V36.0811H23.1344ZM26.9776 26.6432H25.4371V29.5784H26.9776C27.9506 29.5784 28.5344 29.0108 28.5344 28.0865C28.5344 27.227 27.9506 26.6432 26.9776 26.6432ZM39.744 31.8324V24.7297H42.0467V31.6378C42.0467 34.6216 40.2953 36.4054 37.4413 36.4054C34.6034 36.4054 32.8521 34.6216 32.8521 31.6378V24.7297H35.1548V31.8324C35.1548 33.3567 36.0142 34.2486 37.4575 34.2486C38.8683 34.2486 39.744 33.3567 39.744 31.8324ZM45.1504 36.0811V24.7297H48.491C50.8585 24.7297 52.3018 25.8973 52.3018 27.8108C52.3018 28.7351 51.8802 29.5297 51.0856 30.0486C52.2856 30.5838 52.9504 31.5567 52.9504 32.7405C52.9504 34.8162 51.345 36.0811 48.7342 36.0811H45.1504ZM48.5396 26.6432H47.4531V29.2054H48.5396C49.4153 29.2054 49.9342 28.7351 49.9342 27.9081C49.9342 27.1135 49.4153 26.6432 48.5396 26.6432ZM48.8639 31.1189H47.4531V34.1675H48.8639C49.9342 34.1675 50.5829 33.6 50.5829 32.6432C50.5829 31.6702 49.9342 31.1189 48.8639 31.1189ZM55.5567 36.0811V24.7297H57.8594V33.9892H62.1729V36.0811H55.5567ZM64.4427 36.0811V24.7297H66.7454V36.0811H64.4427ZM79.6803 35.7892C80.556 36.5838 81.3344 36.8756 82.0641 36.8756C82.3074 36.8756 82.6317 36.8432 82.8749 36.7459V38.6919C82.5019 38.8378 82.1776 38.9027 81.6749 38.9027C80.4101 38.9027 79.2425 38.3838 78.1236 37.4108L76.7776 36.2108C76.2911 36.3405 75.7722 36.4054 75.2209 36.4054C71.6371 36.4054 69.1884 33.6486 69.1884 30.4054C69.1884 27.1621 71.6371 24.4054 75.2209 24.4054C78.7884 24.4054 81.2371 27.1621 81.2371 30.4054C81.2371 32.3027 80.3938 34.0378 78.9992 35.1405L79.6803 35.7892ZM75.2209 34.2486C77.3452 34.2486 78.8695 32.5784 78.8695 30.4054C78.8695 28.2324 77.3452 26.5621 75.2209 26.5621C73.0803 26.5621 71.556 28.2324 71.556 30.4054C71.556 32.5784 73.0803 34.2486 75.2209 34.2486ZM90.3816 31.8324V24.7297H92.6843V31.6378C92.6843 34.6216 90.933 36.4054 88.0789 36.4054C85.2411 36.4054 83.4897 34.6216 83.4897 31.6378V24.7297H85.7924V31.8324C85.7924 33.3567 86.6519 34.2486 88.0952 34.2486C89.506 34.2486 90.3816 33.3567 90.3816 31.8324ZM95.7881 36.0811V24.7297H102.404V26.6432H98.0908V29.3351H101.756V31.2486H98.0908V34.1675H102.404V36.0811H95.7881ZM2.67027 53.0811V41.7297H9.28649V43.6432H4.97297V46.3351H8.63784V48.2486H4.97297V53.0811H2.67027ZM11.5563 53.0811V41.7297H15.0265C17.5238 41.7297 19.0644 43.0108 19.0644 45.1189C19.0644 46.4973 18.3995 47.5189 17.2319 48.054L20.7833 53.0811H18.0752L15.0427 48.4919H13.859V53.0811H11.5563ZM15.1563 43.6432H13.859V46.5784H15.1563C16.1292 46.5784 16.6968 46.0108 16.6968 45.0865C16.6968 44.227 16.1292 43.6432 15.1563 43.6432ZM21.549 53.0811L25.8463 41.7297H28.8625L33.1598 53.0811H30.7112L29.6247 50.1297H25.0841L23.9976 53.0811H21.549ZM25.7976 48.1675H28.9112L27.3544 43.9027L25.7976 48.1675ZM35.1559 53.0811V41.7297H38.1073L43.1829 49.9351V41.7297H45.4856V53.0811H42.5343L37.4586 44.8756V53.0811H35.1559ZM53.9631 51.2486C55.2604 51.2486 56.282 50.6162 56.9306 49.6919L58.7468 51.0865C57.8712 52.2865 56.509 53.1297 54.8549 53.3405L53.4441 55.6919H51.4009L52.8279 53.3081C49.8766 52.7892 47.9306 50.2919 47.9306 47.4054C47.9306 44.1621 50.3793 41.4054 53.9631 41.4054C56.0225 41.4054 57.709 42.3297 58.7468 43.7081L56.9306 45.1189C56.282 44.1946 55.2604 43.5621 53.9631 43.5621C51.8225 43.5621 50.2982 45.2324 50.2982 47.4054C50.2982 49.5784 51.8225 51.2486 53.9631 51.2486ZM59.4823 53.0811L63.7796 41.7297H66.7958L71.0931 53.0811H68.6444L67.5579 50.1297H63.0174L61.9309 53.0811H59.4823ZM63.7309 48.1675H66.8444L65.2877 43.9027L63.7309 48.1675ZM73.0892 53.0811V41.7297H75.3919V53.0811H73.0892ZM77.7863 51.5081L79.4566 49.9675C80.1377 50.8432 81.0458 51.3621 81.9701 51.3621C82.8782 51.3621 83.4296 50.8756 83.4296 50.0648C83.4296 47.9729 78.2728 48.5405 78.2728 44.6973C78.2728 42.8973 79.7647 41.4054 81.9377 41.4054C83.6404 41.4054 84.9377 42.1675 85.9106 43.3189L84.2242 44.8432C83.5593 43.9838 82.8133 43.4162 81.9539 43.4162C81.1431 43.4162 80.6079 43.9351 80.6079 44.6162C80.6079 46.6756 85.7647 46.0919 85.7647 49.9838C85.7323 52.1243 84.062 53.4054 81.9863 53.4054C80.0728 53.4054 78.7917 52.7081 77.7863 51.5081ZM88.4224 53.0811V41.7297H95.0386V43.6432H90.7251V46.3351H94.39V48.2486H90.7251V51.1675H95.0386V53.0811H88.4224Z" fill="black"/>
<path fill-rule="evenodd" clip-rule="evenodd" d="M43.1297 83.4595L41.6216 84.8378H41.2324L42.1243 83.2649H43.1297V83.4595ZM42.0433 88.7938H41.7189C41.3135 89.2802 40.8595 89.6694 40.4216 89.6694C39.9675 89.6694 39.7405 89.3938 39.7405 88.7938C39.7405 88.5506 39.7729 88.2911 39.8216 88.0641L42.4649 87.1885C42.9838 85.9561 42.3676 85.421 41.6378 85.421C40.3892 85.421 38.9621 87.6101 38.9621 89.3613C38.9621 90.1883 39.3513 90.6423 39.9675 90.6423C40.6811 90.6261 41.427 89.9289 42.0433 88.7938ZM41.1361 86.1349C41.4929 86.1349 41.801 86.4106 41.6389 87.043L40.001 87.4808C40.2604 86.7025 40.7469 86.1349 41.1361 86.1349ZM35.9801 86.1669H36.8557L35.4611 89.9938C35.3314 90.3181 35.5098 90.6424 35.8503 90.6424C36.8395 90.6424 38.0233 89.7992 38.4774 88.5992H38.2341C37.8774 89.1019 37.099 89.6532 36.5152 89.7505L37.7963 86.1669H39.1098L39.272 85.6156H37.9909L38.4774 84.2373H37.9747L37.0666 85.6156L35.9801 85.7616V86.1669ZM34.7629 85.4382C34.9413 85.4382 35.1846 85.6327 35.071 85.9895L33.498 89.8001C33.9035 89.7352 34.3251 89.346 34.5683 88.9893H34.8278C34.4548 89.946 33.6116 90.6433 32.8818 90.6433C32.7034 90.6433 32.444 90.4487 32.5737 90.092L34.0332 86.2814C33.6278 86.3462 33.2061 86.7354 32.9629 87.0921H32.7197C33.0926 86.1192 34.0008 85.4382 34.7629 85.4382ZM35.2181 84.4648C35.5424 84.4648 35.8181 84.2054 35.8181 83.8649C35.8181 83.5406 35.5424 83.2649 35.2181 83.2649C34.8775 83.2649 34.6181 83.5406 34.6181 83.8649C34.6181 84.1892 34.8937 84.4648 35.2181 84.4648ZM28.1312 87.6272C28.488 86.8489 28.3583 86.4922 28.1312 86.4922C27.9366 86.4922 27.7096 86.703 27.4826 87.0921H27.2393C27.6123 86.2651 28.0988 85.4382 28.6339 85.4382C29.088 85.4382 29.2502 85.8922 29.2502 86.3949V87.1083C29.3232 87.0235 29.3942 86.9401 29.4636 86.8586L29.4649 86.8571L29.4659 86.8559C30.151 86.052 30.6741 85.4382 31.2772 85.4382C31.7475 85.4382 31.9908 85.73 31.9908 86.1679C31.9908 86.4273 31.9097 86.7516 31.7313 87.0921L30.3853 89.8001C30.7907 89.7352 31.2124 89.346 31.4556 88.9893H31.6989C31.3259 89.9622 30.4178 90.6433 29.6556 90.6433C29.315 90.6433 29.1204 90.2865 29.2664 89.9947L30.8232 86.9948C31.0016 86.6543 31.034 86.4273 30.7583 86.4273C30.3853 86.4273 29.5096 87.0435 29.0394 87.611L28.0177 90.3027C27.9042 90.5784 27.7907 90.6433 27.5312 90.6433C27.1096 90.6433 26.8988 90.3676 27.0934 89.9298L28.1312 87.6272ZM27.076 86.5885C27.2543 85.9723 27.157 85.421 26.6868 85.421C26.1003 85.421 25.9166 85.8083 25.3483 87.007L25.3084 87.0912V86.3777C25.3084 85.875 25.1462 85.421 24.6921 85.421C24.157 85.421 23.6705 86.248 23.2975 87.075H23.5408C23.8002 86.702 24.0435 86.475 24.2381 86.475C24.4651 86.475 24.5948 86.8317 24.2381 87.6101L23.2002 89.9126C23.0056 90.3505 23.2164 90.6261 23.6381 90.6261C23.8975 90.6261 24.011 90.5613 24.1246 90.2856L25.1462 87.5939C25.4381 87.2371 25.6976 86.929 26.0219 86.5885H27.076ZM21.9519 87.043C22.1141 86.4106 21.806 86.1349 21.4492 86.1349C21.06 86.1349 20.5735 86.7025 20.3141 87.4808L21.9519 87.043ZM22.3563 88.7938H22.032C21.6266 89.2802 21.1725 89.6694 20.7347 89.6694C20.2806 89.6694 20.0536 89.3938 20.0536 88.7938C20.0536 88.5506 20.086 88.2911 20.1347 88.0641L22.778 87.1885C23.2969 85.9561 22.6807 85.421 21.9509 85.421C20.7023 85.421 19.2752 87.6101 19.2752 89.3613C19.2752 90.1883 19.6644 90.6423 20.2806 90.6423C20.9942 90.6261 21.7401 89.9289 22.3563 88.7938ZM17.1688 86.1669H16.2931V85.7616L17.3796 85.6156L18.2878 84.2373H18.7905L18.304 85.6156H19.5851L19.4229 86.1669H18.1094L16.8283 89.7505C17.4121 89.6532 18.1905 89.1019 18.5472 88.5992H18.7905C18.3364 89.7992 17.1526 90.6424 16.1634 90.6424C15.8229 90.6424 15.6445 90.3181 15.7742 89.9938L17.1688 86.1669ZM11.656 89.1347C11.656 87.951 12.9696 86.3619 13.6993 86.3619C13.8615 86.3619 14.0236 86.3781 14.1534 86.4267L13.3912 88.4699C12.9534 89.005 12.2723 89.6536 11.9479 89.6536C11.7695 89.6536 11.656 89.4914 11.656 89.1347ZM15.2727 85.1782L15.6781 85.2106L14.2673 88.4537C13.9267 89.232 14.0727 89.5888 14.2673 89.5888C14.4619 89.5888 14.7051 89.3617 14.9646 88.9888H15.2079C14.8349 89.8158 14.3484 90.6428 13.8132 90.6428C13.3592 90.6428 13.0835 90.1563 13.1646 89.2807L13.197 88.9726L13.1087 89.0959C12.5278 89.908 12.0022 90.6428 11.4618 90.6428C10.9916 90.6428 10.7483 90.3509 10.7483 89.9131C10.7483 88.0321 12.8078 85.6322 14.7376 85.6322H14.8187L15.2727 85.1782ZM11.5581 86.5885C11.7365 85.9723 11.6392 85.421 11.1689 85.421C10.5824 85.421 10.3988 85.8083 9.83045 87.007L9.79053 87.0912V86.3777C9.79053 85.875 9.62837 85.421 9.17431 85.421C8.63916 85.421 8.15267 86.248 7.77969 87.075H8.02294C8.2824 86.702 8.52565 86.475 8.70403 86.475C8.93106 86.475 9.06079 86.8317 8.70403 87.6101L7.66617 89.9289C7.47158 90.3667 7.68239 90.6423 8.10402 90.6423C8.36348 90.6423 8.477 90.5775 8.59051 90.3018L9.61215 87.6101C9.90405 87.2533 10.1635 86.9452 10.4878 86.6047H11.5581V86.5885ZM4.87574 90.1549L4.77844 90.4468H1L1.0973 90.1387C2.26489 89.9279 2.45948 89.8306 2.94598 88.5171L4.00005 85.6957C4.47033 84.3822 4.37303 84.285 3.35139 84.0742L3.44869 83.7823H8.36228L8.07039 85.3552H7.71362C7.71362 84.4147 7.61633 84.1714 6.72442 84.1714H6.49739C5.6217 84.1714 5.50818 84.3012 5.26494 84.9822L4.56763 86.8794H5.58926C6.27036 86.8794 6.52982 86.4578 6.83793 85.9065H7.1947L6.35144 88.2091H5.99468C6.07576 87.5118 6.07576 87.2361 5.44332 87.2361H4.42168L3.9514 88.5334C3.44304 89.8836 3.58831 89.9111 4.79883 90.1403C4.824 90.1451 4.84964 90.1499 4.87574 90.1549Z" fill="black"/>
<path fill-rule="evenodd" clip-rule="evenodd" d="M8.08625 71.0541L6.57815 72.1406V72.1568H6.18896L7.08085 70.8595H8.08625V71.0541ZM18.6282 78.6593L21.0444 72.2377L20.9633 72.1405L19.2931 72.335V72.5296L19.6174 72.7729C19.8943 72.9882 19.821 73.189 19.5912 73.8181L19.5525 73.9242L17.7039 78.8539C17.5579 79.1458 17.7525 79.5026 18.0931 79.5026C18.8552 79.5026 19.666 78.8053 20.039 77.8485H19.7958C19.5363 78.2053 19.0174 78.5945 18.6282 78.6593ZM29.7027 73.7134L31.2108 72.335V72.1405H30.2054L29.3135 73.7134H29.7027ZM29.7989 77.6539H30.1233C29.5233 78.8053 28.7773 79.5025 28.0638 79.5025C27.4476 79.5025 27.0584 79.0485 27.0584 78.2215C27.0584 76.4701 28.4854 74.281 29.7341 74.281C30.4476 74.281 31.08 74.8161 30.5611 76.0485L27.9017 76.9242C27.853 77.1512 27.8206 77.4107 27.8206 77.6539C27.8206 78.2539 28.0476 78.5296 28.5017 78.5296C28.9395 78.5296 29.3935 78.1404 29.7989 77.6539ZM29.7171 75.9026C29.8792 75.2864 29.5711 75.0107 29.2144 75.0107C28.8414 75.0107 28.3549 75.5783 28.0793 76.3405L29.7171 75.9026ZM24.9495 75.0428H24.0738V74.6374L25.1603 74.4914L26.0684 73.113H26.5711L26.0846 74.4914H27.3657L27.2036 75.0428H25.89L24.609 78.6265C25.1927 78.5292 25.9711 77.9779 26.3279 77.4752H26.5711C26.1171 78.6752 24.9333 79.5184 23.9441 79.5184C23.6036 79.5184 23.4252 79.1941 23.5549 78.8698L24.9495 75.0428ZM23.1656 74.8481C23.2629 74.4914 23.0359 74.2968 22.8413 74.2968C22.0791 74.2968 21.171 74.9941 20.7981 75.9508H21.0413C21.2846 75.5941 21.7062 75.2049 22.1116 75.14L20.6521 78.9508C20.5224 79.3076 20.7818 79.5022 20.9602 79.5022C21.69 79.5022 22.5332 78.8049 22.9062 77.8481H22.6629C22.4197 78.2049 21.9981 78.5941 21.5927 78.6589L23.1656 74.8481ZM23.9128 72.7404C23.9128 73.0648 23.6371 73.3404 23.3128 73.3404C22.9884 73.3404 22.7128 73.0648 22.7128 72.7404C22.7128 72.4161 22.9722 72.1405 23.3128 72.1405C23.6371 72.1405 23.9128 72.4161 23.9128 72.7404ZM15.7253 75.2377C14.9956 75.2377 13.6821 76.8269 13.6821 78.0107C13.6821 78.3674 13.7956 78.5296 13.9902 78.5296C14.2983 78.5296 14.9794 77.8809 15.4172 77.3458L16.1794 75.3026C16.0334 75.2539 15.8875 75.2377 15.7253 75.2377ZM17.7041 74.0864L17.2987 74.054L16.8446 74.508H16.7635C14.8338 74.508 12.7744 76.908 12.7744 78.7891C12.7744 79.2269 13.0176 79.5188 13.4879 79.5188C14.0282 79.5188 14.5538 78.784 15.1347 77.9719L15.223 77.8485L15.1906 78.1567C15.1095 79.0323 15.3852 79.5188 15.8392 79.5188C16.3744 79.5188 16.8608 78.6918 17.2338 77.8648H16.9906C16.7311 78.2377 16.4879 78.4648 16.2933 78.4648C16.0987 78.4648 15.9527 78.108 16.2933 77.3296L17.7041 74.0864ZM9.53023 79.3406C8.83293 79.6162 8.34645 79.9406 8.34645 80.4433C8.34645 80.9135 8.78428 81.1081 9.69239 81.1081C10.9086 81.1081 11.5735 80.7514 11.5735 80.2811C11.5735 80.0703 11.2978 79.973 10.5681 79.7298C10.0978 79.5838 9.75725 79.4541 9.53023 79.3406ZM10.34 77.3459C10.0156 77.3459 9.90213 77.0702 9.90213 76.7784C9.90213 75.8378 10.3562 74.6703 11.0859 74.6703C11.4102 74.6703 11.5237 74.9459 11.5237 75.2378C11.5075 76.1946 11.0535 77.3459 10.34 77.3459ZM10.9578 78.8701C11.8497 79.1458 12.4011 79.3566 12.4011 79.9728C12.4011 80.7674 10.9416 81.7079 9.17404 81.6917C8.15242 81.6917 7.27675 81.416 7.27675 80.7512C7.27675 80.1188 7.86053 79.5998 9.28755 79.1782C9.09296 79.0485 9.01188 78.8863 9.01188 78.6593C9.01188 78.2701 9.36863 77.962 9.98485 77.6701C9.38485 77.589 8.99566 77.135 8.99566 76.4701C8.99566 75.4485 9.8389 74.281 11.1686 74.281C11.4443 74.281 11.6875 74.3458 11.8821 74.4756H13.3416L13.1794 75.0269H12.32C12.3686 75.1728 12.4011 75.335 12.4011 75.5134C12.4011 76.5026 11.6065 77.6377 10.3416 77.7026C10.0173 77.8809 9.85512 78.1242 9.85512 78.3188C9.85512 78.5478 10.1204 78.6252 10.7066 78.7963C10.7846 78.819 10.8683 78.8435 10.9578 78.8701ZM5.8162 76.0973C6.44863 76.0973 6.46484 76.373 6.36755 77.0702H6.7243L7.56754 74.7676H7.21079C6.90268 75.3189 6.64322 75.7405 5.96214 75.7405H4.56755L5.24863 73.8432C5.49188 73.1622 5.60539 73.0324 6.48106 73.0324H7.09727C7.98916 73.0324 8.08646 73.2757 8.08646 74.2162H8.44322L8.73511 72.6432H3.44864L3.35134 72.9351C4.37296 73.1459 4.47026 73.2432 3.99999 74.5567L2.94594 77.3946C2.45945 78.7081 2.26486 78.8054 1.08108 79.0162L1 79.3243H6.87025L7.9243 77.654H7.51889C6.83782 78.3189 6.15674 78.9351 4.82701 78.9351C3.36441 78.9351 3.39047 78.8635 3.82931 77.658C3.85756 77.5804 3.88753 77.4981 3.91891 77.4108L4.40539 76.1135H5.8162V76.0973Z" fill="black"/>
<path fill-rule="evenodd" clip-rule="evenodd" d="M10.6634 62.1999C10.9877 62.1999 11.2634 61.9243 11.2634 61.6C11.2634 61.2757 10.9877 61 10.6634 61C10.3229 61 10.0634 61.2757 10.0634 61.6C10.0634 61.9405 10.3229 62.1999 10.6634 62.1999ZM15.4651 64.2426C15.4651 63.4642 15.2705 63.1724 14.7191 63.1724C14.0381 63.1724 13.4057 63.9021 12.7732 64.7777L14.1354 61.1293L14.0543 61.0158L12.384 61.2104V61.4049L12.7084 61.6482C12.9907 61.8678 12.9089 62.0874 12.6683 62.7328L12.6435 62.7994L11.1678 66.6586C11.0381 66.9829 10.8922 67.3721 10.8922 67.4693C10.8922 67.9234 11.5084 68.3612 12.0759 68.3612C13.3408 68.3774 15.4651 66.0424 15.4651 64.2426ZM29.5243 62.5886L31.0324 61.2104V61.0158H30.027L29.1352 62.5886H29.5243ZM29.622 66.5289H29.9463C29.3301 67.6802 28.5842 68.3774 27.8707 68.3612C27.2545 68.3612 26.8653 67.9234 26.8653 67.0964C26.8653 65.3452 28.2923 63.1562 29.5409 63.1562C30.2544 63.1562 30.8869 63.6913 30.3679 64.9236L27.7247 65.7992C27.6761 66.0262 27.6437 66.2857 27.6437 66.5289C27.6437 67.1289 27.8707 67.4045 28.3247 67.4045C28.7626 67.4045 29.2166 67.0154 29.622 66.5289ZM29.5394 64.7777C29.7015 64.1616 29.3934 63.8859 29.0367 63.8859C28.6475 63.8859 28.161 64.4534 27.9016 65.2155L29.5394 64.7777ZM24.7538 63.9193H23.8782V63.5139L24.9646 63.368L25.8727 61.9897H26.3754L25.889 63.368H27.17L27.0079 63.9193H25.6944L24.4133 67.5028C24.9971 67.4055 25.7754 66.8542 26.1322 66.3515H26.3754C25.9214 67.5514 24.7376 68.3946 23.7484 68.3946C23.4079 68.3946 23.2295 68.0703 23.3593 67.746L24.7538 63.9193ZM23.4272 64.3408C23.6056 63.7247 23.5083 63.1733 23.038 63.1733C22.4515 63.1733 22.2679 63.5607 21.6996 64.7593L21.6597 64.8435V64.13C21.6597 63.6274 21.4975 63.1733 21.0434 63.1733C20.5083 63.1733 20.0218 64.0003 19.6489 64.8273H19.8921C20.1516 64.4543 20.3948 64.2273 20.5732 64.2273C20.8002 64.2273 20.9299 64.584 20.5732 65.3624L19.5354 67.6649C19.3408 68.1027 19.5516 68.3783 19.9732 68.3783C20.2326 68.3783 20.3462 68.3135 20.4597 68.0378L21.4813 65.3461C21.7732 64.9894 22.0326 64.6813 22.3569 64.3408H23.4272ZM18.2871 64.7777C18.4493 64.1616 18.1412 63.8859 17.7844 63.8859C17.3952 63.8859 16.925 64.4534 16.6493 65.2155L18.2871 64.7777ZM18.6915 66.5289H18.3672C17.9618 67.0154 17.5077 67.4045 17.0699 67.4045C16.6158 67.4045 16.3888 67.1289 16.3888 66.5289C16.3888 66.2857 16.4213 66.0262 16.4699 65.7992L19.1131 64.9236C19.632 63.6913 19.0158 63.1562 18.2861 63.1562C17.0375 63.1562 15.6105 65.3452 15.6105 67.0964C15.6105 67.9234 15.9996 68.3612 16.6158 68.3612C17.3294 68.3774 18.0753 67.6802 18.6915 66.5289ZM11.882 67.1456C11.882 67.3564 12.255 67.5997 12.5144 67.5997C13.5685 67.5997 14.5576 65.7025 14.5414 64.6485C14.5414 64.2918 14.363 64.1459 14.1198 64.1459C13.7306 64.1459 13.0171 64.7296 12.5631 65.2809L12.1414 66.416C11.9955 66.7889 11.882 67.0808 11.882 67.1456ZM10.1796 63.1733C10.3742 63.1733 10.6012 63.3679 10.5039 63.7247L8.94719 67.5352C9.35259 67.4703 9.7742 67.0811 10.0174 66.7244H10.2607C9.88771 67.6811 9.04448 68.3783 8.31476 68.3783C8.12017 68.3783 7.86071 68.1838 7.99044 67.827L9.44988 64.0165C9.04448 64.0814 8.62287 64.4705 8.37963 64.8273H8.13639C8.50935 63.8706 9.41745 63.1733 10.1796 63.1733ZM3.44861 61.4869H6.93505L6.83776 61.795C5.65399 62.0058 5.4594 62.1031 4.97292 63.4165L3.93509 66.2703C3.4324 67.6324 3.56213 67.7945 4.45401 67.7945C5.55591 67.7945 6.27845 66.9937 6.90935 66.2944C6.95622 66.2425 7.00259 66.1911 7.04856 66.1406H7.45396L6.30263 68.1837H1L1.0973 67.8918C2.26485 67.681 2.45944 67.5838 2.94592 66.2703L3.99996 63.4003C4.47022 62.0869 4.37293 61.9896 3.35132 61.7788L3.44861 61.4869Z" fill="black"/>
</svg>
