<svg width="43" height="46" viewBox="0 0 43 46" fill="none" xmlns="http://www.w3.org/2000/svg">
<g filter="url(#filter0_d_1454_49801)">
<path d="M28.4853 29.4852L20 37.9706L11.5147 29.4852C9.83646 27.807 8.69358 25.6688 8.23057 23.341C7.76756 21.0133 8.00521 18.6005 8.91346 16.4078C9.82172 14.2151 11.3598 12.3409 13.3332 11.0224C15.3066 9.70378 17.6266 9 20 9C22.3734 9 24.6934 9.70378 26.6668 11.0224C28.6402 12.3409 30.1783 14.2151 31.0865 16.4078C31.9948 18.6005 32.2324 21.0133 31.7694 23.341C31.3064 25.6688 30.1636 27.807 28.4853 29.4852V29.4852ZM20 23.6666C20.7072 23.6666 21.3855 23.3856 21.8856 22.8855C22.3857 22.3854 22.6667 21.7071 22.6667 20.9999C22.6667 20.2927 22.3857 19.6144 21.8856 19.1143C21.3855 18.6142 20.7072 18.3332 20 18.3332C19.2928 18.3332 18.6145 18.6142 18.1144 19.1143C17.6143 19.6144 17.3333 20.2927 17.3333 20.9999C17.3333 21.7071 17.6143 22.3854 18.1144 22.8855C18.6145 23.3856 19.2928 23.6666 20 23.6666Z" fill="#0909DC"/>
<rect x="16" y="17.333" width="9" height="7" fill="#0909DC"/>
<rect x="23.25" y="4.25" width="13.5" height="13.5" rx="6.75" fill="white"/>
<rect x="23.25" y="4.25" width="13.5" height="13.5" rx="6.75" stroke="#FF8C00" stroke-width="0.5"/>
<path fill-rule="evenodd" clip-rule="evenodd" d="M30.8327 11.9382V15.1665H26.666C26.6658 14.1354 27.1427 13.1622 27.9578 12.5307C28.7729 11.8992 29.8343 11.6804 30.8327 11.9382ZM29.9993 11.4165C28.6181 11.4165 27.4993 10.2978 27.4993 8.9165C27.4993 7.53525 28.6181 6.4165 29.9993 6.4165C31.3806 6.4165 32.4993 7.53525 32.4993 8.9165C32.4993 10.2978 31.3806 11.4165 29.9993 11.4165ZM32.4993 13.0832V11.8332H33.3327V13.0832H34.5827V13.9165H33.3327V15.1665H32.4993V13.9165H31.2493V13.0832H32.4993Z" fill="#FF8C00"/>
</g>
<path fill-rule="evenodd" clip-rule="evenodd" d="M25 25V26H15V25H25ZM17 21V24.5H16V21H17ZM19.5 21V24.5H18.5V21H19.5ZM21.5 21V24.5H20.5V21H21.5ZM24 21V24.5H23V21H24ZM20 16L25 18.5V20.5H15V18.5L20 16ZM20 18C19.7239 18 19.5 18.2239 19.5 18.5C19.5 18.7761 19.7239 19 20 19C20.2761 19 20.5 18.7761 20.5 18.5C20.5 18.2239 20.2761 18 20 18Z" fill="white"/>
<defs>
<filter id="filter0_d_1454_49801" x="-6" y="-1" width="52" height="52" filterUnits="userSpaceOnUse" color-interpolation-filters="sRGB">
<feFlood flood-opacity="0" result="BackgroundImageFix"/>
<feColorMatrix in="SourceAlpha" type="matrix" values="0 0 0 0 0 0 0 0 0 0 0 0 0 0 0 0 0 0 127 0" result="hardAlpha"/>
<feOffset dy="2"/>
<feGaussianBlur stdDeviation="3"/>
<feColorMatrix type="matrix" values="0 0 0 0 0 0 0 0 0 0 0 0 0 0 0.0705882 0 0 0 0.16 0"/>
<feBlend mode="normal" in2="BackgroundImageFix" result="effect1_dropShadow_1454_49801"/>
<feBlend mode="normal" in="SourceGraphic" in2="effect1_dropShadow_1454_49801" result="shape"/>
</filter>
</defs>
</svg>
